{"glyphs":{"0":{"ha":919,"x_min":0,"x_max":0,"o":"m 460 -11 b 846 478 818 -11 846 65 b 460 967 846 890 818 967 b 74 478 100 967 74 890 b 460 -11 74 65 100 -11 z m 460 181 b 328 478 331 181 328 188 b 460 775 328 768 331 775 b 592 478 588 775 592 768 b 460 181 592 188 588 181 z "},"1":{"ha":550,"x_min":0,"x_max":0,"o":"m 199 0 l 451 0 l 451 956 l 278 956 l 22 826 l 22 631 l 199 704 z "},"2":{"ha":851,"x_min":0,"x_max":0,"o":"m 72 0 l 776 0 l 776 194 l 314 194 l 314 229 b 381 325 314 286 326 304 l 617 418 b 776 700 717 457 776 522 b 432 967 776 936 619 967 b 92 935 324 967 182 953 l 92 754 b 365 775 192 767 304 775 b 522 686 490 775 522 767 b 436 574 522 617 514 604 l 228 489 b 72 133 79 428 72 344 z "},"3":{"ha":846,"x_min":0,"x_max":0,"o":"m 379 -11 b 769 256 700 -11 769 94 b 596 485 769 411 707 460 l 596 490 b 761 715 706 515 761 576 b 381 967 761 878 674 967 b 75 936 288 967 158 954 l 75 757 b 342 775 147 767 260 775 b 507 676 478 775 507 769 b 393 578 507 592 479 578 l 235 578 l 235 389 l 393 389 b 515 281 489 389 515 372 b 356 181 515 185 476 181 b 69 197 288 181 168 188 l 69 19 b 379 -11 154 3 285 -11 z "},"4":{"ha":904,"x_min":0,"x_max":0,"o":"m 497 0 l 747 0 l 747 189 l 863 189 l 863 381 l 747 381 l 747 604 l 578 604 l 506 381 l 310 381 l 640 956 l 368 956 l 46 360 l 46 189 l 497 189 z "},"5":{"ha":869,"x_min":0,"x_max":0,"o":"m 407 -11 b 797 314 725 -11 797 89 b 499 601 797 497 738 601 b 325 592 444 601 372 597 l 325 761 l 726 761 l 726 956 l 106 956 l 106 397 b 372 413 188 407 297 413 b 543 297 511 413 543 401 b 376 181 543 199 517 181 b 94 197 307 181 190 188 l 94 18 b 407 -11 185 1 314 -11 z "},"6":{"ha":924,"x_min":0,"x_max":0,"o":"m 479 -11 b 854 319 786 -11 854 81 b 544 603 854 556 749 603 b 335 536 404 603 354 560 l 326 536 b 535 775 326 742 350 775 b 799 757 589 775 694 767 l 799 936 b 489 967 696 954 567 967 b 114 796 274 967 165 924 b 74 475 83 722 74 618 b 115 129 74 304 86 192 b 479 -11 172 8 279 -11 z m 468 178 b 329 308 364 178 329 183 b 468 414 329 385 340 414 b 613 293 588 414 613 403 b 468 178 613 189 586 178 z "},"7":{"ha":796,"x_min":0,"x_max":0,"o":"m 136 0 l 413 0 l 749 778 l 749 956 l 46 956 l 46 761 l 483 761 z "},"8":{"ha":944,"x_min":0,"x_max":0,"o":"m 472 -11 b 872 256 800 -11 872 90 b 699 485 872 413 811 458 l 699 490 b 864 715 810 515 864 576 b 472 967 864 879 775 967 b 81 715 169 967 81 879 b 246 490 81 576 135 515 l 246 485 b 72 256 133 458 72 413 b 472 -11 72 90 144 -11 z m 472 568 b 333 674 353 568 333 581 b 472 781 333 768 353 781 b 611 674 592 781 611 768 b 472 568 611 581 590 568 z m 472 175 b 325 283 354 175 325 185 b 472 397 325 386 351 397 b 619 283 592 397 619 386 b 472 175 619 185 590 175 z "},"9":{"ha":924,"x_min":0,"x_max":0,"o":"m 435 -11 b 797 133 632 -11 739 25 b 849 481 836 206 849 318 b 817 803 849 624 842 726 b 444 967 772 943 665 967 b 69 636 136 967 69 875 b 378 353 69 400 175 353 b 589 419 518 353 568 396 l 597 419 b 388 181 597 214 574 181 b 125 199 335 181 229 189 l 125 19 b 435 -11 224 3 353 -11 z m 456 542 b 310 663 336 542 310 553 b 456 778 310 767 338 778 b 593 647 560 778 593 772 b 456 542 593 571 582 542 z "},"\r":{"ha":833,"x_min":0,"x_max":0,"o":""}," ":{"ha":353,"x_min":0,"x_max":0,"o":""},"A":{"ha":960,"x_min":0,"x_max":0,"o":"m 8 0 l 257 0 l 311 182 l 642 182 l 696 0 l 950 0 l 653 956 l 307 956 z m 363 368 l 471 740 l 481 740 l 589 368 z "},"Á":{"ha":960,"x_min":0,"x_max":0,"o":"m 358 1046 l 524 1046 l 708 1240 l 708 1247 l 485 1247 l 358 1053 z m 8 0 l 257 0 l 311 182 l 642 182 l 696 0 l 950 0 l 653 956 l 307 956 z m 363 368 l 471 740 l 481 740 l 589 368 z "},"Ă":{"ha":960,"x_min":0,"x_max":0,"o":"m 450 1036 b 664 1244 638 1036 664 1122 l 536 1244 b 450 1158 536 1193 535 1158 b 364 1244 364 1158 364 1193 l 238 1244 b 450 1036 238 1122 263 1036 z m 8 0 l 257 0 l 311 182 l 642 182 l 696 0 l 950 0 l 653 956 l 307 956 z m 363 368 l 471 740 l 481 740 l 589 368 z "},"Ắ":{"ha":960,"x_min":0,"x_max":0,"o":"m 358 1285 l 522 1285 l 708 1481 l 708 1488 l 485 1488 l 358 1292 z m 450 1036 b 664 1244 638 1036 664 1122 l 536 1244 b 450 1158 536 1193 535 1158 b 364 1244 364 1158 364 1193 l 238 1244 b 450 1036 238 1122 263 1036 z m 8 0 l 257 0 l 311 182 l 642 182 l 696 0 l 950 0 l 653 956 l 307 956 z m 363 368 l 471 740 l 481 740 l 589 368 z "},"Ặ":{"ha":960,"x_min":0,"x_max":0,"o":"m 450 1036 b 664 1244 638 1036 664 1122 l 536 1244 b 450 1158 536 1193 535 1158 b 364 1244 364 1158 364 1193 l 238 1244 b 450 1036 238 1122 263 1036 z m 8 0 l 257 0 l 311 182 l 642 182 l 696 0 l 950 0 l 653 956 l 307 956 z m 363 368 l 471 740 l 481 740 l 589 368 z m 389 -299 l 571 -299 l 571 -132 l 389 -132 z "},"Ằ":{"ha":960,"x_min":0,"x_max":0,"o":"m 421 1285 l 585 1285 l 585 1292 l 460 1488 l 235 1488 l 235 1481 z m 478 1038 b 692 1244 665 1038 692 1124 l 564 1244 b 478 1160 564 1194 563 1160 b 392 1244 392 1160 392 1194 l 265 1244 b 478 1038 265 1124 290 1038 z m 8 0 l 257 0 l 311 182 l 642 182 l 696 0 l 950 0 l 653 956 l 307 956 z m 363 368 l 471 740 l 481 740 l 589 368 z "},"Ẳ":{"ha":960,"x_min":0,"x_max":0,"o":"m 392 1274 l 513 1274 b 558 1314 513 1296 518 1301 l 579 1319 b 679 1436 657 1342 679 1363 b 479 1574 679 1567 594 1574 b 299 1558 424 1574 347 1567 l 299 1454 b 443 1463 336 1458 408 1463 b 532 1422 515 1463 532 1461 b 483 1381 532 1397 525 1392 l 460 1374 b 392 1281 403 1358 392 1333 z m 478 1038 b 692 1244 665 1038 692 1124 l 564 1244 b 478 1160 564 1194 563 1160 b 392 1244 392 1160 392 1194 l 265 1244 b 478 1038 265 1124 290 1038 z m 8 0 l 257 0 l 311 182 l 642 182 l 696 0 l 950 0 l 653 956 l 307 956 z m 363 368 l 471 740 l 481 740 l 589 368 z "},"Ẵ":{"ha":960,"x_min":0,"x_max":0,"o":"m 211 1278 l 326 1278 b 361 1338 326 1322 326 1338 b 458 1319 386 1338 419 1329 b 614 1294 506 1308 558 1294 b 744 1494 742 1294 744 1367 l 631 1494 b 596 1435 631 1449 631 1435 b 499 1453 569 1435 538 1443 b 343 1478 451 1464 396 1478 b 211 1278 215 1478 211 1404 z m 478 1038 b 692 1244 665 1038 692 1124 l 564 1244 b 478 1160 564 1194 563 1160 b 392 1244 392 1160 392 1194 l 265 1244 b 478 1038 265 1124 290 1038 z m 8 0 l 257 0 l 311 182 l 642 182 l 696 0 l 950 0 l 653 956 l 307 956 z m 363 368 l 471 740 l 481 740 l 589 368 z "},"Ǎ":{"ha":960,"x_min":0,"x_max":0,"o":"m 372 1046 l 588 1046 l 718 1238 l 718 1247 l 568 1247 l 481 1138 l 393 1247 l 243 1247 l 243 1238 z m 8 0 l 257 0 l 311 182 l 642 182 l 696 0 l 950 0 l 653 956 l 307 956 z m 363 368 l 471 740 l 481 740 l 589 368 z "},"Â":{"ha":960,"x_min":0,"x_max":0,"o":"m 243 1046 l 393 1046 l 479 1156 l 568 1046 l 718 1046 l 718 1056 l 588 1247 l 372 1247 l 243 1056 z m 8 0 l 257 0 l 311 182 l 642 182 l 696 0 l 950 0 l 653 956 l 307 956 z m 363 368 l 471 740 l 481 740 l 589 368 z "},"Ấ":{"ha":960,"x_min":0,"x_max":0,"o":"m 358 1293 l 524 1293 l 710 1488 l 710 1494 l 485 1494 l 358 1300 z m 243 1046 l 393 1046 l 479 1156 l 568 1046 l 718 1046 l 718 1056 l 588 1247 l 372 1247 l 243 1056 z m 8 0 l 257 0 l 311 182 l 642 182 l 696 0 l 950 0 l 653 956 l 307 956 z m 363 368 l 471 740 l 481 740 l 589 368 z "},"Ậ":{"ha":960,"x_min":0,"x_max":0,"o":"m 243 1046 l 393 1046 l 479 1156 l 568 1046 l 718 1046 l 718 1056 l 588 1247 l 372 1247 l 243 1056 z m 8 0 l 257 0 l 311 182 l 642 182 l 696 0 l 950 0 l 653 956 l 307 956 z m 363 368 l 471 740 l 481 740 l 589 368 z m 389 -299 l 571 -299 l 571 -132 l 389 -132 z "},"Ầ":{"ha":960,"x_min":0,"x_max":0,"o":"m 401 1293 l 567 1293 l 567 1300 l 440 1494 l 217 1494 l 217 1488 z m 243 1046 l 393 1046 l 479 1156 l 568 1046 l 718 1046 l 718 1056 l 588 1247 l 372 1247 l 243 1056 z m 8 0 l 257 0 l 311 182 l 642 182 l 696 0 l 950 0 l 653 956 l 307 956 z m 363 368 l 471 740 l 481 740 l 589 368 z "},"Ẩ":{"ha":960,"x_min":0,"x_max":0,"o":"m 393 1281 l 514 1281 b 558 1321 514 1303 519 1310 l 579 1328 b 681 1444 658 1350 681 1371 b 481 1581 681 1574 596 1581 b 300 1567 424 1581 347 1575 l 300 1463 b 444 1469 338 1467 408 1469 b 533 1429 517 1469 533 1468 b 485 1388 533 1404 526 1400 l 460 1381 b 393 1288 404 1365 393 1340 z m 243 1046 l 393 1046 l 479 1156 l 568 1046 l 718 1046 l 718 1056 l 588 1247 l 372 1247 l 243 1056 z m 8 0 l 257 0 l 311 182 l 642 182 l 696 0 l 950 0 l 653 956 l 307 956 z m 363 368 l 471 740 l 481 740 l 589 368 z "},"Ẫ":{"ha":960,"x_min":0,"x_max":0,"o":"m 214 1286 l 329 1286 b 364 1346 329 1331 329 1346 b 460 1328 388 1346 422 1336 b 617 1301 507 1317 561 1301 b 747 1501 743 1301 747 1375 l 632 1501 b 597 1442 632 1457 632 1442 b 501 1460 571 1442 539 1451 b 344 1485 454 1471 399 1485 b 214 1286 217 1485 214 1413 z m 243 1046 l 393 1046 l 479 1156 l 568 1046 l 718 1046 l 718 1056 l 588 1247 l 372 1247 l 243 1056 z m 8 0 l 257 0 l 311 182 l 642 182 l 696 0 l 950 0 l 653 956 l 307 956 z m 363 368 l 471 740 l 481 740 l 589 368 z "},"Ȁ":{"ha":960,"x_min":0,"x_max":0,"o":"m 436 1046 l 436 1051 l 328 1221 l 144 1221 l 144 1214 l 300 1046 z m 700 1046 l 700 1051 l 593 1221 l 410 1221 l 410 1214 l 565 1046 z m 8 0 l 257 0 l 311 182 l 642 182 l 696 0 l 950 0 l 653 956 l 307 956 z m 363 368 l 471 740 l 481 740 l 589 368 z "},"Ä":{"ha":960,"x_min":0,"x_max":0,"o":"m 236 1069 l 425 1069 l 425 1224 l 236 1224 z m 533 1069 l 722 1069 l 722 1224 l 533 1224 z m 8 0 l 257 0 l 311 182 l 642 182 l 696 0 l 950 0 l 653 956 l 307 956 z m 363 368 l 471 740 l 481 740 l 589 368 z "},"Ạ":{"ha":960,"x_min":0,"x_max":0,"o":"m 8 0 l 257 0 l 311 182 l 642 182 l 696 0 l 950 0 l 653 956 l 307 956 z m 363 368 l 471 740 l 481 740 l 589 368 z m 389 -299 l 571 -299 l 571 -132 l 389 -132 z "},"À":{"ha":960,"x_min":0,"x_max":0,"o":"m 401 1046 l 565 1046 l 565 1053 l 439 1247 l 215 1247 l 215 1240 z m 8 0 l 257 0 l 311 182 l 642 182 l 696 0 l 950 0 l 653 956 l 307 956 z m 363 368 l 471 740 l 481 740 l 589 368 z "},"Ả":{"ha":960,"x_min":0,"x_max":0,"o":"m 392 1033 l 513 1033 b 558 1074 513 1056 518 1063 l 579 1081 b 679 1197 657 1103 679 1124 b 479 1333 679 1326 594 1333 b 299 1319 424 1333 347 1328 l 299 1215 b 443 1222 336 1219 408 1222 b 532 1182 515 1222 532 1221 b 483 1140 532 1157 525 1153 l 460 1133 b 392 1040 403 1118 392 1093 z m 8 0 l 257 0 l 311 182 l 642 182 l 696 0 l 950 0 l 653 956 l 307 956 z m 363 368 l 471 740 l 481 740 l 589 368 z "},"Ȃ":{"ha":960,"x_min":0,"x_max":0,"o":"m 481 1257 b 265 1049 293 1257 265 1171 l 393 1049 b 481 1135 393 1100 394 1135 b 565 1049 565 1135 565 1100 l 692 1049 b 481 1257 692 1171 667 1257 z m 8 0 l 257 0 l 311 182 l 642 182 l 696 0 l 950 0 l 653 956 l 307 956 z m 363 368 l 471 740 l 481 740 l 589 368 z "},"Ā":{"ha":960,"x_min":0,"x_max":0,"o":"m 247 1069 l 711 1069 l 711 1203 l 247 1203 z m 8 0 l 257 0 l 311 182 l 642 182 l 696 0 l 950 0 l 653 956 l 307 956 z m 363 368 l 471 740 l 481 740 l 589 368 z "},"Ą":{"ha":960,"x_min":0,"x_max":0,"o":"m 929 -160 b 864 -112 876 -160 864 -140 b 951 0 864 -72 915 -21 l 950 0 l 653 956 l 307 956 l 8 0 l 257 0 l 311 182 l 642 182 l 696 0 l 764 0 b 675 -160 711 -49 675 -107 b 854 -278 675 -222 713 -278 b 953 -272 885 -278 925 -275 l 953 -158 b 929 -160 942 -160 933 -160 z m 363 368 l 471 740 l 481 740 l 589 368 z "},"Å":{"ha":960,"x_min":0,"x_max":0,"o":"m 660 935 b 733 1096 725 960 733 1010 b 508 1278 733 1226 714 1278 b 286 1096 303 1278 286 1226 b 322 956 286 1029 290 985 l 307 956 l 8 0 l 257 0 l 311 182 l 642 182 l 696 0 l 950 0 z m 508 1176 b 600 1096 600 1176 600 1158 b 508 1017 600 1033 600 1017 b 418 1096 419 1017 418 1033 b 508 1176 418 1158 419 1176 z m 363 368 l 471 740 l 481 740 l 589 368 z "},"Ǻ":{"ha":960,"x_min":0,"x_max":0,"o":"m 739 1526 l 739 1533 l 515 1533 l 389 1339 l 389 1332 l 554 1332 z m 660 935 b 733 1096 725 960 733 1010 b 508 1278 733 1226 714 1278 b 286 1096 303 1278 286 1226 b 322 956 286 1029 290 985 l 307 956 l 8 0 l 257 0 l 311 182 l 642 182 l 696 0 l 950 0 z m 508 1176 b 600 1096 600 1176 600 1158 b 508 1017 600 1033 600 1017 b 418 1096 419 1017 418 1033 b 508 1176 418 1158 419 1176 z m 363 368 l 471 740 l 481 740 l 589 368 z "},"Ã":{"ha":960,"x_min":0,"x_max":0,"o":"m 214 1039 l 329 1039 b 364 1099 329 1083 329 1099 b 460 1081 388 1099 422 1089 b 617 1054 507 1069 561 1054 b 747 1254 743 1054 747 1128 l 632 1254 b 597 1194 632 1210 632 1194 b 501 1213 571 1194 539 1204 b 344 1238 454 1224 399 1238 b 214 1039 217 1238 214 1165 z m 8 0 l 257 0 l 311 182 l 642 182 l 696 0 l 950 0 l 653 956 l 307 956 z m 363 368 l 471 740 l 481 740 l 589 368 z "},"Æ":{"ha":1349,"x_min":0,"x_max":0,"o":"m -26 0 l 222 0 l 300 183 l 633 183 l 664 0 l 1276 0 l 1276 192 l 872 192 l 836 388 l 1211 388 l 1211 576 l 807 576 l 774 764 l 1276 764 l 1276 956 l 410 956 z m 375 371 l 536 756 l 546 756 l 607 371 z "},"Ǽ":{"ha":1349,"x_min":0,"x_max":0,"o":"m 553 1046 l 718 1046 l 903 1240 l 903 1247 l 679 1247 l 553 1053 z m -26 0 l 222 0 l 300 183 l 633 183 l 664 0 l 1276 0 l 1276 192 l 872 192 l 836 388 l 1211 388 l 1211 576 l 807 576 l 774 764 l 1276 764 l 1276 956 l 410 956 z m 375 371 l 536 756 l 546 756 l 607 371 z "},"B":{"ha":928,"x_min":0,"x_max":0,"o":"m 96 0 l 581 0 b 861 254 788 0 861 94 b 688 485 861 401 806 458 l 688 490 b 854 715 801 515 854 579 b 582 956 854 876 763 956 l 96 956 z m 346 568 l 346 768 l 486 768 b 603 667 585 768 603 753 b 486 568 603 588 579 568 z m 346 188 l 346 397 l 490 397 b 607 292 586 397 607 378 b 490 188 607 204 588 188 z "},"C":{"ha":790,"x_min":0,"x_max":0,"o":"m 481 -11 b 732 11 564 -11 669 -1 l 732 193 b 542 181 679 186 600 181 b 328 478 336 181 328 204 b 542 775 328 750 336 775 b 726 763 576 775 635 771 l 726 942 b 481 967 667 956 564 967 b 74 478 121 967 74 860 b 481 -11 74 96 121 -11 z "},"Ć":{"ha":790,"x_min":0,"x_max":0,"o":"m 333 1046 l 499 1046 l 683 1240 l 683 1247 l 460 1247 l 333 1053 z m 481 -11 b 732 11 564 -11 669 -1 l 732 193 b 542 181 679 186 600 181 b 328 478 336 181 328 204 b 542 775 328 750 336 775 b 726 763 576 775 635 771 l 726 942 b 481 967 667 956 564 967 b 74 478 121 967 74 860 b 481 -11 74 96 121 -11 z "},"Č":{"ha":790,"x_min":0,"x_max":0,"o":"m 347 1046 l 563 1046 l 693 1238 l 693 1247 l 543 1247 l 456 1138 l 368 1247 l 218 1247 l 218 1238 z m 481 -11 b 732 11 564 -11 669 -1 l 732 193 b 542 181 679 186 600 181 b 328 478 336 181 328 204 b 542 775 328 750 336 775 b 726 763 576 775 635 771 l 726 942 b 481 967 667 956 564 967 b 74 478 121 967 74 860 b 481 -11 74 96 121 -11 z "},"Ç":{"ha":790,"x_min":0,"x_max":0,"o":"m 732 193 b 542 181 679 186 600 181 b 328 478 336 181 328 204 b 542 775 328 750 336 775 b 726 763 576 775 635 771 l 726 942 b 481 967 667 956 564 967 b 74 478 121 967 74 860 b 413 -10 74 121 115 4 l 314 -257 l 314 -264 l 525 -264 l 572 -8 b 732 11 632 -4 690 3 z "},"Ĉ":{"ha":790,"x_min":0,"x_max":0,"o":"m 218 1046 l 368 1046 l 454 1156 l 543 1046 l 693 1046 l 693 1056 l 563 1247 l 347 1247 l 218 1056 z m 481 -11 b 732 11 564 -11 669 -1 l 732 193 b 542 181 679 186 600 181 b 328 478 336 181 328 204 b 542 775 328 750 336 775 b 726 763 576 775 635 771 l 726 942 b 481 967 667 956 564 967 b 74 478 121 967 74 860 b 481 -11 74 96 121 -11 z "},"Ċ":{"ha":790,"x_min":0,"x_max":0,"o":"m 361 1069 l 550 1069 l 550 1224 l 361 1224 z m 481 -11 b 732 11 564 -11 669 -1 l 732 193 b 542 181 679 186 600 181 b 328 478 336 181 328 204 b 542 775 328 750 336 775 b 726 763 576 775 635 771 l 726 942 b 481 967 667 956 564 967 b 74 478 121 967 74 860 b 481 -11 74 96 121 -11 z "},"D":{"ha":940,"x_min":0,"x_max":0,"o":"m 96 0 l 432 0 b 867 478 857 0 867 94 b 432 956 867 861 857 956 l 96 956 z m 349 192 l 349 764 l 429 764 b 613 476 606 764 613 758 b 429 192 613 197 607 192 z "},"Ǳ":{"ha":1794,"x_min":0,"x_max":0,"o":"m 96 0 l 432 0 b 867 478 857 0 867 94 b 432 956 867 861 857 956 l 96 956 z m 1000 0 l 1736 0 l 1736 192 l 1307 192 l 1733 776 l 1733 956 l 1015 956 l 1015 764 l 1421 764 l 1000 185 z m 349 192 l 349 764 l 429 764 b 613 476 606 764 613 758 b 429 192 613 197 607 192 z "},"Ǆ":{"ha":1794,"x_min":0,"x_max":0,"o":"m 1260 1046 l 1475 1046 l 1606 1238 l 1606 1247 l 1456 1247 l 1368 1138 l 1281 1247 l 1131 1247 l 1131 1238 z m 96 0 l 432 0 b 867 478 857 0 867 94 b 432 956 867 861 857 956 l 96 956 z m 1000 0 l 1736 0 l 1736 192 l 1307 192 l 1733 776 l 1733 956 l 1015 956 l 1015 764 l 1421 764 l 1000 185 z m 349 192 l 349 764 l 429 764 b 613 476 606 764 613 758 b 429 192 613 197 607 192 z "},"Ð":{"ha":940,"x_min":0,"x_max":0,"o":"m 96 0 l 432 0 b 867 478 857 0 867 94 b 432 956 867 861 857 956 l 96 956 l 96 565 l 7 565 l 7 401 l 96 401 z m 349 192 l 349 401 l 456 401 l 456 565 l 349 565 l 349 764 l 429 764 b 613 476 606 764 613 758 b 429 192 613 197 607 192 z "},"Ď":{"ha":940,"x_min":0,"x_max":0,"o":"m 363 1046 l 578 1046 l 708 1238 l 708 1247 l 558 1247 l 471 1138 l 383 1247 l 233 1247 l 233 1238 z m 96 0 l 432 0 b 867 478 857 0 867 94 b 432 956 867 861 857 956 l 96 956 z m 349 192 l 349 764 l 429 764 b 613 476 606 764 613 758 b 429 192 613 197 607 192 z "},"Đ":{"ha":940,"x_min":0,"x_max":0,"o":"m 96 0 l 432 0 b 867 478 857 0 867 94 b 432 956 867 861 857 956 l 96 956 l 96 565 l 7 565 l 7 401 l 96 401 z m 349 192 l 349 401 l 456 401 l 456 565 l 349 565 l 349 764 l 429 764 b 613 476 606 764 613 758 b 429 192 613 197 607 192 z "},"Ḍ":{"ha":940,"x_min":0,"x_max":0,"o":"m 96 0 l 432 0 b 867 478 857 0 867 94 b 432 956 867 861 857 956 l 96 956 z m 349 192 l 349 764 l 429 764 b 613 476 606 764 613 758 b 429 192 613 197 607 192 z m 381 -299 l 563 -299 l 563 -132 l 381 -132 z "},"ǲ":{"ha":1674,"x_min":0,"x_max":0,"o":"m 96 0 l 432 0 b 867 478 857 0 867 94 b 432 956 867 861 857 956 l 96 956 z m 349 192 l 349 764 l 429 764 b 613 476 606 764 613 758 b 429 192 613 197 607 192 z m 999 0 l 1614 0 l 1614 175 l 1293 175 l 1611 544 l 1611 708 l 1015 708 l 1015 533 l 1318 533 l 999 164 z "},"ǅ":{"ha":1674,"x_min":0,"x_max":0,"o":"m 1208 799 l 1424 799 l 1554 990 l 1554 1000 l 1404 1000 l 1317 890 l 1229 1000 l 1079 1000 l 1079 990 z m 96 0 l 432 0 b 867 478 857 0 867 94 b 432 956 867 861 857 956 l 96 956 z m 349 192 l 349 764 l 429 764 b 613 476 606 764 613 758 b 429 192 613 197 607 192 z m 999 0 l 1614 0 l 1614 175 l 1293 175 l 1611 544 l 1611 708 l 1015 708 l 1015 533 l 1318 533 l 999 164 z "},"E":{"ha":840,"x_min":0,"x_max":0,"o":"m 96 0 l 769 0 l 769 192 l 347 192 l 347 388 l 704 388 l 704 576 l 347 576 l 347 764 l 769 764 l 769 956 l 96 956 z "},"É":{"ha":840,"x_min":0,"x_max":0,"o":"m 319 1046 l 485 1046 l 669 1240 l 669 1247 l 446 1247 l 319 1053 z m 96 0 l 769 0 l 769 192 l 347 192 l 347 388 l 704 388 l 704 576 l 347 576 l 347 764 l 769 764 l 769 956 l 96 956 z "},"Ĕ":{"ha":840,"x_min":0,"x_max":0,"o":"m 411 1036 b 625 1244 599 1036 625 1122 l 497 1244 b 411 1158 497 1193 496 1158 b 325 1244 325 1158 325 1193 l 199 1244 b 411 1036 199 1122 224 1036 z m 96 0 l 769 0 l 769 192 l 347 192 l 347 388 l 704 388 l 704 576 l 347 576 l 347 764 l 769 764 l 769 956 l 96 956 z "},"Ě":{"ha":840,"x_min":0,"x_max":0,"o":"m 332 1046 l 547 1046 l 678 1238 l 678 1247 l 528 1247 l 440 1138 l 353 1247 l 203 1247 l 203 1238 z m 96 0 l 769 0 l 769 192 l 347 192 l 347 388 l 704 388 l 704 576 l 347 576 l 347 764 l 769 764 l 769 956 l 96 956 z "},"Ê":{"ha":840,"x_min":0,"x_max":0,"o":"m 203 1046 l 353 1046 l 439 1156 l 528 1046 l 678 1046 l 678 1056 l 547 1247 l 332 1247 l 203 1056 z m 96 0 l 769 0 l 769 192 l 347 192 l 347 388 l 704 388 l 704 576 l 347 576 l 347 764 l 769 764 l 769 956 l 96 956 z "},"Ế":{"ha":840,"x_min":0,"x_max":0,"o":"m 318 1293 l 483 1293 l 669 1488 l 669 1494 l 444 1494 l 318 1300 z m 203 1046 l 353 1046 l 439 1156 l 528 1046 l 678 1046 l 678 1056 l 547 1247 l 332 1247 l 203 1056 z m 96 0 l 769 0 l 769 192 l 347 192 l 347 388 l 704 388 l 704 576 l 347 576 l 347 764 l 769 764 l 769 956 l 96 956 z "},"Ệ":{"ha":840,"x_min":0,"x_max":0,"o":"m 203 1046 l 353 1046 l 439 1156 l 528 1046 l 678 1046 l 678 1056 l 547 1247 l 332 1247 l 203 1056 z m 96 0 l 769 0 l 769 192 l 347 192 l 347 388 l 704 388 l 704 576 l 347 576 l 347 764 l 769 764 l 769 956 l 96 956 z m 350 -299 l 532 -299 l 532 -132 l 350 -132 z "},"Ề":{"ha":840,"x_min":0,"x_max":0,"o":"m 361 1293 l 526 1293 l 526 1300 l 400 1494 l 176 1494 l 176 1488 z m 203 1046 l 353 1046 l 439 1156 l 528 1046 l 678 1046 l 678 1056 l 547 1247 l 332 1247 l 203 1056 z m 96 0 l 769 0 l 769 192 l 347 192 l 347 388 l 704 388 l 704 576 l 347 576 l 347 764 l 769 764 l 769 956 l 96 956 z "},"Ể":{"ha":840,"x_min":0,"x_max":0,"o":"m 353 1281 l 474 1281 b 518 1321 474 1303 479 1310 l 539 1328 b 640 1444 618 1350 640 1371 b 440 1581 640 1574 556 1581 b 260 1567 383 1581 307 1575 l 260 1463 b 404 1469 297 1467 368 1469 b 493 1429 476 1469 493 1468 b 444 1388 493 1404 486 1400 l 419 1381 b 353 1288 364 1365 353 1340 z m 203 1046 l 353 1046 l 439 1156 l 528 1046 l 678 1046 l 678 1056 l 547 1247 l 332 1247 l 203 1056 z m 96 0 l 769 0 l 769 192 l 347 192 l 347 388 l 704 388 l 704 576 l 347 576 l 347 764 l 769 764 l 769 956 l 96 956 z "},"Ễ":{"ha":840,"x_min":0,"x_max":0,"o":"m 174 1286 l 289 1286 b 324 1346 289 1331 289 1346 b 419 1328 347 1346 382 1336 b 576 1301 467 1317 521 1301 b 707 1501 703 1301 707 1375 l 592 1501 b 557 1442 592 1457 592 1442 b 461 1460 531 1442 499 1451 b 304 1485 414 1471 358 1485 b 174 1286 176 1485 174 1413 z m 203 1046 l 353 1046 l 439 1156 l 528 1046 l 678 1046 l 678 1056 l 547 1247 l 332 1247 l 203 1056 z m 96 0 l 769 0 l 769 192 l 347 192 l 347 388 l 704 388 l 704 576 l 347 576 l 347 764 l 769 764 l 769 956 l 96 956 z "},"Ȅ":{"ha":840,"x_min":0,"x_max":0,"o":"m 397 1046 l 397 1051 l 289 1221 l 106 1221 l 106 1214 l 261 1046 z m 661 1046 l 661 1051 l 554 1221 l 371 1221 l 371 1214 l 526 1046 z m 96 0 l 769 0 l 769 192 l 347 192 l 347 388 l 704 388 l 704 576 l 347 576 l 347 764 l 769 764 l 769 956 l 96 956 z "},"Ë":{"ha":840,"x_min":0,"x_max":0,"o":"m 197 1069 l 386 1069 l 386 1224 l 197 1224 z m 494 1069 l 683 1069 l 683 1224 l 494 1224 z m 96 0 l 769 0 l 769 192 l 347 192 l 347 388 l 704 388 l 704 576 l 347 576 l 347 764 l 769 764 l 769 956 l 96 956 z "},"Ė":{"ha":840,"x_min":0,"x_max":0,"o":"m 346 1069 l 535 1069 l 535 1224 l 346 1224 z m 96 0 l 769 0 l 769 192 l 347 192 l 347 388 l 704 388 l 704 576 l 347 576 l 347 764 l 769 764 l 769 956 l 96 956 z "},"Ẹ":{"ha":840,"x_min":0,"x_max":0,"o":"m 96 0 l 769 0 l 769 192 l 347 192 l 347 388 l 704 388 l 704 576 l 347 576 l 347 764 l 769 764 l 769 956 l 96 956 z m 350 -299 l 532 -299 l 532 -132 l 350 -132 z "},"È":{"ha":840,"x_min":0,"x_max":0,"o":"m 363 1046 l 526 1046 l 526 1053 l 400 1247 l 176 1247 l 176 1240 z m 96 0 l 769 0 l 769 192 l 347 192 l 347 388 l 704 388 l 704 576 l 347 576 l 347 764 l 769 764 l 769 956 l 96 956 z "},"Ẻ":{"ha":840,"x_min":0,"x_max":0,"o":"m 353 1033 l 474 1033 b 519 1074 474 1056 479 1063 l 540 1081 b 640 1197 618 1103 640 1124 b 440 1333 640 1326 556 1333 b 260 1319 385 1333 308 1328 l 260 1215 b 404 1222 297 1219 369 1222 b 493 1182 476 1222 493 1221 b 444 1140 493 1157 486 1153 l 421 1133 b 353 1040 364 1118 353 1093 z m 96 0 l 769 0 l 769 192 l 347 192 l 347 388 l 704 388 l 704 576 l 347 576 l 347 764 l 769 764 l 769 956 l 96 956 z "},"Ȇ":{"ha":840,"x_min":0,"x_max":0,"o":"m 442 1257 b 226 1049 254 1257 226 1171 l 354 1049 b 442 1135 354 1100 356 1135 b 526 1049 526 1135 526 1100 l 653 1049 b 442 1257 653 1171 628 1257 z m 96 0 l 769 0 l 769 192 l 347 192 l 347 388 l 704 388 l 704 576 l 347 576 l 347 764 l 769 764 l 769 956 l 96 956 z "},"Ē":{"ha":840,"x_min":0,"x_max":0,"o":"m 208 1069 l 672 1069 l 672 1203 l 208 1203 z m 96 0 l 769 0 l 769 192 l 347 192 l 347 388 l 704 388 l 704 576 l 347 576 l 347 764 l 769 764 l 769 956 l 96 956 z "},"Ę":{"ha":840,"x_min":0,"x_max":0,"o":"m 747 -160 b 682 -112 694 -160 682 -140 b 769 0 682 -72 733 -21 l 769 192 l 347 192 l 347 388 l 704 388 l 704 576 l 347 576 l 347 764 l 769 764 l 769 956 l 96 956 l 96 0 l 582 0 b 493 -160 529 -49 493 -107 b 672 -278 493 -222 531 -278 b 771 -272 703 -278 743 -275 l 771 -158 b 747 -160 760 -160 751 -160 z "},"Ẽ":{"ha":840,"x_min":0,"x_max":0,"o":"m 174 1039 l 289 1039 b 324 1099 289 1083 289 1099 b 419 1081 347 1099 382 1089 b 576 1054 467 1069 521 1054 b 707 1254 703 1054 707 1128 l 592 1254 b 557 1194 592 1210 592 1194 b 461 1213 531 1194 499 1204 b 304 1238 414 1224 358 1238 b 174 1039 176 1238 174 1165 z m 96 0 l 769 0 l 769 192 l 347 192 l 347 388 l 704 388 l 704 576 l 347 576 l 347 764 l 769 764 l 769 956 l 96 956 z "},"F":{"ha":790,"x_min":0,"x_max":0,"o":"m 96 0 l 347 0 l 347 353 l 690 353 l 690 544 l 347 544 l 347 764 l 742 764 l 742 956 l 96 956 z "},"G":{"ha":925,"x_min":0,"x_max":0,"o":"m 501 -11 b 838 18 599 -11 738 1 l 838 557 l 479 557 l 479 378 l 610 378 l 610 181 b 511 176 583 178 540 176 b 324 478 344 176 324 219 b 590 775 324 769 349 775 b 833 756 639 775 742 767 l 833 935 b 501 967 735 953 597 967 b 74 478 150 967 74 864 b 501 -11 74 92 149 -11 z "},"Ǵ":{"ha":925,"x_min":0,"x_max":0,"o":"m 372 1046 l 538 1046 l 722 1240 l 722 1247 l 499 1247 l 372 1053 z m 501 -11 b 838 18 599 -11 738 1 l 838 557 l 479 557 l 479 378 l 610 378 l 610 181 b 511 176 583 178 540 176 b 324 478 344 176 324 219 b 590 775 324 769 349 775 b 833 756 639 775 742 767 l 833 935 b 501 967 735 953 597 967 b 74 478 150 967 74 864 b 501 -11 74 92 149 -11 z "},"Ğ":{"ha":925,"x_min":0,"x_max":0,"o":"m 464 1036 b 678 1244 651 1036 678 1122 l 550 1244 b 464 1158 550 1193 549 1158 b 378 1244 378 1158 378 1193 l 251 1244 b 464 1036 251 1122 276 1036 z m 501 -11 b 838 18 599 -11 738 1 l 838 557 l 479 557 l 479 378 l 610 378 l 610 181 b 511 176 583 178 540 176 b 324 478 344 176 324 219 b 590 775 324 769 349 775 b 833 756 639 775 742 767 l 833 935 b 501 967 735 953 597 967 b 74 478 150 967 74 864 b 501 -11 74 92 149 -11 z "},"Ǧ":{"ha":925,"x_min":0,"x_max":0,"o":"m 386 1046 l 601 1046 l 732 1238 l 732 1247 l 582 1247 l 494 1138 l 407 1247 l 257 1247 l 257 1238 z m 501 -11 b 838 18 599 -11 738 1 l 838 557 l 479 557 l 479 378 l 610 378 l 610 181 b 511 176 583 178 540 176 b 324 478 344 176 324 219 b 590 775 324 769 349 775 b 833 756 639 775 742 767 l 833 935 b 501 967 735 953 597 967 b 74 478 150 967 74 864 b 501 -11 74 92 149 -11 z "},"Ĝ":{"ha":925,"x_min":0,"x_max":0,"o":"m 257 1046 l 407 1046 l 493 1156 l 582 1046 l 732 1046 l 732 1056 l 601 1247 l 386 1247 l 257 1056 z m 501 -11 b 838 18 599 -11 738 1 l 838 557 l 479 557 l 479 378 l 610 378 l 610 181 b 511 176 583 178 540 176 b 324 478 344 176 324 219 b 590 775 324 769 349 775 b 833 756 639 775 742 767 l 833 935 b 501 967 735 953 597 967 b 74 478 150 967 74 864 b 501 -11 74 92 149 -11 z "},"Ģ":{"ha":925,"x_min":0,"x_max":0,"o":"m 501 -11 b 838 18 599 -11 738 1 l 838 557 l 479 557 l 479 378 l 610 378 l 610 181 b 511 176 583 178 540 176 b 324 478 344 176 324 219 b 590 775 324 769 349 775 b 833 756 639 775 742 767 l 833 935 b 501 967 735 953 597 967 b 74 478 150 967 74 864 b 501 -11 74 92 149 -11 z m 369 -401 b 611 -193 585 -401 611 -358 l 611 -82 l 378 -82 l 378 -247 l 464 -247 l 464 -262 b 369 -315 464 -306 449 -315 z "},"Ġ":{"ha":925,"x_min":0,"x_max":0,"o":"m 399 1069 l 588 1069 l 588 1224 l 399 1224 z m 501 -11 b 838 18 599 -11 738 1 l 838 557 l 479 557 l 479 378 l 610 378 l 610 181 b 511 176 583 178 540 176 b 324 478 344 176 324 219 b 590 775 324 769 349 775 b 833 756 639 775 742 767 l 833 935 b 501 967 735 953 597 967 b 74 478 150 967 74 864 b 501 -11 74 92 149 -11 z "},"H":{"ha":988,"x_min":0,"x_max":0,"o":"m 96 0 l 349 0 l 349 375 l 639 375 l 639 0 l 893 0 l 893 956 l 639 956 l 639 583 l 349 583 l 349 956 l 96 956 z "},"Ħ":{"ha":988,"x_min":0,"x_max":0,"o":"m 96 0 l 349 0 l 349 319 l 639 319 l 639 0 l 893 0 l 893 956 l 639 956 l 639 821 l 349 821 l 349 956 l 96 956 z m 349 528 l 349 657 l 639 657 l 639 528 z "},"Ĥ":{"ha":988,"x_min":0,"x_max":0,"o":"m 257 1046 l 407 1046 l 493 1156 l 582 1046 l 732 1046 l 732 1056 l 601 1247 l 386 1247 l 257 1056 z m 96 0 l 349 0 l 349 375 l 639 375 l 639 0 l 893 0 l 893 956 l 639 956 l 639 583 l 349 583 l 349 956 l 96 956 z "},"Ḥ":{"ha":988,"x_min":0,"x_max":0,"o":"m 96 0 l 349 0 l 349 375 l 639 375 l 639 0 l 893 0 l 893 956 l 639 956 l 639 583 l 349 583 l 349 956 l 96 956 z m 403 -299 l 585 -299 l 585 -132 l 403 -132 z "},"I":{"ha":443,"x_min":0,"x_max":0,"o":"m 96 0 l 349 0 l 349 956 l 96 956 z "},"Ĳ":{"ha":1014,"x_min":0,"x_max":0,"o":"m 96 0 l 349 0 l 349 956 l 96 956 z m 475 0 b 921 432 904 0 921 15 l 921 956 l 668 956 l 668 368 b 475 182 668 193 664 183 z "},"Í":{"ha":443,"x_min":0,"x_max":0,"o":"m 100 1046 l 265 1046 l 450 1240 l 450 1247 l 226 1247 l 100 1053 z m 96 0 l 349 0 l 349 956 l 96 956 z "},"Ĭ":{"ha":443,"x_min":0,"x_max":0,"o":"m 193 1036 b 407 1244 381 1036 407 1122 l 279 1244 b 193 1158 279 1193 278 1158 b 107 1244 107 1158 107 1193 l -19 1244 b 193 1036 -19 1122 6 1036 z m 96 0 l 349 0 l 349 956 l 96 956 z "},"Ǐ":{"ha":443,"x_min":0,"x_max":0,"o":"m 114 1046 l 329 1046 l 460 1238 l 460 1247 l 310 1247 l 222 1138 l 135 1247 l -15 1247 l -15 1238 z m 96 0 l 349 0 l 349 956 l 96 956 z "},"Î":{"ha":443,"x_min":0,"x_max":0,"o":"m -15 1046 l 135 1046 l 221 1156 l 310 1046 l 460 1046 l 460 1056 l 329 1247 l 114 1247 l -15 1056 z m 96 0 l 349 0 l 349 956 l 96 956 z "},"Ȉ":{"ha":443,"x_min":0,"x_max":0,"o":"m 178 1046 l 178 1051 l 69 1221 l -114 1221 l -114 1214 l 42 1046 z m 442 1046 l 442 1051 l 335 1221 l 151 1221 l 151 1214 l 307 1046 z m 96 0 l 349 0 l 349 956 l 96 956 z "},"Ï":{"ha":443,"x_min":0,"x_max":0,"o":"m -22 1069 l 167 1069 l 167 1224 l -22 1224 z m 275 1069 l 464 1069 l 464 1224 l 275 1224 z m 96 0 l 349 0 l 349 956 l 96 956 z "},"İ":{"ha":443,"x_min":0,"x_max":0,"o":"m 126 1069 l 315 1069 l 315 1224 l 126 1224 z m 96 0 l 349 0 l 349 956 l 96 956 z "},"Ị":{"ha":443,"x_min":0,"x_max":0,"o":"m 96 0 l 349 0 l 349 956 l 96 956 z m 131 -299 l 313 -299 l 313 -132 l 131 -132 z "},"Ì":{"ha":443,"x_min":0,"x_max":0,"o":"m 144 1046 l 308 1046 l 308 1053 l 182 1247 l -42 1247 l -42 1240 z m 96 0 l 349 0 l 349 956 l 96 956 z "},"Ỉ":{"ha":443,"x_min":0,"x_max":0,"o":"m 135 1033 l 256 1033 b 301 1074 256 1056 261 1063 l 322 1081 b 422 1197 400 1103 422 1124 b 222 1333 422 1326 338 1333 b 42 1319 167 1333 90 1328 l 42 1215 b 186 1222 79 1219 151 1222 b 275 1182 258 1222 275 1221 b 226 1140 275 1157 268 1153 l 203 1133 b 135 1040 146 1118 135 1093 z m 96 0 l 349 0 l 349 956 l 96 956 z "},"Ȋ":{"ha":443,"x_min":0,"x_max":0,"o":"m 224 1257 b 8 1049 36 1257 8 1171 l 136 1049 b 224 1135 136 1100 138 1135 b 308 1049 308 1135 308 1100 l 435 1049 b 224 1257 435 1171 410 1257 z m 96 0 l 349 0 l 349 956 l 96 956 z "},"Ī":{"ha":443,"x_min":0,"x_max":0,"o":"m -11 1069 l 453 1069 l 453 1203 l -11 1203 z m 96 0 l 349 0 l 349 956 l 96 956 z "},"Į":{"ha":443,"x_min":0,"x_max":0,"o":"m 326 -160 b 261 -112 274 -160 261 -140 b 349 0 261 -72 313 -21 l 349 956 l 96 956 l 96 0 l 161 0 b 72 -160 108 -49 72 -107 b 251 -278 72 -222 110 -278 b 350 -272 282 -278 322 -275 l 350 -158 b 326 -160 339 -160 331 -160 z "},"Ĩ":{"ha":443,"x_min":0,"x_max":0,"o":"m -44 1039 l 71 1039 b 106 1099 71 1083 71 1099 b 201 1081 129 1099 164 1089 b 358 1054 249 1069 303 1054 b 489 1254 485 1054 489 1128 l 374 1254 b 339 1194 374 1210 374 1194 b 243 1213 313 1194 281 1204 b 86 1238 196 1224 140 1238 b -44 1039 -42 1238 -44 1165 z m 96 0 l 349 0 l 349 956 l 96 956 z "},"J":{"ha":569,"x_min":0,"x_max":0,"o":"m 32 0 b 478 432 461 0 478 15 l 478 956 l 225 956 l 225 368 b 32 182 225 193 221 183 z "},"Ĵ":{"ha":569,"x_min":0,"x_max":0,"o":"m 114 1046 l 264 1046 l 350 1156 l 439 1046 l 589 1046 l 589 1056 l 458 1247 l 243 1247 l 114 1056 z m 32 0 b 478 432 461 0 478 15 l 478 956 l 225 956 l 225 368 b 32 182 225 193 221 183 z "},"K":{"ha":953,"x_min":0,"x_max":0,"o":"m 96 0 l 349 0 l 349 392 l 411 392 l 660 0 l 942 0 l 617 503 l 938 956 l 665 956 l 411 581 l 349 581 l 349 956 l 96 956 z "},"Ķ":{"ha":953,"x_min":0,"x_max":0,"o":"m 96 0 l 349 0 l 349 392 l 411 392 l 660 0 l 942 0 l 617 503 l 938 956 l 665 956 l 411 581 l 349 581 l 349 956 l 96 956 z m 351 -401 b 593 -193 567 -401 593 -358 l 593 -82 l 360 -82 l 360 -247 l 446 -247 l 446 -262 b 351 -315 446 -306 431 -315 z "},"L":{"ha":744,"x_min":0,"x_max":0,"o":"m 96 0 l 714 0 l 714 201 l 349 201 l 349 956 l 96 956 z "},"Ǉ":{"ha":1314,"x_min":0,"x_max":0,"o":"m 96 0 l 714 0 l 714 201 l 349 201 l 349 956 l 96 956 z m 776 0 b 1222 432 1206 0 1222 15 l 1222 956 l 969 956 l 969 368 b 776 182 969 193 965 183 z "},"Ĺ":{"ha":744,"x_min":0,"x_max":0,"o":"m 100 1046 l 265 1046 l 450 1240 l 450 1247 l 226 1247 l 100 1053 z m 96 0 l 714 0 l 714 201 l 349 201 l 349 956 l 96 956 z "},"Ľ":{"ha":744,"x_min":0,"x_max":0,"o":"m 96 0 l 714 0 l 714 201 l 349 201 l 349 956 l 96 956 z m 481 594 l 610 594 l 676 879 l 676 956 l 497 956 l 497 879 z "},"Ļ":{"ha":744,"x_min":0,"x_max":0,"o":"m 96 0 l 714 0 l 714 201 l 349 201 l 349 956 l 96 956 z m 296 -401 b 538 -193 511 -401 538 -358 l 538 -82 l 304 -82 l 304 -247 l 390 -247 l 390 -262 b 296 -315 390 -306 375 -315 z "},"Ŀ":{"ha":743,"x_min":0,"x_max":0,"o":"m 96 0 l 714 0 l 714 201 l 349 201 l 349 956 l 96 956 z m 469 426 l 717 426 l 717 632 l 469 632 z "},"ǈ":{"ha":1144,"x_min":0,"x_max":0,"o":"m 825 849 l 1064 849 l 1064 1032 l 825 1032 z m 96 0 l 714 0 l 714 201 l 349 201 l 349 956 l 96 956 z m 714 -276 b 1063 7 1001 -276 1063 -253 l 1063 708 l 826 708 l 826 -43 b 714 -117 826 -96 821 -117 z "},"Ł":{"ha":744,"x_min":0,"x_max":0,"o":"m 349 201 l 349 454 l 551 529 l 551 694 l 349 619 l 349 956 l 96 956 l 96 528 l 18 499 l 18 333 l 96 363 l 96 0 l 714 0 l 714 201 z "},"M":{"ha":1251,"x_min":0,"x_max":0,"o":"m 96 0 l 331 0 l 331 610 l 342 610 l 536 0 l 707 0 l 903 610 l 913 610 l 913 0 l 1156 0 l 1156 956 l 810 956 l 632 404 l 622 404 l 442 956 l 96 956 z "},"N":{"ha":993,"x_min":0,"x_max":0,"o":"m 96 0 l 338 0 l 338 544 l 344 544 l 663 0 l 899 0 l 899 956 l 656 956 l 656 463 l 649 463 l 356 956 l 96 956 z "},"Ǌ":{"ha":1563,"x_min":0,"x_max":0,"o":"m 96 0 l 338 0 l 338 544 l 344 544 l 663 0 l 899 0 l 899 956 l 656 956 l 656 463 l 649 463 l 356 956 l 96 956 z m 1025 0 b 1471 432 1454 0 1471 15 l 1471 956 l 1218 956 l 1218 368 b 1025 182 1218 193 1214 183 z "},"Ń":{"ha":993,"x_min":0,"x_max":0,"o":"m 386 1046 l 551 1046 l 736 1240 l 736 1247 l 513 1247 l 386 1053 z m 96 0 l 338 0 l 338 544 l 344 544 l 663 0 l 899 0 l 899 956 l 656 956 l 656 463 l 649 463 l 356 956 l 96 956 z "},"Ň":{"ha":993,"x_min":0,"x_max":0,"o":"m 400 1046 l 615 1046 l 746 1238 l 746 1247 l 596 1247 l 508 1138 l 421 1247 l 271 1247 l 271 1238 z m 96 0 l 338 0 l 338 544 l 344 544 l 663 0 l 899 0 l 899 956 l 656 956 l 656 463 l 649 463 l 356 956 l 96 956 z "},"Ņ":{"ha":993,"x_min":0,"x_max":0,"o":"m 96 0 l 338 0 l 338 544 l 344 544 l 663 0 l 899 0 l 899 956 l 656 956 l 656 463 l 649 463 l 356 956 l 96 956 z m 383 -401 b 625 -193 599 -401 625 -358 l 625 -82 l 392 -82 l 392 -247 l 478 -247 l 478 -262 b 383 -315 478 -306 463 -315 z "},"Ṅ":{"ha":993,"x_min":0,"x_max":0,"o":"m 413 1069 l 601 1069 l 601 1224 l 413 1224 z m 96 0 l 338 0 l 338 544 l 344 544 l 663 0 l 899 0 l 899 956 l 656 956 l 656 463 l 649 463 l 356 956 l 96 956 z "},"Ŋ":{"ha":993,"x_min":0,"x_max":0,"o":"m 544 -276 b 899 7 836 -276 899 -253 l 899 956 l 656 956 l 656 463 l 649 463 l 356 956 l 96 956 l 96 0 l 338 0 l 338 544 l 344 544 l 656 11 l 656 -43 b 544 -117 656 -96 650 -117 z "},"Ɲ":{"ha":993,"x_min":0,"x_max":0,"o":"m -17 -276 b 338 7 275 -276 338 -253 l 338 544 l 344 544 l 663 0 l 899 0 l 899 956 l 656 956 l 656 463 l 649 463 l 356 956 l 96 956 l 96 -43 b -17 -117 96 -96 89 -117 z "},"ǋ":{"ha":1394,"x_min":0,"x_max":0,"o":"m 1074 849 l 1313 849 l 1313 1032 l 1074 1032 z m 96 0 l 338 0 l 338 544 l 344 544 l 663 0 l 899 0 l 899 956 l 656 956 l 656 463 l 649 463 l 356 956 l 96 956 z m 963 -276 b 1311 7 1250 -276 1311 -253 l 1311 708 l 1075 708 l 1075 -43 b 963 -117 1075 -96 1069 -117 z "},"Ñ":{"ha":993,"x_min":0,"x_max":0,"o":"m 242 1039 l 357 1039 b 392 1099 357 1083 357 1099 b 488 1081 415 1099 450 1089 b 644 1054 535 1069 589 1054 b 775 1254 771 1054 775 1128 l 660 1254 b 625 1194 660 1210 660 1194 b 529 1213 599 1194 567 1204 b 372 1238 482 1224 426 1238 b 242 1039 244 1238 242 1165 z m 96 0 l 338 0 l 338 544 l 344 544 l 663 0 l 899 0 l 899 956 l 656 956 l 656 463 l 649 463 l 356 956 l 96 956 z "},"O":{"ha":975,"x_min":0,"x_max":0,"o":"m 486 -11 b 901 478 889 -11 901 96 b 486 967 901 860 889 967 b 74 478 85 967 74 860 b 486 -11 74 96 85 -11 z m 486 181 b 328 478 332 181 328 188 b 486 775 328 768 332 775 b 647 478 642 775 647 768 b 486 181 647 188 642 181 z "},"Ó":{"ha":975,"x_min":0,"x_max":0,"o":"m 367 1046 l 532 1046 l 717 1240 l 717 1247 l 493 1247 l 367 1053 z m 486 -11 b 901 478 889 -11 901 96 b 486 967 901 860 889 967 b 74 478 85 967 74 860 b 486 -11 74 96 85 -11 z m 486 181 b 328 478 332 181 328 188 b 486 775 328 768 332 775 b 647 478 642 775 647 768 b 486 181 647 188 642 181 z "},"Ŏ":{"ha":975,"x_min":0,"x_max":0,"o":"m 458 1036 b 672 1244 646 1036 672 1122 l 544 1244 b 458 1158 544 1193 543 1158 b 372 1244 372 1158 372 1193 l 246 1244 b 458 1036 246 1122 271 1036 z m 486 -11 b 901 478 889 -11 901 96 b 486 967 901 860 889 967 b 74 478 85 967 74 860 b 486 -11 74 96 85 -11 z m 486 181 b 328 478 332 181 328 188 b 486 775 328 768 332 775 b 647 478 642 775 647 768 b 486 181 647 188 642 181 z "},"Ǒ":{"ha":975,"x_min":0,"x_max":0,"o":"m 381 1046 l 596 1046 l 726 1238 l 726 1247 l 576 1247 l 489 1138 l 401 1247 l 251 1247 l 251 1238 z m 486 -11 b 901 478 889 -11 901 96 b 486 967 901 860 889 967 b 74 478 85 967 74 860 b 486 -11 74 96 85 -11 z m 486 181 b 328 478 332 181 328 188 b 486 775 328 768 332 775 b 647 478 642 775 647 768 b 486 181 647 188 642 181 z "},"Ô":{"ha":975,"x_min":0,"x_max":0,"o":"m 251 1046 l 401 1046 l 488 1156 l 576 1046 l 726 1046 l 726 1056 l 596 1247 l 381 1247 l 251 1056 z m 486 -11 b 901 478 889 -11 901 96 b 486 967 901 860 889 967 b 74 478 85 967 74 860 b 486 -11 74 96 85 -11 z m 486 181 b 328 478 332 181 328 188 b 486 775 328 768 332 775 b 647 478 642 775 647 768 b 486 181 647 188 642 181 z "},"Ố":{"ha":975,"x_min":0,"x_max":0,"o":"m 367 1293 l 532 1293 l 718 1488 l 718 1494 l 493 1494 l 367 1300 z m 251 1046 l 401 1046 l 488 1156 l 576 1046 l 726 1046 l 726 1056 l 596 1247 l 381 1247 l 251 1056 z m 486 -11 b 901 478 889 -11 901 96 b 486 967 901 860 889 967 b 74 478 85 967 74 860 b 486 -11 74 96 85 -11 z m 486 181 b 328 478 332 181 328 188 b 486 775 328 768 332 775 b 647 478 642 775 647 768 b 486 181 647 188 642 181 z "},"Ộ":{"ha":975,"x_min":0,"x_max":0,"o":"m 251 1046 l 401 1046 l 488 1156 l 576 1046 l 726 1046 l 726 1056 l 596 1247 l 381 1247 l 251 1056 z m 486 -11 b 901 478 889 -11 901 96 b 486 967 901 860 889 967 b 74 478 85 967 74 860 b 486 -11 74 96 85 -11 z m 486 181 b 328 478 332 181 328 188 b 486 775 328 768 332 775 b 647 478 642 775 647 768 b 486 181 647 188 642 181 z m 397 -299 l 579 -299 l 579 -132 l 397 -132 z "},"Ồ":{"ha":975,"x_min":0,"x_max":0,"o":"m 410 1293 l 575 1293 l 575 1300 l 449 1494 l 225 1494 l 225 1488 z m 251 1046 l 401 1046 l 488 1156 l 576 1046 l 726 1046 l 726 1056 l 596 1247 l 381 1247 l 251 1056 z m 486 -11 b 901 478 889 -11 901 96 b 486 967 901 860 889 967 b 74 478 85 967 74 860 b 486 -11 74 96 85 -11 z m 486 181 b 328 478 332 181 328 188 b 486 775 328 768 332 775 b 647 478 642 775 647 768 b 486 181 647 188 642 181 z "},"Ổ":{"ha":975,"x_min":0,"x_max":0,"o":"m 401 1281 l 522 1281 b 567 1321 522 1303 528 1310 l 588 1328 b 689 1444 667 1350 689 1371 b 489 1581 689 1574 604 1581 b 308 1567 432 1581 356 1575 l 308 1463 b 453 1469 346 1467 417 1469 b 542 1429 525 1469 542 1468 b 493 1388 542 1404 535 1400 l 468 1381 b 401 1288 413 1365 401 1340 z m 251 1046 l 401 1046 l 488 1156 l 576 1046 l 726 1046 l 726 1056 l 596 1247 l 381 1247 l 251 1056 z m 486 -11 b 901 478 889 -11 901 96 b 486 967 901 860 889 967 b 74 478 85 967 74 860 b 486 -11 74 96 85 -11 z m 486 181 b 328 478 332 181 328 188 b 486 775 328 768 332 775 b 647 478 642 775 647 768 b 486 181 647 188 642 181 z "},"Ỗ":{"ha":975,"x_min":0,"x_max":0,"o":"m 222 1286 l 338 1286 b 372 1346 338 1331 338 1346 b 468 1328 396 1346 431 1336 b 625 1301 515 1317 569 1301 b 756 1501 751 1301 756 1375 l 640 1501 b 606 1442 640 1457 640 1442 b 510 1460 579 1442 547 1451 b 353 1485 463 1471 407 1485 b 222 1286 225 1485 222 1413 z m 251 1046 l 401 1046 l 488 1156 l 576 1046 l 726 1046 l 726 1056 l 596 1247 l 381 1247 l 251 1056 z m 486 -11 b 901 478 889 -11 901 96 b 486 967 901 860 889 967 b 74 478 85 967 74 860 b 486 -11 74 96 85 -11 z m 486 181 b 328 478 332 181 328 188 b 486 775 328 768 332 775 b 647 478 642 775 647 768 b 486 181 647 188 642 181 z "},"Ȍ":{"ha":975,"x_min":0,"x_max":0,"o":"m 444 1046 l 444 1051 l 336 1221 l 153 1221 l 153 1214 l 308 1046 z m 708 1046 l 708 1051 l 601 1221 l 418 1221 l 418 1214 l 574 1046 z m 486 -11 b 901 478 889 -11 901 96 b 486 967 901 860 889 967 b 74 478 85 967 74 860 b 486 -11 74 96 85 -11 z m 486 181 b 328 478 332 181 328 188 b 486 775 328 768 332 775 b 647 478 642 775 647 768 b 486 181 647 188 642 181 z "},"Ö":{"ha":975,"x_min":0,"x_max":0,"o":"m 244 1069 l 433 1069 l 433 1224 l 244 1224 z m 542 1069 l 731 1069 l 731 1224 l 542 1224 z m 486 -11 b 901 478 889 -11 901 96 b 486 967 901 860 889 967 b 74 478 85 967 74 860 b 486 -11 74 96 85 -11 z m 486 181 b 328 478 332 181 328 188 b 486 775 328 768 332 775 b 647 478 642 775 647 768 b 486 181 647 188 642 181 z "},"Ȫ":{"ha":975,"x_min":0,"x_max":0,"o":"m 256 1319 l 719 1319 l 719 1453 l 256 1453 z m 244 1069 l 433 1069 l 433 1224 l 244 1224 z m 542 1069 l 731 1069 l 731 1224 l 542 1224 z m 486 -11 b 901 478 889 -11 901 96 b 486 967 901 860 889 967 b 74 478 85 967 74 860 b 486 -11 74 96 85 -11 z m 486 181 b 328 478 332 181 328 188 b 486 775 328 768 332 775 b 647 478 642 775 647 768 b 486 181 647 188 642 181 z "},"Ȱ":{"ha":975,"x_min":0,"x_max":0,"o":"m 256 1299 l 719 1299 l 719 1432 l 256 1432 z m 393 1069 l 582 1069 l 582 1224 l 393 1224 z m 486 -11 b 901 478 889 -11 901 96 b 486 967 901 860 889 967 b 74 478 85 967 74 860 b 486 -11 74 96 85 -11 z m 486 181 b 328 478 332 181 328 188 b 486 775 328 768 332 775 b 647 478 642 775 647 768 b 486 181 647 188 642 181 z "},"Ọ":{"ha":975,"x_min":0,"x_max":0,"o":"m 486 -11 b 901 478 889 -11 901 96 b 486 967 901 860 889 967 b 74 478 85 967 74 860 b 486 -11 74 96 85 -11 z m 486 181 b 328 478 332 181 328 188 b 486 775 328 768 332 775 b 647 478 642 775 647 768 b 486 181 647 188 642 181 z m 397 -299 l 579 -299 l 579 -132 l 397 -132 z "},"Ò":{"ha":975,"x_min":0,"x_max":0,"o":"m 410 1046 l 574 1046 l 574 1053 l 447 1247 l 224 1247 l 224 1240 z m 486 -11 b 901 478 889 -11 901 96 b 486 967 901 860 889 967 b 74 478 85 967 74 860 b 486 -11 74 96 85 -11 z m 486 181 b 328 478 332 181 328 188 b 486 775 328 768 332 775 b 647 478 642 775 647 768 b 486 181 647 188 642 181 z "},"Ỏ":{"ha":975,"x_min":0,"x_max":0,"o":"m 400 1033 l 521 1033 b 567 1074 521 1056 526 1063 l 588 1081 b 688 1197 665 1103 688 1124 b 488 1333 688 1326 603 1333 b 307 1319 432 1333 356 1328 l 307 1215 b 451 1222 344 1219 417 1222 b 540 1182 524 1222 540 1221 b 492 1140 540 1157 533 1153 l 468 1133 b 400 1040 411 1118 400 1093 z m 486 -11 b 901 478 889 -11 901 96 b 486 967 901 860 889 967 b 74 478 85 967 74 860 b 486 -11 74 96 85 -11 z m 486 181 b 328 478 332 181 328 188 b 486 775 328 768 332 775 b 647 478 642 775 647 768 b 486 181 647 188 642 181 z "},"Ơ":{"ha":975,"x_min":0,"x_max":0,"o":"m 796 1079 l 796 1046 b 704 956 796 976 786 956 l 667 956 b 486 967 617 964 558 967 b 74 478 85 967 74 860 b 486 -11 74 96 85 -11 b 901 478 889 -11 901 96 b 833 879 901 682 897 807 b 947 1057 931 899 947 949 l 947 1079 z m 486 181 b 328 478 332 181 328 188 b 486 775 328 768 332 775 b 647 478 642 775 647 768 b 486 181 647 188 642 181 z "},"Ớ":{"ha":975,"x_min":0,"x_max":0,"o":"m 717 1240 l 717 1247 l 493 1247 l 367 1053 l 367 1046 l 532 1046 z m 796 1079 l 796 1046 b 704 956 796 976 786 956 l 667 956 b 486 967 617 964 558 967 b 74 478 85 967 74 860 b 486 -11 74 96 85 -11 b 901 478 889 -11 901 96 b 833 879 901 682 897 807 b 947 1057 931 899 947 949 l 947 1079 z m 486 181 b 328 478 332 181 328 188 b 486 775 328 768 332 775 b 647 478 642 775 647 768 b 486 181 647 188 642 181 z "},"Ợ":{"ha":975,"x_min":0,"x_max":0,"o":"m 796 1079 l 796 1046 b 704 956 796 976 786 956 l 667 956 b 486 967 617 964 558 967 b 74 478 85 967 74 860 b 486 -11 74 96 85 -11 b 901 478 889 -11 901 96 b 833 879 901 682 897 807 b 947 1057 931 899 947 949 l 947 1079 z m 486 181 b 328 478 332 181 328 188 b 486 775 328 768 332 775 b 647 478 642 775 647 768 b 486 181 647 188 642 181 z m 397 -299 l 579 -299 l 579 -132 l 397 -132 z "},"Ờ":{"ha":975,"x_min":0,"x_max":0,"o":"m 574 1046 l 574 1053 l 447 1247 l 224 1247 l 224 1240 l 410 1046 z m 796 1079 l 796 1046 b 704 956 796 976 786 956 l 667 956 b 486 967 617 964 558 967 b 74 478 85 967 74 860 b 486 -11 74 96 85 -11 b 901 478 889 -11 901 96 b 833 879 901 682 897 807 b 947 1057 931 899 947 949 l 947 1079 z m 486 181 b 328 478 332 181 328 188 b 486 775 328 768 332 775 b 647 478 642 775 647 768 b 486 181 647 188 642 181 z "},"Ở":{"ha":975,"x_min":0,"x_max":0,"o":"m 540 1182 b 492 1140 540 1157 533 1153 l 468 1133 b 400 1040 411 1118 400 1093 l 400 1033 l 521 1033 b 567 1074 521 1056 526 1063 l 588 1081 b 688 1197 665 1103 688 1124 b 488 1333 688 1326 603 1333 b 307 1319 432 1333 356 1328 l 307 1215 b 451 1222 344 1219 417 1222 b 540 1182 524 1222 540 1221 z m 796 1079 l 796 1046 b 704 956 796 976 786 956 l 667 956 b 486 967 617 964 558 967 b 74 478 85 967 74 860 b 486 -11 74 96 85 -11 b 901 478 889 -11 901 96 b 833 879 901 682 897 807 b 947 1057 931 899 947 949 l 947 1079 z m 486 181 b 328 478 332 181 328 188 b 486 775 328 768 332 775 b 647 478 642 775 647 768 b 486 181 647 188 642 181 z "},"Ỡ":{"ha":975,"x_min":0,"x_max":0,"o":"m 372 1099 b 468 1081 396 1099 431 1089 b 625 1054 515 1069 569 1054 b 756 1254 751 1054 756 1128 l 640 1254 b 606 1194 640 1210 640 1194 b 510 1213 579 1194 547 1204 b 353 1238 463 1224 407 1238 b 222 1039 225 1238 222 1165 l 338 1039 b 372 1099 338 1083 338 1099 z m 796 1079 l 796 1046 b 704 956 796 976 786 956 l 667 956 b 486 967 617 964 558 967 b 74 478 85 967 74 860 b 486 -11 74 96 85 -11 b 901 478 889 -11 901 96 b 833 879 901 682 897 807 b 947 1057 931 899 947 949 l 947 1079 z m 486 181 b 328 478 332 181 328 188 b 486 775 328 768 332 775 b 647 478 642 775 647 768 b 486 181 647 188 642 181 z "},"Ő":{"ha":975,"x_min":0,"x_max":0,"o":"m 293 1046 l 428 1046 l 583 1214 l 583 1221 l 400 1221 l 293 1051 z m 557 1046 l 693 1046 l 849 1214 l 849 1221 l 665 1221 l 557 1051 z m 486 -11 b 901 478 889 -11 901 96 b 486 967 901 860 889 967 b 74 478 85 967 74 860 b 486 -11 74 96 85 -11 z m 486 181 b 328 478 332 181 328 188 b 486 775 328 768 332 775 b 647 478 642 775 647 768 b 486 181 647 188 642 181 z "},"Ȏ":{"ha":975,"x_min":0,"x_max":0,"o":"m 489 1257 b 274 1049 301 1257 274 1171 l 401 1049 b 489 1135 401 1100 403 1135 b 574 1049 574 1135 574 1100 l 700 1049 b 489 1257 700 1171 675 1257 z m 486 -11 b 901 478 889 -11 901 96 b 486 967 901 860 889 967 b 74 478 85 967 74 860 b 486 -11 74 96 85 -11 z m 486 181 b 328 478 332 181 328 188 b 486 775 328 768 332 775 b 647 478 642 775 647 768 b 486 181 647 188 642 181 z "},"Ō":{"ha":975,"x_min":0,"x_max":0,"o":"m 256 1069 l 719 1069 l 719 1203 l 256 1203 z m 486 -11 b 901 478 889 -11 901 96 b 486 967 901 860 889 967 b 74 478 85 967 74 860 b 486 -11 74 96 85 -11 z m 486 181 b 328 478 332 181 328 188 b 486 775 328 768 332 775 b 647 478 642 775 647 768 b 486 181 647 188 642 181 z "},"Ǫ":{"ha":975,"x_min":0,"x_max":0,"o":"m 592 -8 b 901 478 892 13 901 132 b 486 967 901 860 889 967 b 74 478 85 967 74 860 b 407 -10 74 124 83 6 b 328 -160 360 -56 328 -110 b 507 -278 328 -222 365 -278 b 606 -272 538 -278 578 -275 l 606 -158 b 582 -160 594 -160 586 -160 b 517 -112 529 -160 517 -140 b 592 -8 517 -76 557 -32 z m 328 478 b 486 775 328 768 332 775 b 647 478 642 775 647 768 b 486 181 647 188 642 181 b 328 478 332 181 328 188 z "},"Ø":{"ha":975,"x_min":0,"x_max":0,"o":"m 822 892 l 901 1032 l 704 1032 l 661 957 b 486 967 614 964 556 967 b 74 478 85 967 74 860 b 153 64 74 263 78 133 l 74 -76 l 269 -76 l 313 -1 b 486 -11 360 -8 418 -11 b 901 478 889 -11 901 96 b 822 892 901 693 897 821 z m 486 181 b 328 478 332 181 328 188 b 486 775 328 768 332 775 b 647 478 642 775 647 768 b 486 181 647 188 642 181 z "},"Ǿ":{"ha":975,"x_min":0,"x_max":0,"o":"m 717 1240 l 717 1247 l 493 1247 l 367 1053 l 367 1046 l 532 1046 z m 822 892 l 901 1032 l 704 1032 l 661 957 b 486 967 614 964 556 967 b 74 478 85 967 74 860 b 153 64 74 263 78 133 l 74 -76 l 269 -76 l 313 -1 b 486 -11 360 -8 418 -11 b 901 478 889 -11 901 96 b 822 892 901 693 897 821 z m 486 181 b 328 478 332 181 328 188 b 486 775 328 768 332 775 b 647 478 642 775 647 768 b 486 181 647 188 642 181 z "},"Õ":{"ha":975,"x_min":0,"x_max":0,"o":"m 222 1039 l 338 1039 b 372 1099 338 1083 338 1099 b 468 1081 396 1099 431 1089 b 625 1054 515 1069 569 1054 b 756 1254 751 1054 756 1128 l 640 1254 b 606 1194 640 1210 640 1194 b 510 1213 579 1194 547 1204 b 353 1238 463 1224 407 1238 b 222 1039 225 1238 222 1165 z m 486 -11 b 901 478 889 -11 901 96 b 486 967 901 860 889 967 b 74 478 85 967 74 860 b 486 -11 74 96 85 -11 z m 486 181 b 328 478 332 181 328 188 b 486 775 328 768 332 775 b 647 478 642 775 647 768 b 486 181 647 188 642 181 z "},"Ȭ":{"ha":975,"x_min":0,"x_max":0,"o":"m 256 1317 l 719 1317 l 719 1450 l 256 1450 z m 222 1039 l 338 1039 b 372 1099 338 1083 338 1099 b 468 1081 396 1099 431 1089 b 625 1054 515 1069 569 1054 b 756 1254 751 1054 756 1128 l 640 1254 b 606 1194 640 1210 640 1194 b 510 1213 579 1194 547 1204 b 353 1238 463 1224 407 1238 b 222 1039 225 1238 222 1165 z m 486 -11 b 901 478 889 -11 901 96 b 486 967 901 860 889 967 b 74 478 85 967 74 860 b 486 -11 74 96 85 -11 z m 486 181 b 328 478 332 181 328 188 b 486 775 328 768 332 775 b 647 478 642 775 647 768 b 486 181 647 188 642 181 z "},"Œ":{"ha":1385,"x_min":0,"x_max":0,"o":"m 486 0 l 1313 0 l 1313 192 l 967 192 b 868 181 926 192 890 186 b 900 388 892 233 900 301 l 1247 388 l 1247 576 l 900 576 b 868 775 897 658 889 724 b 967 764 893 768 933 764 l 1313 764 l 1313 956 l 486 956 b 74 478 85 956 74 851 b 486 0 74 104 85 0 z m 486 192 b 328 478 332 192 328 199 b 486 764 328 757 332 764 b 647 478 642 764 647 757 b 486 192 647 199 642 192 z "},"P":{"ha":892,"x_min":0,"x_max":0,"o":"m 96 0 l 349 0 l 349 308 l 556 308 b 849 632 813 308 849 440 b 558 956 849 840 804 956 l 96 956 z m 349 497 l 349 767 l 461 767 b 594 632 583 767 594 749 b 458 497 594 517 583 497 z "},"Þ":{"ha":892,"x_min":0,"x_max":0,"o":"m 96 0 l 349 0 l 349 165 l 556 165 b 849 489 813 165 849 297 b 558 813 849 697 804 813 l 349 813 l 349 956 l 96 956 z m 349 354 l 349 624 l 461 624 b 594 489 583 624 594 604 b 458 354 594 374 583 354 z "},"Q":{"ha":975,"x_min":0,"x_max":0,"o":"m 807 51 b 901 478 897 119 901 249 b 486 967 901 860 889 967 b 74 478 85 967 74 860 b 486 -11 74 96 85 -11 b 582 -8 521 -11 553 -10 l 683 -160 l 950 -160 l 950 -151 z m 328 478 b 486 775 328 768 332 775 b 647 478 642 775 647 768 b 486 181 647 188 642 181 b 328 478 332 181 328 188 z "},"R":{"ha":932,"x_min":0,"x_max":0,"o":"m 881 0 l 738 368 b 863 646 847 415 863 535 b 572 956 863 844 824 956 l 96 956 l 96 0 l 349 0 l 349 336 l 490 336 l 501 336 l 618 0 z m 475 519 l 349 519 l 349 767 l 475 767 b 608 643 603 767 608 746 b 475 519 608 539 596 519 z "},"Ŕ":{"ha":932,"x_min":0,"x_max":0,"o":"m 694 1240 l 694 1247 l 471 1247 l 344 1053 l 344 1046 l 510 1046 z m 881 0 l 738 368 b 863 646 847 415 863 535 b 572 956 863 844 824 956 l 96 956 l 96 0 l 349 0 l 349 336 l 490 336 l 501 336 l 618 0 z m 475 519 l 349 519 l 349 767 l 475 767 b 608 643 603 767 608 746 b 475 519 608 539 596 519 z "},"Ř":{"ha":932,"x_min":0,"x_max":0,"o":"m 574 1046 l 704 1238 l 704 1247 l 554 1247 l 467 1138 l 379 1247 l 229 1247 l 229 1238 l 358 1046 z m 881 0 l 738 368 b 863 646 847 415 863 535 b 572 956 863 844 824 956 l 96 956 l 96 0 l 349 0 l 349 336 l 490 336 l 501 336 l 618 0 z m 475 519 l 349 519 l 349 767 l 475 767 b 608 643 603 767 608 746 b 475 519 608 539 596 519 z "},"Ŗ":{"ha":932,"x_min":0,"x_max":0,"o":"m 738 368 b 863 646 847 415 863 535 b 572 956 863 844 824 956 l 96 956 l 96 0 l 349 0 l 349 336 l 490 336 l 501 336 l 618 0 l 881 0 z m 475 519 l 349 519 l 349 767 l 475 767 b 608 643 603 767 608 746 b 475 519 608 539 596 519 z m 350 -247 l 436 -247 l 436 -262 b 342 -315 436 -306 421 -315 l 342 -401 b 583 -193 557 -401 583 -358 l 583 -82 l 350 -82 z "},"Ȑ":{"ha":932,"x_min":0,"x_max":0,"o":"m 422 1046 l 422 1051 l 314 1221 l 131 1221 l 131 1214 l 286 1046 z m 686 1046 l 686 1051 l 579 1221 l 396 1221 l 396 1214 l 551 1046 z m 881 0 l 738 368 b 863 646 847 415 863 535 b 572 956 863 844 824 956 l 96 956 l 96 0 l 349 0 l 349 336 l 490 336 l 501 336 l 618 0 z m 475 519 l 349 519 l 349 767 l 475 767 b 608 643 603 767 608 746 b 475 519 608 539 596 519 z "},"Ṛ":{"ha":932,"x_min":0,"x_max":0,"o":"m 738 368 b 863 646 847 415 863 535 b 572 956 863 844 824 956 l 96 956 l 96 0 l 349 0 l 349 336 l 490 336 l 501 336 l 618 0 l 881 0 z m 475 519 l 349 519 l 349 767 l 475 767 b 608 643 603 767 608 746 b 475 519 608 539 596 519 z m 376 -299 l 558 -299 l 558 -132 l 376 -132 z "},"Ȓ":{"ha":932,"x_min":0,"x_max":0,"o":"m 468 1135 b 553 1049 553 1135 553 1100 l 679 1049 b 468 1257 679 1171 654 1257 b 253 1049 281 1257 253 1171 l 381 1049 b 468 1135 381 1100 382 1135 z m 881 0 l 738 368 b 863 646 847 415 863 535 b 572 956 863 844 824 956 l 96 956 l 96 0 l 349 0 l 349 336 l 490 336 l 501 336 l 618 0 z m 475 519 l 349 519 l 349 767 l 475 767 b 608 643 603 767 608 746 b 475 519 608 539 596 519 z "},"S":{"ha":854,"x_min":0,"x_max":0,"o":"m 447 -11 b 793 296 644 -11 793 17 b 764 475 793 379 782 438 b 588 578 725 551 663 569 l 403 600 b 314 688 322 610 314 619 b 343 758 314 722 318 744 b 472 775 364 771 403 775 b 744 758 561 775 675 768 l 744 939 b 426 967 672 954 540 967 b 61 679 219 967 61 931 b 243 394 61 514 97 413 l 435 371 b 539 278 528 360 539 350 b 518 200 539 240 539 215 b 369 181 497 186 454 181 b 89 196 304 181 190 188 l 89 13 b 447 -11 186 -1 335 -11 z "},"Ś":{"ha":854,"x_min":0,"x_max":0,"o":"m 306 1046 l 471 1046 l 656 1240 l 656 1247 l 432 1247 l 306 1053 z m 447 -11 b 793 296 644 -11 793 17 b 764 475 793 379 782 438 b 588 578 725 551 663 569 l 403 600 b 314 688 322 610 314 619 b 343 758 314 722 318 744 b 472 775 364 771 403 775 b 744 758 561 775 675 768 l 744 939 b 426 967 672 954 540 967 b 61 679 219 967 61 931 b 243 394 61 514 97 413 l 435 371 b 539 278 528 360 539 350 b 518 200 539 240 539 215 b 369 181 497 186 454 181 b 89 196 304 181 190 188 l 89 13 b 447 -11 186 -1 335 -11 z "},"Ꞌ":{"ha":372,"x_min":0,"x_max":0,"o":"m 83 372 l 240 372 l 289 717 l 289 956 l 83 956 z "},"Š":{"ha":854,"x_min":0,"x_max":0,"o":"m 319 1046 l 535 1046 l 665 1238 l 665 1247 l 515 1247 l 428 1138 l 340 1247 l 190 1247 l 190 1238 z m 447 -11 b 793 296 644 -11 793 17 b 764 475 793 379 782 438 b 588 578 725 551 663 569 l 403 600 b 314 688 322 610 314 619 b 343 758 314 722 318 744 b 472 775 364 771 403 775 b 744 758 561 775 675 768 l 744 939 b 426 967 672 954 540 967 b 61 679 219 967 61 931 b 243 394 61 514 97 413 l 435 371 b 539 278 528 360 539 350 b 518 200 539 240 539 215 b 369 181 497 186 454 181 b 89 196 304 181 190 188 l 89 13 b 447 -11 186 -1 335 -11 z "},"Ş":{"ha":854,"x_min":0,"x_max":0,"o":"m 793 296 b 764 475 793 379 782 438 b 588 578 725 551 663 569 l 403 600 b 314 688 322 610 314 619 b 343 758 314 722 318 744 b 472 775 364 771 403 775 b 744 758 561 775 675 768 l 744 939 b 426 967 672 954 540 967 b 61 679 219 967 61 931 b 243 394 61 514 97 413 l 435 371 b 539 278 528 360 539 350 b 518 200 539 240 539 215 b 369 181 497 186 454 181 b 89 196 304 181 190 188 l 89 13 b 385 -10 169 1 283 -7 l 286 -257 l 286 -264 l 497 -264 l 544 -7 b 793 296 692 6 793 64 z "},"Ŝ":{"ha":854,"x_min":0,"x_max":0,"o":"m 190 1046 l 340 1046 l 426 1156 l 515 1046 l 665 1046 l 665 1056 l 535 1247 l 319 1247 l 190 1056 z m 447 -11 b 793 296 644 -11 793 17 b 764 475 793 379 782 438 b 588 578 725 551 663 569 l 403 600 b 314 688 322 610 314 619 b 343 758 314 722 318 744 b 472 775 364 771 403 775 b 744 758 561 775 675 768 l 744 939 b 426 967 672 954 540 967 b 61 679 219 967 61 931 b 243 394 61 514 97 413 l 435 371 b 539 278 528 360 539 350 b 518 200 539 240 539 215 b 369 181 497 186 454 181 b 89 196 304 181 190 188 l 89 13 b 447 -11 186 -1 335 -11 z "},"Ș":{"ha":854,"x_min":0,"x_max":0,"o":"m 447 -11 b 793 296 644 -11 793 17 b 764 475 793 379 782 438 b 588 578 725 551 663 569 l 403 600 b 314 688 322 610 314 619 b 343 758 314 722 318 744 b 472 775 364 771 403 775 b 744 758 561 775 675 768 l 744 939 b 426 967 672 954 540 967 b 61 679 219 967 61 931 b 243 394 61 514 97 413 l 435 371 b 539 278 528 360 539 350 b 518 200 539 240 539 215 b 369 181 497 186 454 181 b 89 196 304 181 190 188 l 89 13 b 447 -11 186 -1 335 -11 z m 303 -401 b 544 -193 518 -401 544 -358 l 544 -82 l 311 -82 l 311 -247 l 397 -247 l 397 -262 b 303 -315 397 -306 382 -315 z "},"Ṣ":{"ha":854,"x_min":0,"x_max":0,"o":"m 447 -11 b 793 296 644 -11 793 17 b 764 475 793 379 782 438 b 588 578 725 551 663 569 l 403 600 b 314 688 322 610 314 619 b 343 758 314 722 318 744 b 472 775 364 771 403 775 b 744 758 561 775 675 768 l 744 939 b 426 967 672 954 540 967 b 61 679 219 967 61 931 b 243 394 61 514 97 413 l 435 371 b 539 278 528 360 539 350 b 518 200 539 240 539 215 b 369 181 497 186 454 181 b 89 196 304 181 190 188 l 89 13 b 447 -11 186 -1 335 -11 z m 338 -299 l 519 -299 l 519 -132 l 338 -132 z "},"ẞ":{"ha":1046,"x_min":0,"x_max":0,"o":"m 732 526 l 931 756 l 931 919 b 503 967 815 944 653 967 b 90 492 147 967 90 872 l 90 0 l 343 0 l 343 464 b 550 775 343 747 353 775 b 658 769 571 775 611 774 l 471 553 l 471 389 l 606 389 b 724 281 699 389 724 372 b 585 181 724 193 701 181 b 431 197 549 181 485 188 l 431 19 b 625 -11 483 3 565 -11 b 979 256 896 -11 979 81 b 732 526 979 447 903 511 z "},"Ə":{"ha":961,"x_min":0,"x_max":0,"o":"m 472 -11 b 881 478 869 -11 881 96 b 446 967 881 860 831 967 b 188 944 360 967 251 957 l 188 763 b 385 775 243 769 325 775 b 625 576 583 775 619 757 l 74 576 l 74 478 b 472 -11 74 96 83 -11 z m 472 181 b 321 388 340 181 324 186 l 633 388 b 472 181 631 186 611 181 z "},"T":{"ha":818,"x_min":0,"x_max":0,"o":"m 282 0 l 535 0 l 535 754 l 793 754 l 793 956 l 24 956 l 24 754 l 282 754 z "},"Ŧ":{"ha":818,"x_min":0,"x_max":0,"o":"m 793 754 l 793 956 l 24 956 l 24 754 l 282 754 l 282 529 l 51 529 l 51 365 l 282 365 l 282 0 l 535 0 l 535 365 l 765 365 l 765 529 l 535 529 l 535 754 z "},"Ť":{"ha":818,"x_min":0,"x_max":0,"o":"m 301 1046 l 517 1046 l 647 1238 l 647 1247 l 497 1247 l 410 1138 l 322 1247 l 172 1247 l 172 1238 z m 282 0 l 535 0 l 535 754 l 793 754 l 793 956 l 24 956 l 24 754 l 282 754 z "},"Ţ":{"ha":818,"x_min":0,"x_max":0,"o":"m 24 956 l 24 754 l 282 754 l 282 0 l 336 0 l 233 -257 l 233 -264 l 444 -264 l 493 0 l 535 0 l 535 754 l 793 754 l 793 956 z "},"Ț":{"ha":818,"x_min":0,"x_max":0,"o":"m 282 0 l 535 0 l 535 754 l 793 754 l 793 956 l 24 956 l 24 754 l 282 754 z m 285 -401 b 526 -193 500 -401 526 -358 l 526 -82 l 293 -82 l 293 -247 l 379 -247 l 379 -262 b 285 -315 379 -306 364 -315 z "},"Ṭ":{"ha":818,"x_min":0,"x_max":0,"o":"m 282 0 l 535 0 l 535 754 l 793 754 l 793 956 l 24 956 l 24 754 l 282 754 z m 318 -299 l 500 -299 l 500 -132 l 318 -132 z "},"U":{"ha":956,"x_min":0,"x_max":0,"o":"m 478 -11 b 864 432 840 -11 864 85 l 864 956 l 611 956 l 611 381 b 478 183 611 203 607 183 b 343 381 347 183 343 203 l 343 956 l 90 956 l 90 432 b 478 -11 90 85 115 -11 z "},"Ú":{"ha":956,"x_min":0,"x_max":0,"o":"m 357 1046 l 522 1046 l 707 1240 l 707 1247 l 483 1247 l 357 1053 z m 478 -11 b 864 432 840 -11 864 85 l 864 956 l 611 956 l 611 381 b 478 183 611 203 607 183 b 343 381 347 183 343 203 l 343 956 l 90 956 l 90 432 b 478 -11 90 85 115 -11 z "},"Ŭ":{"ha":956,"x_min":0,"x_max":0,"o":"m 449 1036 b 663 1244 636 1036 663 1122 l 535 1244 b 449 1158 535 1193 533 1158 b 363 1244 363 1158 363 1193 l 236 1244 b 449 1036 236 1122 261 1036 z m 478 -11 b 864 432 840 -11 864 85 l 864 956 l 611 956 l 611 381 b 478 183 611 203 607 183 b 343 381 347 183 343 203 l 343 956 l 90 956 l 90 432 b 478 -11 90 85 115 -11 z "},"Ǔ":{"ha":956,"x_min":0,"x_max":0,"o":"m 371 1046 l 586 1046 l 717 1238 l 717 1247 l 567 1247 l 479 1138 l 392 1247 l 242 1247 l 242 1238 z m 478 -11 b 864 432 840 -11 864 85 l 864 956 l 611 956 l 611 381 b 478 183 611 203 607 183 b 343 381 347 183 343 203 l 343 956 l 90 956 l 90 432 b 478 -11 90 85 115 -11 z "},"Û":{"ha":956,"x_min":0,"x_max":0,"o":"m 242 1046 l 392 1046 l 478 1156 l 567 1046 l 717 1046 l 717 1056 l 586 1247 l 371 1247 l 242 1056 z m 478 -11 b 864 432 840 -11 864 85 l 864 956 l 611 956 l 611 381 b 478 183 611 203 607 183 b 343 381 347 183 343 203 l 343 956 l 90 956 l 90 432 b 478 -11 90 85 115 -11 z "},"Ȕ":{"ha":956,"x_min":0,"x_max":0,"o":"m 435 1046 l 435 1051 l 326 1221 l 143 1221 l 143 1214 l 299 1046 z m 699 1046 l 699 1051 l 592 1221 l 408 1221 l 408 1214 l 564 1046 z m 478 -11 b 864 432 840 -11 864 85 l 864 956 l 611 956 l 611 381 b 478 183 611 203 607 183 b 343 381 347 183 343 203 l 343 956 l 90 956 l 90 432 b 478 -11 90 85 115 -11 z "},"Ü":{"ha":956,"x_min":0,"x_max":0,"o":"m 235 1069 l 424 1069 l 424 1224 l 235 1224 z m 532 1069 l 721 1069 l 721 1224 l 532 1224 z m 478 -11 b 864 432 840 -11 864 85 l 864 956 l 611 956 l 611 381 b 478 183 611 203 607 183 b 343 381 347 183 343 203 l 343 956 l 90 956 l 90 432 b 478 -11 90 85 115 -11 z "},"Ǘ":{"ha":956,"x_min":0,"x_max":0,"o":"m 357 1296 l 522 1296 l 707 1490 l 707 1497 l 483 1497 l 357 1303 z m 235 1069 l 424 1069 l 424 1224 l 235 1224 z m 532 1069 l 721 1069 l 721 1224 l 532 1224 z m 478 -11 b 864 432 840 -11 864 85 l 864 956 l 611 956 l 611 381 b 478 183 611 203 607 183 b 343 381 347 183 343 203 l 343 956 l 90 956 l 90 432 b 478 -11 90 85 115 -11 z "},"Ǚ":{"ha":956,"x_min":0,"x_max":0,"o":"m 371 1296 l 586 1296 l 717 1488 l 717 1497 l 567 1497 l 479 1388 l 392 1497 l 242 1497 l 242 1488 z m 235 1069 l 424 1069 l 424 1224 l 235 1224 z m 532 1069 l 721 1069 l 721 1224 l 532 1224 z m 478 -11 b 864 432 840 -11 864 85 l 864 956 l 611 956 l 611 381 b 478 183 611 203 607 183 b 343 381 347 183 343 203 l 343 956 l 90 956 l 90 432 b 478 -11 90 85 115 -11 z "},"Ǜ":{"ha":956,"x_min":0,"x_max":0,"o":"m 400 1296 l 564 1296 l 564 1303 l 438 1497 l 214 1497 l 214 1490 z m 235 1069 l 424 1069 l 424 1224 l 235 1224 z m 532 1069 l 721 1069 l 721 1224 l 532 1224 z m 478 -11 b 864 432 840 -11 864 85 l 864 956 l 611 956 l 611 381 b 478 183 611 203 607 183 b 343 381 347 183 343 203 l 343 956 l 90 956 l 90 432 b 478 -11 90 85 115 -11 z "},"Ǖ":{"ha":956,"x_min":0,"x_max":0,"o":"m 246 1319 l 710 1319 l 710 1453 l 246 1453 z m 235 1069 l 424 1069 l 424 1224 l 235 1224 z m 532 1069 l 721 1069 l 721 1224 l 532 1224 z m 478 -11 b 864 432 840 -11 864 85 l 864 956 l 611 956 l 611 381 b 478 183 611 203 607 183 b 343 381 347 183 343 203 l 343 956 l 90 956 l 90 432 b 478 -11 90 85 115 -11 z "},"Ụ":{"ha":956,"x_min":0,"x_max":0,"o":"m 478 -11 b 864 432 840 -11 864 85 l 864 956 l 611 956 l 611 381 b 478 183 611 203 607 183 b 343 381 347 183 343 203 l 343 956 l 90 956 l 90 432 b 478 -11 90 85 115 -11 z m 388 -299 l 569 -299 l 569 -132 l 388 -132 z "},"Ù":{"ha":956,"x_min":0,"x_max":0,"o":"m 400 1046 l 564 1046 l 564 1053 l 438 1247 l 214 1247 l 214 1240 z m 478 -11 b 864 432 840 -11 864 85 l 864 956 l 611 956 l 611 381 b 478 183 611 203 607 183 b 343 381 347 183 343 203 l 343 956 l 90 956 l 90 432 b 478 -11 90 85 115 -11 z "},"Ủ":{"ha":956,"x_min":0,"x_max":0,"o":"m 390 1033 l 511 1033 b 557 1074 511 1056 517 1063 l 578 1081 b 678 1197 656 1103 678 1124 b 478 1333 678 1326 593 1333 b 297 1319 422 1333 346 1328 l 297 1215 b 442 1222 335 1219 407 1222 b 531 1182 514 1222 531 1221 b 482 1140 531 1157 524 1153 l 458 1133 b 390 1040 401 1118 390 1093 z m 478 -11 b 864 432 840 -11 864 85 l 864 956 l 611 956 l 611 381 b 478 183 611 203 607 183 b 343 381 347 183 343 203 l 343 956 l 90 956 l 90 432 b 478 -11 90 85 115 -11 z "},"Ư":{"ha":956,"x_min":0,"x_max":0,"o":"m 871 1079 l 871 1046 b 779 956 871 976 861 956 l 611 956 l 611 381 b 478 183 611 203 607 183 b 343 381 347 183 343 203 l 343 956 l 90 956 l 90 432 b 478 -11 90 85 115 -11 b 864 432 840 -11 864 85 l 864 874 b 1022 1057 1001 886 1022 935 l 1022 1079 z "},"Ứ":{"ha":956,"x_min":0,"x_max":0,"o":"m 707 1240 l 707 1247 l 483 1247 l 357 1053 l 357 1046 l 522 1046 z m 871 1079 l 871 1046 b 779 956 871 976 861 956 l 611 956 l 611 381 b 478 183 611 203 607 183 b 343 381 347 183 343 203 l 343 956 l 90 956 l 90 432 b 478 -11 90 85 115 -11 b 864 432 840 -11 864 85 l 864 874 b 1022 1057 1001 886 1022 935 l 1022 1079 z "},"Ự":{"ha":956,"x_min":0,"x_max":0,"o":"m 871 1079 l 871 1046 b 779 956 871 976 861 956 l 611 956 l 611 381 b 478 183 611 203 607 183 b 343 381 347 183 343 203 l 343 956 l 90 956 l 90 432 b 478 -11 90 85 115 -11 b 864 432 840 -11 864 85 l 864 874 b 1022 1057 1001 886 1022 935 l 1022 1079 z m 388 -299 l 569 -299 l 569 -132 l 388 -132 z "},"Ừ":{"ha":956,"x_min":0,"x_max":0,"o":"m 564 1046 l 564 1053 l 438 1247 l 214 1247 l 214 1240 l 400 1046 z m 871 1079 l 871 1046 b 779 956 871 976 861 956 l 611 956 l 611 381 b 478 183 611 203 607 183 b 343 381 347 183 343 203 l 343 956 l 90 956 l 90 432 b 478 -11 90 85 115 -11 b 864 432 840 -11 864 85 l 864 874 b 1022 1057 1001 886 1022 935 l 1022 1079 z "},"Ử":{"ha":956,"x_min":0,"x_max":0,"o":"m 531 1182 b 482 1140 531 1157 524 1153 l 458 1133 b 390 1040 401 1118 390 1093 l 390 1033 l 511 1033 b 557 1074 511 1056 517 1063 l 578 1081 b 678 1197 656 1103 678 1124 b 478 1333 678 1326 593 1333 b 297 1319 422 1333 346 1328 l 297 1215 b 442 1222 335 1219 407 1222 b 531 1182 514 1222 531 1221 z m 871 1079 l 871 1046 b 779 956 871 976 861 956 l 611 956 l 611 381 b 478 183 611 203 607 183 b 343 381 347 183 343 203 l 343 956 l 90 956 l 90 432 b 478 -11 90 85 115 -11 b 864 432 840 -11 864 85 l 864 874 b 1022 1057 1001 886 1022 935 l 1022 1079 z "},"Ữ":{"ha":956,"x_min":0,"x_max":0,"o":"m 363 1099 b 458 1081 386 1099 421 1089 b 615 1054 506 1069 560 1054 b 746 1254 742 1054 746 1128 l 631 1254 b 596 1194 631 1210 631 1194 b 500 1213 569 1194 538 1204 b 343 1238 453 1224 397 1238 b 213 1039 215 1238 213 1165 l 328 1039 b 363 1099 328 1083 328 1099 z m 871 1079 l 871 1046 b 779 956 871 976 861 956 l 611 956 l 611 381 b 478 183 611 203 607 183 b 343 381 347 183 343 203 l 343 956 l 90 956 l 90 432 b 478 -11 90 85 115 -11 b 864 432 840 -11 864 85 l 864 874 b 1022 1057 1001 886 1022 935 l 1022 1079 z "},"Ű":{"ha":956,"x_min":0,"x_max":0,"o":"m 283 1046 l 418 1046 l 574 1214 l 574 1221 l 390 1221 l 283 1051 z m 547 1046 l 683 1046 l 839 1214 l 839 1221 l 656 1221 l 547 1051 z m 478 -11 b 864 432 840 -11 864 85 l 864 956 l 611 956 l 611 381 b 478 183 611 203 607 183 b 343 381 347 183 343 203 l 343 956 l 90 956 l 90 432 b 478 -11 90 85 115 -11 z "},"Ȗ":{"ha":956,"x_min":0,"x_max":0,"o":"m 479 1257 b 264 1049 292 1257 264 1171 l 392 1049 b 479 1135 392 1100 393 1135 b 564 1049 564 1135 564 1100 l 690 1049 b 479 1257 690 1171 665 1257 z m 478 -11 b 864 432 840 -11 864 85 l 864 956 l 611 956 l 611 381 b 478 183 611 203 607 183 b 343 381 347 183 343 203 l 343 956 l 90 956 l 90 432 b 478 -11 90 85 115 -11 z "},"Ū":{"ha":956,"x_min":0,"x_max":0,"o":"m 246 1069 l 710 1069 l 710 1203 l 246 1203 z m 478 -11 b 864 432 840 -11 864 85 l 864 956 l 611 956 l 611 381 b 478 183 611 203 607 183 b 343 381 347 183 343 203 l 343 956 l 90 956 l 90 432 b 478 -11 90 85 115 -11 z "},"Ų":{"ha":956,"x_min":0,"x_max":0,"o":"m 611 956 l 611 381 b 478 183 611 203 607 183 b 343 381 347 183 343 203 l 343 956 l 90 956 l 90 432 b 401 -10 90 111 111 6 b 322 -160 354 -56 322 -110 b 501 -278 322 -222 360 -278 b 600 -272 532 -278 572 -275 l 600 -158 b 576 -160 589 -160 581 -160 b 511 -112 524 -160 511 -140 b 588 -7 511 -76 553 -31 b 864 432 846 14 864 124 l 864 956 z "},"Ů":{"ha":956,"x_min":0,"x_max":0,"o":"m 476 1026 b 682 1190 665 1026 682 1071 b 476 1356 682 1310 665 1356 b 272 1190 289 1356 272 1310 b 476 1026 272 1071 289 1026 z m 476 1118 b 393 1190 394 1118 393 1133 b 476 1264 393 1247 394 1264 b 560 1190 560 1264 560 1247 b 476 1118 560 1133 560 1118 z m 478 -11 b 864 432 840 -11 864 85 l 864 956 l 611 956 l 611 381 b 478 183 611 203 607 183 b 343 381 347 183 343 203 l 343 956 l 90 956 l 90 432 b 478 -11 90 85 115 -11 z "},"Ũ":{"ha":956,"x_min":0,"x_max":0,"o":"m 213 1039 l 328 1039 b 363 1099 328 1083 328 1099 b 458 1081 386 1099 421 1089 b 615 1054 506 1069 560 1054 b 746 1254 742 1054 746 1128 l 631 1254 b 596 1194 631 1210 631 1194 b 500 1213 569 1194 538 1204 b 343 1238 453 1224 397 1238 b 213 1039 215 1238 213 1165 z m 478 -11 b 864 432 840 -11 864 85 l 864 956 l 611 956 l 611 381 b 478 183 611 203 607 183 b 343 381 347 183 343 203 l 343 956 l 90 956 l 90 432 b 478 -11 90 85 115 -11 z "},"V":{"ha":921,"x_min":0,"x_max":0,"o":"m 293 0 l 628 0 l 908 956 l 656 956 l 469 268 l 457 268 l 269 956 l 11 956 z "},"W":{"ha":1371,"x_min":0,"x_max":0,"o":"m 225 0 l 543 0 l 681 586 l 692 586 l 829 0 l 1146 0 l 1354 956 l 1101 956 l 983 285 l 972 285 l 821 956 l 558 956 l 411 285 l 400 285 l 269 956 l 18 956 z "},"Ẃ":{"ha":1371,"x_min":0,"x_max":0,"o":"m 565 1046 l 731 1046 l 915 1240 l 915 1247 l 692 1247 l 565 1053 z m 225 0 l 543 0 l 681 586 l 692 586 l 829 0 l 1146 0 l 1354 956 l 1101 956 l 983 285 l 972 285 l 821 956 l 558 956 l 411 285 l 400 285 l 269 956 l 18 956 z "},"Ŵ":{"ha":1371,"x_min":0,"x_max":0,"o":"m 449 1046 l 599 1046 l 685 1156 l 774 1046 l 924 1046 l 924 1056 l 793 1247 l 578 1247 l 449 1056 z m 225 0 l 543 0 l 681 586 l 692 586 l 829 0 l 1146 0 l 1354 956 l 1101 956 l 983 285 l 972 285 l 821 956 l 558 956 l 411 285 l 400 285 l 269 956 l 18 956 z "},"Ẅ":{"ha":1371,"x_min":0,"x_max":0,"o":"m 443 1069 l 632 1069 l 632 1224 l 443 1224 z m 740 1069 l 929 1069 l 929 1224 l 740 1224 z m 225 0 l 543 0 l 681 586 l 692 586 l 829 0 l 1146 0 l 1354 956 l 1101 956 l 983 285 l 972 285 l 821 956 l 558 956 l 411 285 l 400 285 l 269 956 l 18 956 z "},"Ẁ":{"ha":1371,"x_min":0,"x_max":0,"o":"m 608 1046 l 772 1046 l 772 1053 l 646 1247 l 422 1247 l 422 1240 z m 225 0 l 543 0 l 681 586 l 692 586 l 829 0 l 1146 0 l 1354 956 l 1101 956 l 983 285 l 972 285 l 821 956 l 558 956 l 411 285 l 400 285 l 269 956 l 18 956 z "},"X":{"ha":957,"x_min":0,"x_max":0,"o":"m 17 0 l 293 0 l 467 290 l 481 290 l 654 0 l 939 0 l 638 485 l 935 956 l 660 956 l 489 672 l 476 672 l 308 956 l 22 956 l 321 481 z "},"Y":{"ha":890,"x_min":0,"x_max":0,"o":"m 318 0 l 571 0 l 571 325 l 888 956 l 633 956 l 453 561 l 443 561 l 263 956 l 1 956 l 318 325 z "},"Ý":{"ha":890,"x_min":0,"x_max":0,"o":"m 324 1046 l 489 1046 l 674 1240 l 674 1247 l 450 1247 l 324 1053 z m 318 0 l 571 0 l 571 325 l 888 956 l 633 956 l 453 561 l 443 561 l 263 956 l 1 956 l 318 325 z "},"Ŷ":{"ha":890,"x_min":0,"x_max":0,"o":"m 207 1046 l 357 1046 l 443 1156 l 532 1046 l 682 1046 l 682 1056 l 551 1247 l 336 1247 l 207 1056 z m 318 0 l 571 0 l 571 325 l 888 956 l 633 956 l 453 561 l 443 561 l 263 956 l 1 956 l 318 325 z "},"Ÿ":{"ha":890,"x_min":0,"x_max":0,"o":"m 201 1069 l 390 1069 l 390 1224 l 201 1224 z m 499 1069 l 688 1069 l 688 1224 l 499 1224 z m 318 0 l 571 0 l 571 325 l 888 956 l 633 956 l 453 561 l 443 561 l 263 956 l 1 956 l 318 325 z "},"Ỵ":{"ha":890,"x_min":0,"x_max":0,"o":"m 318 0 l 571 0 l 571 325 l 888 956 l 633 956 l 453 561 l 443 561 l 263 956 l 1 956 l 318 325 z m 354 -299 l 536 -299 l 536 -132 l 354 -132 z "},"Ỳ":{"ha":890,"x_min":0,"x_max":0,"o":"m 367 1046 l 531 1046 l 531 1053 l 404 1247 l 181 1247 l 181 1240 z m 318 0 l 571 0 l 571 325 l 888 956 l 633 956 l 453 561 l 443 561 l 263 956 l 1 956 l 318 325 z "},"Ỷ":{"ha":890,"x_min":0,"x_max":0,"o":"m 357 1033 l 478 1033 b 524 1074 478 1056 483 1063 l 544 1081 b 644 1197 622 1103 644 1124 b 444 1333 644 1326 560 1333 b 264 1319 389 1333 313 1328 l 264 1215 b 408 1222 301 1219 374 1222 b 497 1182 481 1222 497 1221 b 449 1140 497 1157 490 1153 l 425 1133 b 357 1040 368 1118 357 1093 z m 318 0 l 571 0 l 571 325 l 888 956 l 633 956 l 453 561 l 443 561 l 263 956 l 1 956 l 318 325 z "},"Ȳ":{"ha":890,"x_min":0,"x_max":0,"o":"m 213 1069 l 676 1069 l 676 1203 l 213 1203 z m 318 0 l 571 0 l 571 325 l 888 956 l 633 956 l 453 561 l 443 561 l 263 956 l 1 956 l 318 325 z "},"Ỹ":{"ha":890,"x_min":0,"x_max":0,"o":"m 178 1039 l 293 1039 b 328 1099 293 1083 293 1099 b 424 1081 351 1099 386 1089 b 581 1054 471 1069 525 1054 b 711 1254 707 1054 711 1128 l 596 1254 b 561 1194 596 1210 596 1194 b 465 1213 535 1194 503 1204 b 308 1238 418 1224 363 1238 b 178 1039 181 1238 178 1165 z m 318 0 l 571 0 l 571 325 l 888 956 l 633 956 l 453 561 l 443 561 l 263 956 l 1 956 l 318 325 z "},"Z":{"ha":854,"x_min":0,"x_max":0,"o":"m 60 0 l 796 0 l 796 192 l 367 192 l 793 776 l 793 956 l 75 956 l 75 764 l 481 764 l 60 185 z "},"Ź":{"ha":854,"x_min":0,"x_max":0,"o":"m 306 1046 l 471 1046 l 656 1240 l 656 1247 l 432 1247 l 306 1053 z m 60 0 l 796 0 l 796 192 l 367 192 l 793 776 l 793 956 l 75 956 l 75 764 l 481 764 l 60 185 z "},"Ž":{"ha":854,"x_min":0,"x_max":0,"o":"m 319 1046 l 535 1046 l 665 1238 l 665 1247 l 515 1247 l 428 1138 l 340 1247 l 190 1247 l 190 1238 z m 60 0 l 796 0 l 796 192 l 367 192 l 793 776 l 793 956 l 75 956 l 75 764 l 481 764 l 60 185 z "},"Ż":{"ha":854,"x_min":0,"x_max":0,"o":"m 332 1069 l 521 1069 l 521 1224 l 332 1224 z m 60 0 l 796 0 l 796 192 l 367 192 l 793 776 l 793 956 l 75 956 l 75 764 l 481 764 l 60 185 z "},"Ẓ":{"ha":854,"x_min":0,"x_max":0,"o":"m 60 0 l 796 0 l 796 192 l 367 192 l 793 776 l 793 956 l 75 956 l 75 764 l 481 764 l 60 185 z m 336 -299 l 518 -299 l 518 -132 l 336 -132 z "},"a":{"ha":786,"x_min":0,"x_max":0,"o":"m 254 -11 b 463 82 329 -11 408 -3 l 474 82 l 479 0 l 703 0 l 703 426 b 374 719 703 625 678 719 b 93 696 267 719 168 710 l 93 535 b 300 544 144 539 236 544 b 469 439 449 544 469 542 l 469 414 b 276 419 407 417 310 419 b 51 203 97 419 51 363 b 254 -11 51 49 121 -11 z m 365 151 b 271 224 281 151 271 165 b 351 303 271 293 282 303 l 469 303 l 469 275 b 456 189 469 236 465 208 b 365 151 440 161 413 151 z "},"á":{"ha":786,"x_min":0,"x_max":0,"o":"m 274 799 l 439 799 l 624 993 l 624 1000 l 400 1000 l 274 806 z m 254 -11 b 463 82 329 -11 408 -3 l 474 82 l 479 0 l 703 0 l 703 426 b 374 719 703 625 678 719 b 93 696 267 719 168 710 l 93 535 b 300 544 144 539 236 544 b 469 439 449 544 469 542 l 469 414 b 276 419 407 417 310 419 b 51 203 97 419 51 363 b 254 -11 51 49 121 -11 z m 365 151 b 271 224 281 151 271 165 b 351 303 271 293 282 303 l 469 303 l 469 275 b 456 189 469 236 465 208 b 365 151 440 161 413 151 z "},"ă":{"ha":786,"x_min":0,"x_max":0,"o":"m 394 790 b 608 997 582 790 608 876 l 481 997 b 394 913 481 947 479 913 b 308 997 308 913 308 947 l 182 997 b 394 790 182 876 207 790 z m 254 -11 b 463 82 329 -11 408 -3 l 474 82 l 479 0 l 703 0 l 703 426 b 374 719 703 625 678 719 b 93 696 267 719 168 710 l 93 535 b 300 544 144 539 236 544 b 469 439 449 544 469 542 l 469 414 b 276 419 407 417 310 419 b 51 203 97 419 51 363 b 254 -11 51 49 121 -11 z m 365 151 b 271 224 281 151 271 165 b 351 303 271 293 282 303 l 469 303 l 469 275 b 456 189 469 236 465 208 b 365 151 440 161 413 151 z "},"ắ":{"ha":786,"x_min":0,"x_max":0,"o":"m 274 1038 l 439 1038 l 624 1233 l 624 1240 l 400 1240 l 274 1044 z m 394 790 b 608 997 582 790 608 876 l 481 997 b 394 913 481 947 479 913 b 308 997 308 913 308 947 l 182 997 b 394 790 182 876 207 790 z m 254 -11 b 463 82 329 -11 408 -3 l 474 82 l 479 0 l 703 0 l 703 426 b 374 719 703 625 678 719 b 93 696 267 719 168 710 l 93 535 b 300 544 144 539 236 544 b 469 439 449 544 469 542 l 469 414 b 276 419 407 417 310 419 b 51 203 97 419 51 363 b 254 -11 51 49 121 -11 z m 365 151 b 271 224 281 151 271 165 b 351 303 271 293 282 303 l 469 303 l 469 275 b 456 189 469 236 465 208 b 365 151 440 161 413 151 z "},"ặ":{"ha":786,"x_min":0,"x_max":0,"o":"m 394 790 b 608 997 582 790 608 876 l 481 997 b 394 913 481 947 479 913 b 308 997 308 913 308 947 l 182 997 b 394 790 182 876 207 790 z m 254 -11 b 463 82 329 -11 408 -3 l 474 82 l 479 0 l 703 0 l 703 426 b 374 719 703 625 678 719 b 93 696 267 719 168 710 l 93 535 b 300 544 144 539 236 544 b 469 439 449 544 469 542 l 469 414 b 276 419 407 417 310 419 b 51 203 97 419 51 363 b 254 -11 51 49 121 -11 z m 365 151 b 271 224 281 151 271 165 b 351 303 271 293 282 303 l 469 303 l 469 275 b 456 189 469 236 465 208 b 365 151 440 161 413 151 z m 303 -299 l 485 -299 l 485 -132 l 303 -132 z "},"ằ":{"ha":786,"x_min":0,"x_max":0,"o":"m 339 1038 l 503 1038 l 503 1044 l 376 1240 l 153 1240 l 153 1233 z m 396 790 b 610 997 583 790 610 876 l 482 997 b 396 913 482 947 481 913 b 310 997 310 913 310 947 l 183 997 b 396 790 183 876 208 790 z m 254 -11 b 463 82 329 -11 408 -3 l 474 82 l 479 0 l 703 0 l 703 426 b 374 719 703 625 678 719 b 93 696 267 719 168 710 l 93 535 b 300 544 144 539 236 544 b 469 439 449 544 469 542 l 469 414 b 276 419 407 417 310 419 b 51 203 97 419 51 363 b 254 -11 51 49 121 -11 z m 365 151 b 271 224 281 151 271 165 b 351 303 271 293 282 303 l 469 303 l 469 275 b 456 189 469 236 465 208 b 365 151 440 161 413 151 z "},"ẳ":{"ha":786,"x_min":0,"x_max":0,"o":"m 308 1026 l 429 1026 b 475 1067 429 1049 435 1054 l 496 1072 b 596 1189 574 1094 596 1115 b 396 1326 596 1319 511 1326 b 215 1311 340 1326 264 1319 l 215 1207 b 360 1215 253 1211 325 1215 b 449 1175 432 1215 449 1214 b 400 1133 449 1150 442 1144 l 376 1126 b 308 1033 319 1111 308 1086 z m 394 790 b 608 997 582 790 608 876 l 481 997 b 394 913 481 947 479 913 b 308 997 308 913 308 947 l 182 997 b 394 790 182 876 207 790 z m 254 -11 b 463 82 329 -11 408 -3 l 474 82 l 479 0 l 703 0 l 703 426 b 374 719 703 625 678 719 b 93 696 267 719 168 710 l 93 535 b 300 544 144 539 236 544 b 469 439 449 544 469 542 l 469 414 b 276 419 407 417 310 419 b 51 203 97 419 51 363 b 254 -11 51 49 121 -11 z m 365 151 b 271 224 281 151 271 165 b 351 303 271 293 282 303 l 469 303 l 469 275 b 456 189 469 236 465 208 b 365 151 440 161 413 151 z "},"ẵ":{"ha":786,"x_min":0,"x_max":0,"o":"m 129 1031 l 244 1031 b 279 1090 244 1075 244 1090 b 375 1072 303 1090 338 1082 b 532 1047 422 1061 476 1047 b 663 1247 658 1047 663 1119 l 547 1247 b 513 1188 547 1201 547 1188 b 417 1206 486 1188 454 1196 b 260 1231 369 1217 314 1231 b 129 1031 132 1231 129 1157 z m 394 790 b 610 997 582 790 610 876 l 482 997 b 394 913 482 947 481 913 b 310 997 310 913 310 947 l 183 997 b 394 790 183 876 208 790 z m 254 -11 b 463 82 329 -11 408 -3 l 474 82 l 479 0 l 703 0 l 703 426 b 374 719 703 625 678 719 b 93 696 267 719 168 710 l 93 535 b 300 544 144 539 236 544 b 469 439 449 544 469 542 l 469 414 b 276 419 407 417 310 419 b 51 203 97 419 51 363 b 254 -11 51 49 121 -11 z m 365 151 b 271 224 281 151 271 165 b 351 303 271 293 282 303 l 469 303 l 469 275 b 456 189 469 236 465 208 b 365 151 440 161 413 151 z "},"ǎ":{"ha":786,"x_min":0,"x_max":0,"o":"m 289 799 l 504 799 l 635 990 l 635 1000 l 485 1000 l 397 890 l 310 1000 l 160 1000 l 160 990 z m 254 -11 b 463 82 329 -11 408 -3 l 474 82 l 479 0 l 703 0 l 703 426 b 374 719 703 625 678 719 b 93 696 267 719 168 710 l 93 535 b 300 544 144 539 236 544 b 469 439 449 544 469 542 l 469 414 b 276 419 407 417 310 419 b 51 203 97 419 51 363 b 254 -11 51 49 121 -11 z m 365 151 b 271 224 281 151 271 165 b 351 303 271 293 282 303 l 469 303 l 469 275 b 456 189 469 236 465 208 b 365 151 440 161 413 151 z "},"â":{"ha":786,"x_min":0,"x_max":0,"o":"m 160 799 l 310 799 l 396 908 l 485 799 l 635 799 l 635 808 l 504 1000 l 289 1000 l 160 808 z m 254 -11 b 463 82 329 -11 408 -3 l 474 82 l 479 0 l 703 0 l 703 426 b 374 719 703 625 678 719 b 93 696 267 719 168 710 l 93 535 b 300 544 144 539 236 544 b 469 439 449 544 469 542 l 469 414 b 276 419 407 417 310 419 b 51 203 97 419 51 363 b 254 -11 51 49 121 -11 z m 365 151 b 271 224 281 151 271 165 b 351 303 271 293 282 303 l 469 303 l 469 275 b 456 189 469 236 465 208 b 365 151 440 161 413 151 z "},"ấ":{"ha":786,"x_min":0,"x_max":0,"o":"m 274 1046 l 439 1046 l 625 1240 l 625 1247 l 400 1247 l 274 1053 z m 160 799 l 310 799 l 396 908 l 485 799 l 635 799 l 635 808 l 504 1000 l 289 1000 l 160 808 z m 254 -11 b 463 82 329 -11 408 -3 l 474 82 l 479 0 l 703 0 l 703 426 b 374 719 703 625 678 719 b 93 696 267 719 168 710 l 93 535 b 300 544 144 539 236 544 b 469 439 449 544 469 542 l 469 414 b 276 419 407 417 310 419 b 51 203 97 419 51 363 b 254 -11 51 49 121 -11 z m 365 151 b 271 224 281 151 271 165 b 351 303 271 293 282 303 l 469 303 l 469 275 b 456 189 469 236 465 208 b 365 151 440 161 413 151 z "},"ậ":{"ha":786,"x_min":0,"x_max":0,"o":"m 160 799 l 310 799 l 396 908 l 485 799 l 635 799 l 635 808 l 504 1000 l 289 1000 l 160 808 z m 254 -11 b 463 82 329 -11 408 -3 l 474 82 l 479 0 l 703 0 l 703 426 b 374 719 703 625 678 719 b 93 696 267 719 168 710 l 93 535 b 300 544 144 539 236 544 b 469 439 449 544 469 542 l 469 414 b 276 419 407 417 310 419 b 51 203 97 419 51 363 b 254 -11 51 49 121 -11 z m 365 151 b 271 224 281 151 271 165 b 351 303 271 293 282 303 l 469 303 l 469 275 b 456 189 469 236 465 208 b 365 151 440 161 413 151 z m 303 -299 l 485 -299 l 485 -132 l 303 -132 z "},"ầ":{"ha":786,"x_min":0,"x_max":0,"o":"m 338 1046 l 503 1046 l 503 1053 l 376 1247 l 153 1247 l 153 1240 z m 160 799 l 310 799 l 396 908 l 485 799 l 635 799 l 635 808 l 504 1000 l 289 1000 l 160 808 z m 254 -11 b 463 82 329 -11 408 -3 l 474 82 l 479 0 l 703 0 l 703 426 b 374 719 703 625 678 719 b 93 696 267 719 168 710 l 93 535 b 300 544 144 539 236 544 b 469 439 449 544 469 542 l 469 414 b 276 419 407 417 310 419 b 51 203 97 419 51 363 b 254 -11 51 49 121 -11 z m 365 151 b 271 224 281 151 271 165 b 351 303 271 293 282 303 l 469 303 l 469 275 b 456 189 469 236 465 208 b 365 151 440 161 413 151 z "},"ẩ":{"ha":786,"x_min":0,"x_max":0,"o":"m 310 1033 l 431 1033 b 475 1074 431 1056 436 1063 l 496 1081 b 597 1197 575 1103 597 1124 b 397 1333 597 1326 513 1333 b 217 1319 340 1333 264 1328 l 217 1215 b 361 1222 254 1219 325 1222 b 450 1182 433 1222 450 1221 b 401 1140 450 1157 443 1153 l 376 1133 b 310 1040 321 1118 310 1093 z m 160 799 l 310 799 l 396 908 l 485 799 l 635 799 l 635 808 l 504 1000 l 289 1000 l 160 808 z m 254 -11 b 463 82 329 -11 408 -3 l 474 82 l 479 0 l 703 0 l 703 426 b 374 719 703 625 678 719 b 93 696 267 719 168 710 l 93 535 b 300 544 144 539 236 544 b 469 439 449 544 469 542 l 469 414 b 276 419 407 417 310 419 b 51 203 97 419 51 363 b 254 -11 51 49 121 -11 z m 365 151 b 271 224 281 151 271 165 b 351 303 271 293 282 303 l 469 303 l 469 275 b 456 189 469 236 465 208 b 365 151 440 161 413 151 z "},"ẫ":{"ha":786,"x_min":0,"x_max":0,"o":"m 129 1039 l 244 1039 b 279 1099 244 1083 244 1099 b 375 1081 303 1099 338 1089 b 532 1054 422 1069 476 1054 b 663 1254 658 1054 663 1128 l 547 1254 b 513 1194 547 1210 547 1194 b 417 1213 486 1194 454 1204 b 260 1238 369 1224 314 1238 b 129 1039 132 1238 129 1165 z m 160 799 l 310 799 l 396 908 l 483 799 l 635 799 l 635 808 l 504 1000 l 289 1000 l 160 808 z m 254 -11 b 463 82 329 -11 408 -3 l 474 82 l 479 0 l 703 0 l 703 426 b 374 719 703 625 678 719 b 93 696 267 719 168 710 l 93 535 b 300 544 144 539 236 544 b 469 439 449 544 469 542 l 469 414 b 276 419 407 417 310 419 b 51 203 97 419 51 363 b 254 -11 51 49 121 -11 z m 365 151 b 271 224 281 151 271 165 b 351 303 271 293 282 303 l 469 303 l 469 275 b 456 189 469 236 465 208 b 365 151 440 161 413 151 z "},"ȁ":{"ha":786,"x_min":0,"x_max":0,"o":"m 213 799 l 349 799 l 349 804 l 240 968 l 57 968 l 57 963 z m 478 799 l 613 799 l 613 804 l 506 968 l 322 968 l 322 963 z m 254 -11 b 463 82 329 -11 408 -3 l 474 82 l 479 0 l 703 0 l 703 426 b 374 719 703 625 678 719 b 93 696 267 719 168 710 l 93 535 b 300 544 144 539 236 544 b 469 439 449 544 469 542 l 469 414 b 276 419 407 417 310 419 b 51 203 97 419 51 363 b 254 -11 51 49 121 -11 z m 365 151 b 271 224 281 151 271 165 b 351 303 271 293 282 303 l 469 303 l 469 275 b 456 189 469 236 465 208 b 365 151 440 161 413 151 z "},"ä":{"ha":786,"x_min":0,"x_max":0,"o":"m 153 822 l 342 822 l 342 976 l 153 976 z m 450 822 l 639 822 l 639 976 l 450 976 z m 254 -11 b 463 82 329 -11 408 -3 l 474 82 l 479 0 l 703 0 l 703 426 b 374 719 703 625 678 719 b 93 696 267 719 168 710 l 93 535 b 300 544 144 539 236 544 b 469 439 449 544 469 542 l 469 414 b 276 419 407 417 310 419 b 51 203 97 419 51 363 b 254 -11 51 49 121 -11 z m 365 151 b 271 224 281 151 271 165 b 351 303 271 293 282 303 l 469 303 l 469 275 b 456 189 469 236 465 208 b 365 151 440 161 413 151 z "},"ạ":{"ha":786,"x_min":0,"x_max":0,"o":"m 254 -11 b 463 82 329 -11 408 -3 l 474 82 l 479 0 l 703 0 l 703 426 b 374 719 703 625 678 719 b 93 696 267 719 168 710 l 93 535 b 300 544 144 539 236 544 b 469 439 449 544 469 542 l 469 414 b 276 419 407 417 310 419 b 51 203 97 419 51 363 b 254 -11 51 49 121 -11 z m 365 151 b 271 224 281 151 271 165 b 351 303 271 293 282 303 l 469 303 l 469 275 b 456 189 469 236 465 208 b 365 151 440 161 413 151 z m 303 -299 l 485 -299 l 485 -132 l 303 -132 z "},"à":{"ha":786,"x_min":0,"x_max":0,"o":"m 339 799 l 503 799 l 503 806 l 376 1000 l 153 1000 l 153 993 z m 254 -11 b 463 82 329 -11 408 -3 l 474 82 l 479 0 l 703 0 l 703 426 b 374 719 703 625 678 719 b 93 696 267 719 168 710 l 93 535 b 300 544 144 539 236 544 b 469 439 449 544 469 542 l 469 414 b 276 419 407 417 310 419 b 51 203 97 419 51 363 b 254 -11 51 49 121 -11 z m 365 151 b 271 224 281 151 271 165 b 351 303 271 293 282 303 l 469 303 l 469 275 b 456 189 469 236 465 208 b 365 151 440 161 413 151 z "},"ả":{"ha":786,"x_min":0,"x_max":0,"o":"m 308 786 l 429 786 b 475 826 429 808 435 815 l 496 833 b 596 950 574 856 596 876 b 396 1086 596 1079 511 1086 b 215 1072 340 1086 264 1081 l 215 968 b 360 975 253 972 325 975 b 449 935 432 975 449 974 b 400 893 449 910 442 906 l 376 886 b 308 793 319 871 308 846 z m 254 -11 b 463 82 329 -11 408 -3 l 474 82 l 479 0 l 703 0 l 703 426 b 374 719 703 625 678 719 b 93 696 267 719 168 710 l 93 535 b 300 544 144 539 236 544 b 469 439 449 544 469 542 l 469 414 b 276 419 407 417 310 419 b 51 203 97 419 51 363 b 254 -11 51 49 121 -11 z m 365 151 b 271 224 281 151 271 165 b 351 303 271 293 282 303 l 469 303 l 469 275 b 456 189 469 236 465 208 b 365 151 440 161 413 151 z "},"ȃ":{"ha":786,"x_min":0,"x_max":0,"o":"m 397 1010 b 182 801 210 1010 182 924 l 310 801 b 397 888 310 853 311 888 b 482 801 482 888 482 853 l 608 801 b 397 1010 608 924 583 1010 z m 254 -11 b 463 82 329 -11 408 -3 l 474 82 l 479 0 l 703 0 l 703 426 b 374 719 703 625 678 719 b 93 696 267 719 168 710 l 93 535 b 300 544 144 539 236 544 b 469 439 449 544 469 542 l 469 414 b 276 419 407 417 310 419 b 51 203 97 419 51 363 b 254 -11 51 49 121 -11 z m 365 151 b 271 224 281 151 271 165 b 351 303 271 293 282 303 l 469 303 l 469 275 b 456 189 469 236 465 208 b 365 151 440 161 413 151 z "},"ā":{"ha":786,"x_min":0,"x_max":0,"o":"m 164 822 l 628 822 l 628 956 l 164 956 z m 254 -11 b 463 82 329 -11 408 -3 l 474 82 l 479 0 l 703 0 l 703 426 b 374 719 703 625 678 719 b 93 696 267 719 168 710 l 93 535 b 300 544 144 539 236 544 b 469 439 449 544 469 542 l 469 414 b 276 419 407 417 310 419 b 51 203 97 419 51 363 b 254 -11 51 49 121 -11 z m 365 151 b 271 224 281 151 271 165 b 351 303 271 293 282 303 l 469 303 l 469 275 b 456 189 469 236 465 208 b 365 151 440 161 413 151 z "},"ą":{"ha":786,"x_min":0,"x_max":0,"o":"m 682 -160 b 617 -112 629 -160 617 -140 b 704 0 617 -72 668 -21 l 703 0 l 703 426 b 374 719 703 625 678 719 b 93 696 267 719 168 710 l 93 535 b 300 544 144 539 236 544 b 469 439 449 544 469 542 l 469 414 b 276 419 407 417 310 419 b 51 203 97 419 51 363 b 254 -11 51 49 121 -11 b 463 82 329 -11 408 -3 l 474 82 l 479 0 l 517 0 b 428 -160 464 -49 428 -107 b 607 -278 428 -222 465 -278 b 706 -272 638 -278 678 -275 l 706 -158 b 682 -160 694 -160 686 -160 z m 469 275 b 456 189 469 236 465 208 b 365 151 440 161 413 151 b 271 224 281 151 271 165 b 351 303 271 293 282 303 l 469 303 z "},"å":{"ha":786,"x_min":0,"x_max":0,"o":"m 394 779 b 600 943 583 779 600 824 b 394 1108 600 1063 583 1108 b 190 943 207 1108 190 1063 b 394 779 190 824 207 779 z m 394 871 b 311 943 313 871 311 886 b 394 1017 311 1000 313 1017 b 478 943 478 1017 478 1000 b 394 871 478 886 478 871 z m 254 -11 b 463 82 329 -11 408 -3 l 474 82 l 479 0 l 703 0 l 703 426 b 374 719 703 625 678 719 b 93 696 267 719 168 710 l 93 535 b 300 544 144 539 236 544 b 469 439 449 544 469 542 l 469 414 b 276 419 407 417 310 419 b 51 203 97 419 51 363 b 254 -11 51 49 121 -11 z m 365 151 b 271 224 281 151 271 165 b 351 303 271 293 282 303 l 469 303 l 469 275 b 456 189 469 236 465 208 b 365 151 440 161 413 151 z "},"ǻ":{"ha":786,"x_min":0,"x_max":0,"o":"m 274 1167 l 439 1167 l 624 1361 l 624 1368 l 400 1368 l 274 1174 z m 394 779 b 600 943 583 779 600 824 b 394 1108 600 1063 583 1108 b 190 943 207 1108 190 1063 b 394 779 190 824 207 779 z m 394 871 b 311 943 313 871 311 886 b 394 1017 311 1000 313 1017 b 478 943 478 1017 478 1000 b 394 871 478 886 478 871 z m 254 -11 b 463 82 329 -11 408 -3 l 474 82 l 479 0 l 703 0 l 703 426 b 374 719 703 625 678 719 b 93 696 267 719 168 710 l 93 535 b 300 544 144 539 236 544 b 469 439 449 544 469 542 l 469 414 b 276 419 407 417 310 419 b 51 203 97 419 51 363 b 254 -11 51 49 121 -11 z m 365 151 b 271 224 281 151 271 165 b 351 303 271 293 282 303 l 469 303 l 469 275 b 456 189 469 236 465 208 b 365 151 440 161 413 151 z "},"ã":{"ha":786,"x_min":0,"x_max":0,"o":"m 129 792 l 244 792 b 279 851 244 836 244 851 b 375 833 303 851 338 842 b 532 807 422 822 476 807 b 663 1007 658 807 663 881 l 547 1007 b 513 947 547 963 547 947 b 417 965 486 947 454 957 b 260 990 369 976 314 990 b 129 792 132 990 129 918 z m 254 -11 b 463 82 329 -11 408 -3 l 474 82 l 479 0 l 703 0 l 703 426 b 374 719 703 625 678 719 b 93 696 267 719 168 710 l 93 535 b 300 544 144 539 236 544 b 469 439 449 544 469 542 l 469 414 b 276 419 407 417 310 419 b 51 203 97 419 51 363 b 254 -11 51 49 121 -11 z m 365 151 b 271 224 281 151 271 165 b 351 303 271 293 282 303 l 469 303 l 469 275 b 456 189 469 236 465 208 b 365 151 440 161 413 151 z "},"æ":{"ha":1190,"x_min":0,"x_max":0,"o":"m 1126 353 b 824 719 1126 618 1121 719 b 593 663 721 719 646 701 b 360 719 543 701 468 719 b 93 696 249 719 156 707 l 93 535 b 300 544 147 540 242 544 b 469 439 449 544 469 542 l 469 414 b 276 419 407 417 310 419 b 51 203 97 419 51 363 b 303 -11 51 49 111 -11 b 561 57 393 -11 489 -6 b 832 -11 608 10 690 -11 b 1099 14 928 -11 1039 -1 l 1099 174 b 886 163 1028 168 939 163 b 704 300 714 163 704 176 l 1126 300 z m 808 557 b 908 414 893 557 906 544 l 704 414 b 808 557 706 540 717 557 z m 469 275 b 461 201 469 244 467 222 b 365 151 449 165 419 151 b 271 224 281 151 271 165 b 351 300 271 293 282 300 l 469 300 z "},"ǽ":{"ha":1190,"x_min":0,"x_max":0,"o":"m 822 993 l 822 1000 l 599 1000 l 472 806 l 472 799 l 638 799 z m 1126 353 b 824 719 1126 618 1121 719 b 593 663 721 719 646 701 b 360 719 543 701 468 719 b 93 696 249 719 156 707 l 93 535 b 300 544 147 540 242 544 b 469 439 449 544 469 542 l 469 414 b 276 419 407 417 310 419 b 51 203 97 419 51 363 b 303 -11 51 49 111 -11 b 561 57 393 -11 489 -6 b 832 -11 608 10 690 -11 b 1099 14 928 -11 1039 -1 l 1099 174 b 886 163 1028 168 939 163 b 704 300 714 163 704 176 l 1126 300 z m 808 557 b 908 414 893 557 906 544 l 704 414 b 808 557 706 540 717 557 z m 469 275 b 461 201 469 244 467 222 b 365 151 449 165 419 151 b 271 224 281 151 271 165 b 351 300 271 293 282 300 l 469 300 z "},"b":{"ha":811,"x_min":0,"x_max":0,"o":"m 522 -11 b 753 353 686 -11 753 67 b 522 718 753 638 686 718 b 326 633 442 718 372 706 l 315 633 l 315 1032 l 82 1032 l 82 0 l 304 0 l 310 83 l 322 83 b 522 -11 365 4 443 -11 z m 417 178 b 332 215 369 178 344 186 b 315 354 318 243 315 289 b 332 493 315 419 318 464 b 417 529 344 522 369 529 b 519 354 511 529 519 517 b 417 178 519 190 511 178 z "},"c":{"ha":644,"x_min":0,"x_max":0,"o":"m 369 -11 b 589 13 443 -11 525 -1 l 589 174 b 433 164 539 168 478 164 b 296 354 308 164 296 190 b 432 544 296 515 307 544 b 583 535 482 544 546 540 l 583 696 b 368 719 522 711 444 719 b 60 354 76 719 60 581 b 369 -11 60 124 74 -11 z "},"ć":{"ha":644,"x_min":0,"x_max":0,"o":"m 221 799 l 386 799 l 571 993 l 571 1000 l 347 1000 l 221 806 z m 369 -11 b 589 13 443 -11 525 -1 l 589 174 b 433 164 539 168 478 164 b 296 354 308 164 296 190 b 432 544 296 515 307 544 b 583 535 482 544 546 540 l 583 696 b 368 719 522 711 444 719 b 60 354 76 719 60 581 b 369 -11 60 124 74 -11 z "},"č":{"ha":644,"x_min":0,"x_max":0,"o":"m 235 799 l 450 799 l 581 990 l 581 1000 l 431 1000 l 343 890 l 256 1000 l 106 1000 l 106 990 z m 369 -11 b 589 13 443 -11 525 -1 l 589 174 b 433 164 539 168 478 164 b 296 354 308 164 296 190 b 432 544 296 515 307 544 b 583 535 482 544 546 540 l 583 696 b 368 719 522 711 444 719 b 60 354 76 719 60 581 b 369 -11 60 124 74 -11 z "},"ç":{"ha":644,"x_min":0,"x_max":0,"o":"m 589 174 b 433 164 539 168 478 164 b 296 354 308 164 296 190 b 432 544 296 515 307 544 b 583 535 482 544 546 540 l 583 696 b 368 719 522 711 444 719 b 60 354 76 719 60 581 b 300 -8 60 143 71 13 l 201 -257 l 201 -264 l 413 -264 l 460 -7 b 589 13 506 -3 550 4 z "},"ĉ":{"ha":644,"x_min":0,"x_max":0,"o":"m 106 799 l 256 799 l 342 908 l 431 799 l 581 799 l 581 808 l 450 1000 l 235 1000 l 106 808 z m 369 -11 b 589 13 443 -11 525 -1 l 589 174 b 433 164 539 168 478 164 b 296 354 308 164 296 190 b 432 544 296 515 307 544 b 583 535 482 544 546 540 l 583 696 b 368 719 522 711 444 719 b 60 354 76 719 60 581 b 369 -11 60 124 74 -11 z "},"ċ":{"ha":644,"x_min":0,"x_max":0,"o":"m 249 822 l 438 822 l 438 976 l 249 976 z m 369 -11 b 589 13 443 -11 525 -1 l 589 174 b 433 164 539 168 478 164 b 296 354 308 164 296 190 b 432 544 296 515 307 544 b 583 535 482 544 546 540 l 583 696 b 368 719 522 711 444 719 b 60 354 76 719 60 581 b 369 -11 60 124 74 -11 z "},"d":{"ha":811,"x_min":0,"x_max":0,"o":"m 289 -11 b 489 83 368 -11 447 4 l 501 83 l 507 0 l 729 0 l 729 1032 l 496 1032 l 496 633 l 485 633 b 289 718 439 706 369 718 b 60 351 125 718 60 638 b 289 -11 60 67 126 -11 z m 396 178 b 293 354 300 178 293 190 b 396 529 293 517 300 529 b 485 478 449 529 475 518 b 496 354 494 450 496 410 b 485 225 496 297 494 257 b 396 178 474 189 449 178 z "},"ð":{"ha":797,"x_min":0,"x_max":0,"o":"m 397 -11 b 736 361 719 -11 736 71 b 717 606 736 456 729 536 b 635 846 699 703 671 781 l 719 860 l 719 989 l 546 964 b 478 1032 525 988 504 1010 l 228 1032 l 228 1026 b 326 932 260 1000 293 968 l 235 919 l 235 790 l 408 814 b 458 707 428 782 444 746 l 451 701 b 319 719 413 711 376 719 b 60 354 82 719 60 611 b 397 -11 60 74 76 -11 z m 397 163 b 293 354 293 163 293 178 b 397 544 293 529 293 544 b 503 354 503 544 503 521 b 397 163 503 178 503 163 z "},"ď":{"ha":811,"x_min":0,"x_max":0,"o":"m 289 -11 b 489 83 368 -11 447 4 l 501 83 l 507 0 l 729 0 l 729 1032 l 496 1032 l 496 633 l 485 633 b 289 718 439 706 369 718 b 60 351 125 718 60 638 b 289 -11 60 67 126 -11 z m 771 594 l 900 594 l 967 879 l 967 956 l 788 956 l 788 879 z m 396 178 b 293 354 300 178 293 190 b 396 529 293 517 300 529 b 485 478 449 529 475 518 b 496 354 494 450 496 410 b 485 225 496 297 494 257 b 396 178 474 189 449 178 z "},"đ":{"ha":811,"x_min":0,"x_max":0,"o":"m 811 956 l 729 956 l 729 1032 l 496 1032 l 496 956 l 328 956 l 328 839 l 496 839 l 496 633 l 485 633 b 289 718 439 706 369 718 b 60 351 125 718 60 638 b 289 -11 60 67 126 -11 b 489 83 368 -11 447 4 l 501 83 l 507 0 l 729 0 l 729 839 l 811 839 z m 485 225 b 396 178 474 189 449 178 b 293 354 300 178 293 190 b 396 529 293 517 300 529 b 485 478 449 529 475 518 b 496 354 494 450 496 410 b 485 225 496 297 494 257 z "},"ḍ":{"ha":811,"x_min":0,"x_max":0,"o":"m 289 -11 b 489 83 368 -11 447 4 l 501 83 l 507 0 l 729 0 l 729 1032 l 496 1032 l 496 633 l 485 633 b 289 718 439 706 369 718 b 60 351 125 718 60 638 b 289 -11 60 67 126 -11 z m 396 178 b 293 354 300 178 293 190 b 396 529 293 517 300 529 b 485 478 449 529 475 518 b 496 354 494 450 496 410 b 485 225 496 297 494 257 b 396 178 474 189 449 178 z m 315 -299 l 497 -299 l 497 -132 l 315 -132 z "},"ǳ":{"ha":1544,"x_min":0,"x_max":0,"o":"m 289 -11 b 489 83 368 -11 447 4 l 501 83 l 507 0 l 729 0 l 729 1032 l 496 1032 l 496 633 l 485 633 b 289 718 439 706 369 718 b 60 351 125 718 60 638 b 289 -11 60 67 126 -11 z m 869 0 l 1485 0 l 1485 175 l 1164 175 l 1482 544 l 1482 708 l 886 708 l 886 533 l 1189 533 l 869 164 z m 396 178 b 293 354 300 178 293 190 b 396 529 293 517 300 529 b 485 478 449 529 475 518 b 496 354 494 450 496 410 b 485 225 496 297 494 257 b 396 178 474 189 449 178 z "},"ǆ":{"ha":1544,"x_min":0,"x_max":0,"o":"m 289 -11 b 489 83 368 -11 447 4 l 501 83 l 507 0 l 729 0 l 729 1032 l 496 1032 l 496 633 l 485 633 b 289 718 439 706 369 718 b 60 351 125 718 60 638 b 289 -11 60 67 126 -11 z m 1079 799 l 1294 799 l 1425 990 l 1425 1000 l 1275 1000 l 1188 890 l 1100 1000 l 950 1000 l 950 990 z m 869 0 l 1485 0 l 1485 175 l 1164 175 l 1482 544 l 1482 708 l 886 708 l 886 533 l 1189 533 l 869 164 z m 396 178 b 293 354 300 178 293 190 b 396 529 293 517 300 529 b 485 478 449 529 475 518 b 496 354 494 450 496 410 b 485 225 496 297 494 257 b 396 178 474 189 449 178 z "},"e":{"ha":775,"x_min":0,"x_max":0,"o":"m 711 353 b 394 719 711 618 706 719 b 60 353 83 719 60 611 b 417 -11 60 90 81 -11 b 683 14 513 -11 625 -1 l 683 174 b 472 163 613 168 525 163 b 290 299 300 163 290 175 l 711 299 z m 393 557 b 493 414 475 557 493 546 l 290 414 b 393 557 290 540 303 557 z "},"é":{"ha":775,"x_min":0,"x_max":0,"o":"m 622 993 l 622 1000 l 399 1000 l 272 806 l 272 799 l 438 799 z m 711 353 b 394 719 711 618 706 719 b 60 353 83 719 60 611 b 417 -11 60 90 81 -11 b 683 14 513 -11 625 -1 l 683 174 b 472 163 613 168 525 163 b 290 299 300 163 290 175 l 711 299 z m 393 557 b 493 414 475 557 493 546 l 290 414 b 393 557 290 540 303 557 z "},"ĕ":{"ha":775,"x_min":0,"x_max":0,"o":"m 393 790 b 607 997 581 790 607 876 l 479 997 b 393 913 479 947 478 913 b 307 997 307 913 307 947 l 181 997 b 393 790 181 876 206 790 z m 711 353 b 394 719 711 618 706 719 b 60 353 83 719 60 611 b 417 -11 60 90 81 -11 b 683 14 513 -11 625 -1 l 683 174 b 472 163 613 168 525 163 b 290 299 300 163 290 175 l 711 299 z m 393 557 b 493 414 475 557 493 546 l 290 414 b 393 557 290 540 303 557 z "},"ě":{"ha":775,"x_min":0,"x_max":0,"o":"m 501 799 l 632 990 l 632 1000 l 482 1000 l 394 890 l 307 1000 l 157 1000 l 157 990 l 286 799 z m 711 353 b 394 719 711 618 706 719 b 60 353 83 719 60 611 b 417 -11 60 90 81 -11 b 683 14 513 -11 625 -1 l 683 174 b 472 163 613 168 525 163 b 290 299 300 163 290 175 l 711 299 z m 393 557 b 493 414 475 557 493 546 l 290 414 b 393 557 290 540 303 557 z "},"ê":{"ha":775,"x_min":0,"x_max":0,"o":"m 393 908 l 482 799 l 632 799 l 632 808 l 501 1000 l 286 1000 l 157 808 l 157 799 l 307 799 z m 711 353 b 394 719 711 618 706 719 b 60 353 83 719 60 611 b 417 -11 60 90 81 -11 b 683 14 513 -11 625 -1 l 683 174 b 472 163 613 168 525 163 b 290 299 300 163 290 175 l 711 299 z m 393 557 b 493 414 475 557 493 546 l 290 414 b 393 557 290 540 303 557 z "},"ế":{"ha":775,"x_min":0,"x_max":0,"o":"m 622 1240 l 622 1247 l 397 1247 l 271 1053 l 271 1046 l 436 1046 z m 393 908 l 482 799 l 632 799 l 632 808 l 501 1000 l 286 1000 l 157 808 l 157 799 l 307 799 z m 711 353 b 394 719 711 618 706 719 b 60 353 83 719 60 611 b 417 -11 60 90 81 -11 b 683 14 513 -11 625 -1 l 683 174 b 472 163 613 168 525 163 b 290 299 300 163 290 175 l 711 299 z m 393 557 b 493 414 475 557 493 546 l 290 414 b 393 557 290 540 303 557 z "},"ệ":{"ha":775,"x_min":0,"x_max":0,"o":"m 393 908 l 482 799 l 632 799 l 632 808 l 501 1000 l 286 1000 l 157 808 l 157 799 l 307 799 z m 711 353 b 394 719 711 618 706 719 b 60 353 83 719 60 611 b 417 -11 60 90 81 -11 b 683 14 513 -11 625 -1 l 683 174 b 472 163 613 168 525 163 b 290 299 300 163 290 175 l 711 299 z m 393 557 b 493 414 475 557 493 546 l 290 414 b 393 557 290 540 303 557 z m 297 -299 l 479 -299 l 479 -132 l 297 -132 z "},"ề":{"ha":775,"x_min":0,"x_max":0,"o":"m 500 1046 l 500 1053 l 374 1247 l 150 1247 l 150 1240 l 335 1046 z m 157 808 l 157 799 l 307 799 l 393 908 l 482 799 l 632 799 l 632 808 l 501 1000 l 286 1000 z m 711 353 b 394 719 711 618 706 719 b 60 353 83 719 60 611 b 417 -11 60 90 81 -11 b 683 14 513 -11 625 -1 l 683 174 b 472 163 613 168 525 163 b 290 299 300 163 290 175 l 711 299 z m 393 557 b 493 414 475 557 493 546 l 290 414 b 393 557 290 540 303 557 z "},"ể":{"ha":775,"x_min":0,"x_max":0,"o":"m 447 1182 b 399 1140 447 1157 440 1153 l 374 1133 b 307 1040 318 1118 307 1093 l 307 1033 l 428 1033 b 472 1074 428 1056 433 1063 l 493 1081 b 594 1197 572 1103 594 1124 b 394 1333 594 1326 510 1333 b 214 1319 338 1333 261 1328 l 214 1215 b 358 1222 251 1219 322 1222 b 447 1182 431 1222 447 1221 z m 393 908 l 482 799 l 632 799 l 632 808 l 501 1000 l 286 1000 l 157 808 l 157 799 l 307 799 z m 711 353 b 394 719 711 618 706 719 b 60 353 83 719 60 611 b 417 -11 60 90 81 -11 b 683 14 513 -11 625 -1 l 683 174 b 472 163 613 168 525 163 b 290 299 300 163 290 175 l 711 299 z m 393 557 b 493 414 475 557 493 546 l 290 414 b 393 557 290 540 303 557 z "},"ễ":{"ha":775,"x_min":0,"x_max":0,"o":"m 276 1099 b 372 1081 300 1099 335 1089 b 529 1054 419 1069 474 1054 b 660 1254 656 1054 660 1128 l 544 1254 b 510 1194 544 1210 544 1194 b 414 1213 483 1194 451 1204 b 257 1238 367 1224 311 1238 b 126 1039 129 1238 126 1165 l 242 1039 b 276 1099 242 1083 242 1099 z m 286 1000 l 157 808 l 157 799 l 307 799 l 393 908 l 481 799 l 632 799 l 632 808 l 501 1000 z m 711 353 b 394 719 711 618 706 719 b 60 353 83 719 60 611 b 417 -11 60 90 81 -11 b 683 14 513 -11 625 -1 l 683 174 b 472 163 613 168 525 163 b 290 299 300 163 290 175 l 711 299 z m 393 557 b 493 414 475 557 493 546 l 290 414 b 393 557 290 540 303 557 z "},"ȅ":{"ha":775,"x_min":0,"x_max":0,"o":"m 347 799 l 347 804 l 239 968 l 56 968 l 56 963 l 211 799 z m 611 799 l 611 804 l 504 968 l 321 968 l 321 963 l 476 799 z m 711 353 b 394 719 711 618 706 719 b 60 353 83 719 60 611 b 417 -11 60 90 81 -11 b 683 14 513 -11 625 -1 l 683 174 b 472 163 613 168 525 163 b 290 299 300 163 290 175 l 711 299 z m 393 557 b 493 414 475 557 493 546 l 290 414 b 393 557 290 540 303 557 z "},"ë":{"ha":775,"x_min":0,"x_max":0,"o":"m 340 976 l 151 976 l 151 822 l 340 822 z m 638 976 l 449 976 l 449 822 l 638 822 z m 711 353 b 394 719 711 618 706 719 b 60 353 83 719 60 611 b 417 -11 60 90 81 -11 b 683 14 513 -11 625 -1 l 683 174 b 472 163 613 168 525 163 b 290 299 300 163 290 175 l 711 299 z m 393 557 b 493 414 475 557 493 546 l 290 414 b 393 557 290 540 303 557 z "},"ė":{"ha":775,"x_min":0,"x_max":0,"o":"m 489 976 l 300 976 l 300 822 l 489 822 z m 711 353 b 394 719 711 618 706 719 b 60 353 83 719 60 611 b 417 -11 60 90 81 -11 b 683 14 513 -11 625 -1 l 683 174 b 472 163 613 168 525 163 b 290 299 300 163 290 175 l 711 299 z m 393 557 b 493 414 475 557 493 546 l 290 414 b 393 557 290 540 303 557 z "},"ẹ":{"ha":775,"x_min":0,"x_max":0,"o":"m 711 353 b 394 719 711 618 706 719 b 60 353 83 719 60 611 b 417 -11 60 90 81 -11 b 683 14 513 -11 625 -1 l 683 174 b 472 163 613 168 525 163 b 290 299 300 163 290 175 l 711 299 z m 393 557 b 493 414 475 557 493 546 l 290 414 b 393 557 290 540 303 557 z m 297 -299 l 479 -299 l 479 -132 l 297 -132 z "},"è":{"ha":775,"x_min":0,"x_max":0,"o":"m 500 799 l 500 806 l 374 1000 l 150 1000 l 150 993 l 336 799 z m 711 353 b 394 719 711 618 706 719 b 60 353 83 719 60 611 b 417 -11 60 90 81 -11 b 683 14 513 -11 625 -1 l 683 174 b 472 163 613 168 525 163 b 290 299 300 163 290 175 l 711 299 z m 393 557 b 493 414 475 557 493 546 l 290 414 b 393 557 290 540 303 557 z "},"ẻ":{"ha":775,"x_min":0,"x_max":0,"o":"m 447 935 b 399 893 447 910 440 906 l 375 886 b 307 793 318 871 307 846 l 307 786 l 428 786 b 474 826 428 808 433 815 l 494 833 b 594 950 572 856 594 876 b 394 1086 594 1079 510 1086 b 214 1072 339 1086 263 1081 l 214 968 b 358 975 251 972 324 975 b 447 935 431 975 447 974 z m 711 353 b 394 719 711 618 706 719 b 60 353 83 719 60 611 b 417 -11 60 90 81 -11 b 683 14 513 -11 625 -1 l 683 174 b 472 163 613 168 525 163 b 290 299 300 163 290 175 l 711 299 z m 393 557 b 493 414 475 557 493 546 l 290 414 b 393 557 290 540 303 557 z "},"ȇ":{"ha":775,"x_min":0,"x_max":0,"o":"m 396 888 b 481 801 481 888 481 853 l 607 801 b 396 1010 607 924 582 1010 b 181 801 208 1010 181 924 l 308 801 b 396 888 308 853 310 888 z m 711 353 b 394 719 711 618 706 719 b 60 353 83 719 60 611 b 417 -11 60 90 81 -11 b 683 14 513 -11 625 -1 l 683 174 b 472 163 613 168 525 163 b 290 299 300 163 290 175 l 711 299 z m 393 557 b 493 414 475 557 493 546 l 290 414 b 393 557 290 540 303 557 z "},"ē":{"ha":775,"x_min":0,"x_max":0,"o":"m 626 956 l 163 956 l 163 822 l 626 822 z m 711 353 b 394 719 711 618 706 719 b 60 353 83 719 60 611 b 417 -11 60 90 81 -11 b 683 14 513 -11 625 -1 l 683 174 b 472 163 613 168 525 163 b 290 299 300 163 290 175 l 711 299 z m 393 557 b 493 414 475 557 493 546 l 290 414 b 393 557 290 540 303 557 z "},"ę":{"ha":775,"x_min":0,"x_max":0,"o":"m 711 353 b 394 719 711 618 706 719 b 60 353 83 719 60 611 b 417 -11 60 90 81 -11 b 471 -10 435 -11 453 -11 b 407 -146 432 -53 407 -101 b 586 -264 407 -208 444 -264 b 685 -258 617 -264 657 -261 l 685 -144 b 661 -146 674 -146 665 -146 b 596 -99 608 -146 596 -126 b 683 14 596 -58 647 -7 l 683 174 b 472 163 613 168 525 163 b 290 299 300 163 290 175 l 711 299 z m 393 557 b 493 414 475 557 493 546 l 290 414 b 393 557 290 540 303 557 z "},"ẽ":{"ha":775,"x_min":0,"x_max":0,"o":"m 276 851 b 372 833 300 851 335 842 b 529 807 419 822 474 807 b 660 1007 656 807 660 881 l 544 1007 b 510 947 544 963 544 947 b 414 965 483 947 451 957 b 257 990 367 976 311 990 b 126 792 129 990 126 918 l 242 792 b 276 851 242 836 242 851 z m 711 353 b 394 719 711 618 706 719 b 60 353 83 719 60 611 b 417 -11 60 90 81 -11 b 683 14 513 -11 625 -1 l 683 174 b 472 163 613 168 525 163 b 290 299 300 163 290 175 l 711 299 z m 393 557 b 493 414 475 557 493 546 l 290 414 b 393 557 290 540 303 557 z "},"ə":{"ha":775,"x_min":0,"x_max":0,"o":"m 358 719 b 92 694 263 719 150 710 l 92 535 b 303 546 163 540 250 546 b 485 410 475 546 485 533 l 64 410 l 64 356 b 381 -11 64 90 69 -11 b 715 356 692 -11 715 97 b 358 719 715 618 694 719 z m 382 151 b 282 294 300 151 282 163 l 485 294 b 382 151 485 168 472 151 z "},"f":{"ha":593,"x_min":0,"x_max":0,"o":"m 156 0 l 392 0 l 392 533 l 558 533 l 558 708 l 392 708 l 392 785 b 558 872 392 865 406 872 l 558 1031 b 156 753 225 1031 156 1024 l 156 708 l 28 708 l 28 533 l 156 533 z "},"g":{"ha":811,"x_min":0,"x_max":0,"o":"m 369 -286 b 729 81 707 -286 729 -168 l 729 708 l 507 708 l 501 624 l 489 624 b 290 719 447 703 367 719 b 60 361 126 719 60 643 b 292 4 60 82 125 4 b 485 90 372 4 442 19 l 496 90 l 496 39 b 308 -111 496 -96 488 -111 b 117 -108 247 -111 174 -110 l 117 -268 b 369 -286 172 -278 278 -286 z m 396 192 b 293 361 300 192 293 204 b 396 531 293 518 300 531 b 482 486 446 531 471 521 b 496 361 494 460 496 418 b 482 233 496 301 494 261 b 396 192 469 201 446 192 z "},"ǵ":{"ha":811,"x_min":0,"x_max":0,"o":"m 283 799 l 449 799 l 633 993 l 633 1000 l 410 1000 l 283 806 z m 369 -286 b 729 81 707 -286 729 -168 l 729 708 l 507 708 l 501 624 l 489 624 b 290 719 447 703 367 719 b 60 361 126 719 60 643 b 292 4 60 82 125 4 b 485 90 372 4 442 19 l 496 90 l 496 39 b 308 -111 496 -96 488 -111 b 117 -108 247 -111 174 -110 l 117 -268 b 369 -286 172 -278 278 -286 z m 396 192 b 293 361 300 192 293 204 b 396 531 293 518 300 531 b 482 486 446 531 471 521 b 496 361 494 460 496 418 b 482 233 496 301 494 261 b 396 192 469 201 446 192 z "},"ğ":{"ha":811,"x_min":0,"x_max":0,"o":"m 404 790 b 618 997 592 790 618 876 l 490 997 b 404 913 490 947 489 913 b 318 997 318 913 318 947 l 192 997 b 404 790 192 876 217 790 z m 369 -286 b 729 81 707 -286 729 -168 l 729 708 l 507 708 l 501 624 l 489 624 b 290 719 447 703 367 719 b 60 361 126 719 60 643 b 292 4 60 82 125 4 b 485 90 372 4 442 19 l 496 90 l 496 39 b 308 -111 496 -96 488 -111 b 117 -108 247 -111 174 -110 l 117 -268 b 369 -286 172 -278 278 -286 z m 396 192 b 293 361 300 192 293 204 b 396 531 293 518 300 531 b 482 486 446 531 471 521 b 496 361 494 460 496 418 b 482 233 496 301 494 261 b 396 192 469 201 446 192 z "},"ǧ":{"ha":811,"x_min":0,"x_max":0,"o":"m 299 799 l 514 799 l 644 990 l 644 1000 l 494 1000 l 407 890 l 319 1000 l 169 1000 l 169 990 z m 369 -286 b 729 81 707 -286 729 -168 l 729 708 l 507 708 l 501 624 l 489 624 b 290 719 447 703 367 719 b 60 361 126 719 60 643 b 292 4 60 82 125 4 b 485 90 372 4 442 19 l 496 90 l 496 39 b 308 -111 496 -96 488 -111 b 117 -108 247 -111 174 -110 l 117 -268 b 369 -286 172 -278 278 -286 z m 396 192 b 293 361 300 192 293 204 b 396 531 293 518 300 531 b 482 486 446 531 471 521 b 496 361 494 460 496 418 b 482 233 496 301 494 261 b 396 192 469 201 446 192 z "},"ĝ":{"ha":811,"x_min":0,"x_max":0,"o":"m 169 799 l 319 799 l 406 908 l 494 799 l 644 799 l 644 808 l 514 1000 l 299 1000 l 169 808 z m 369 -286 b 729 81 707 -286 729 -168 l 729 708 l 507 708 l 501 624 l 489 624 b 290 719 447 703 367 719 b 60 361 126 719 60 643 b 292 4 60 82 125 4 b 485 90 372 4 442 19 l 496 90 l 496 39 b 308 -111 496 -96 488 -111 b 117 -108 247 -111 174 -110 l 117 -268 b 369 -286 172 -278 278 -286 z m 396 192 b 293 361 300 192 293 204 b 396 531 293 518 300 531 b 482 486 446 531 471 521 b 496 361 494 460 496 418 b 482 233 496 301 494 261 b 396 192 469 201 446 192 z "},"ģ":{"ha":811,"x_min":0,"x_max":0,"o":"m 290 799 l 522 799 l 522 963 l 438 963 l 438 979 b 532 1032 438 1021 453 1032 l 532 1117 b 290 908 317 1117 290 1075 z m 369 -286 b 729 81 707 -286 729 -168 l 729 708 l 507 708 l 501 624 l 489 624 b 290 719 447 703 367 719 b 60 361 126 719 60 643 b 292 4 60 82 125 4 b 485 90 372 4 442 19 l 496 90 l 496 39 b 308 -111 496 -96 488 -111 b 117 -108 247 -111 174 -110 l 117 -268 b 369 -286 172 -278 278 -286 z m 396 192 b 293 361 300 192 293 204 b 396 531 293 518 300 531 b 482 486 446 531 471 521 b 496 361 494 460 496 418 b 482 233 496 301 494 261 b 396 192 469 201 446 192 z "},"ġ":{"ha":811,"x_min":0,"x_max":0,"o":"m 311 822 l 500 822 l 500 976 l 311 976 z m 369 -286 b 729 81 707 -286 729 -168 l 729 708 l 507 708 l 501 624 l 489 624 b 290 719 447 703 367 719 b 60 361 126 719 60 643 b 292 4 60 82 125 4 b 485 90 372 4 442 19 l 496 90 l 496 39 b 308 -111 496 -96 488 -111 b 117 -108 247 -111 174 -110 l 117 -268 b 369 -286 172 -278 278 -286 z m 396 192 b 293 361 300 192 293 204 b 396 531 293 518 300 531 b 482 486 446 531 471 521 b 496 361 494 460 496 418 b 482 233 496 301 494 261 b 396 192 469 201 446 192 z "},"h":{"ha":821,"x_min":0,"x_max":0,"o":"m 82 0 l 315 0 l 315 369 b 414 529 315 497 325 529 b 506 374 497 529 506 521 l 506 0 l 739 0 l 739 443 b 525 719 739 621 713 719 b 328 626 442 719 369 697 l 315 626 l 315 1032 l 82 1032 z "},"ħ":{"ha":821,"x_min":0,"x_max":0,"o":"m 525 719 b 328 626 442 719 369 697 l 315 626 l 315 839 l 485 839 l 485 956 l 315 956 l 315 1032 l 82 1032 l 82 956 l 0 956 l 0 839 l 82 839 l 82 0 l 315 0 l 315 369 b 414 529 315 497 325 529 b 506 374 497 529 506 521 l 506 0 l 739 0 l 739 443 b 525 719 739 621 713 719 z "},"ĥ":{"ha":821,"x_min":0,"x_max":0,"o":"m -39 1061 l 111 1061 l 197 1171 l 286 1061 l 436 1061 l 436 1071 l 306 1263 l 90 1263 l -39 1071 z m 82 0 l 315 0 l 315 369 b 414 529 315 497 325 529 b 506 374 497 529 506 521 l 506 0 l 739 0 l 739 443 b 525 719 739 621 713 719 b 328 626 442 719 369 697 l 315 626 l 315 1032 l 82 1032 z "},"ḥ":{"ha":821,"x_min":0,"x_max":0,"o":"m 82 0 l 315 0 l 315 369 b 414 529 315 497 325 529 b 506 374 497 529 506 521 l 506 0 l 739 0 l 739 443 b 525 719 739 621 713 719 b 328 626 442 719 369 697 l 315 626 l 315 1032 l 82 1032 z m 319 -299 l 501 -299 l 501 -132 l 319 -132 z "},"i":{"ha":400,"x_min":0,"x_max":0,"o":"m 81 849 l 319 849 l 319 1032 l 81 1032 z m 82 0 l 318 0 l 318 708 l 82 708 z "},"ı":{"ha":400,"x_min":0,"x_max":0,"o":"m 82 0 l 318 0 l 318 708 l 82 708 z "},"í":{"ha":400,"x_min":0,"x_max":0,"o":"m 78 799 l 243 799 l 428 993 l 428 1000 l 204 1000 l 78 806 z m 82 0 l 318 0 l 318 708 l 82 708 z "},"ĭ":{"ha":400,"x_min":0,"x_max":0,"o":"m 199 790 b 413 997 386 790 413 876 l 285 997 b 199 913 285 947 283 913 b 113 997 113 913 113 947 l -14 997 b 199 790 -14 876 11 790 z m 82 0 l 318 0 l 318 708 l 82 708 z "},"ǐ":{"ha":400,"x_min":0,"x_max":0,"o":"m 92 799 l 307 799 l 438 990 l 438 1000 l 288 1000 l 200 890 l 113 1000 l -37 1000 l -37 990 z m 82 0 l 318 0 l 318 708 l 82 708 z "},"î":{"ha":400,"x_min":0,"x_max":0,"o":"m -37 799 l 113 799 l 199 908 l 288 799 l 438 799 l 438 808 l 307 1000 l 92 1000 l -37 808 z m 82 0 l 318 0 l 318 708 l 82 708 z "},"ȉ":{"ha":400,"x_min":0,"x_max":0,"o":"m 17 799 l 153 799 l 153 804 l 44 968 l -139 968 l -139 963 z m 282 799 l 417 799 l 417 804 l 310 968 l 126 968 l 126 963 z m 82 0 l 318 0 l 318 708 l 82 708 z "},"ï":{"ha":400,"x_min":0,"x_max":0,"o":"m -43 822 l 146 822 l 146 976 l -43 976 z m 254 822 l 443 822 l 443 976 l 254 976 z m 82 0 l 318 0 l 318 708 l 82 708 z "},"ị":{"ha":400,"x_min":0,"x_max":0,"o":"m 81 849 l 319 849 l 319 1032 l 81 1032 z m 82 0 l 318 0 l 318 708 l 82 708 z m 110 -299 l 292 -299 l 292 -132 l 110 -132 z "},"ì":{"ha":400,"x_min":0,"x_max":0,"o":"m 142 799 l 306 799 l 306 806 l 179 1000 l -44 1000 l -44 993 z m 82 0 l 318 0 l 318 708 l 82 708 z "},"ỉ":{"ha":400,"x_min":0,"x_max":0,"o":"m 113 786 l 233 786 b 279 826 233 808 239 815 l 300 833 b 400 950 378 856 400 876 b 200 1086 400 1079 315 1086 b 19 1072 144 1086 68 1081 l 19 968 b 164 975 57 972 129 975 b 253 935 236 975 253 974 b 204 893 253 910 246 906 l 181 886 b 113 793 124 871 113 846 z m 82 0 l 318 0 l 318 708 l 82 708 z "},"ȋ":{"ha":400,"x_min":0,"x_max":0,"o":"m 201 1010 b -14 801 14 1010 -14 924 l 114 801 b 201 888 114 853 115 888 b 286 801 286 888 286 853 l 413 801 b 201 1010 413 924 388 1010 z m 82 0 l 318 0 l 318 708 l 82 708 z "},"ĳ":{"ha":801,"x_min":0,"x_max":0,"o":"m 81 849 l 319 849 l 319 1032 l 81 1032 z m 481 849 l 719 849 l 719 1032 l 481 1032 z m 82 0 l 318 0 l 318 708 l 82 708 z m 369 -276 b 718 7 657 -276 718 -253 l 718 708 l 482 708 l 482 -43 b 369 -117 482 -96 476 -117 z "},"ī":{"ha":400,"x_min":0,"x_max":0,"o":"m -32 822 l 432 822 l 432 956 l -32 956 z m 82 0 l 318 0 l 318 708 l 82 708 z "},"į":{"ha":400,"x_min":0,"x_max":0,"o":"m 319 1032 l 81 1032 l 81 849 l 319 849 z m 297 -160 b 232 -112 244 -160 232 -140 b 319 0 232 -72 283 -21 l 318 0 l 318 708 l 82 708 l 82 0 l 132 0 b 43 -160 79 -49 43 -107 b 222 -278 43 -222 81 -278 b 321 -272 253 -278 293 -275 l 321 -158 b 297 -160 310 -160 301 -160 z "},"ĩ":{"ha":400,"x_min":0,"x_max":0,"o":"m -68 792 l 47 792 b 82 851 47 836 47 851 b 178 833 106 851 140 842 b 335 807 225 822 279 807 b 465 1007 461 807 465 881 l 350 1007 b 315 947 350 963 350 947 b 219 965 289 947 257 957 b 63 990 172 976 117 990 b -68 792 -65 990 -68 918 z m 82 0 l 318 0 l 318 708 l 82 708 z "},"j":{"ha":400,"x_min":0,"x_max":0,"o":"m 81 849 l 319 849 l 319 1032 l 81 1032 z m -31 -276 b 318 7 257 -276 318 -253 l 318 708 l 82 708 l 82 -43 b -31 -117 82 -96 76 -117 z "},"ȷ":{"ha":400,"x_min":0,"x_max":0,"o":"m -31 -276 b 318 7 257 -276 318 -253 l 318 708 l 82 708 l 82 -43 b -31 -117 82 -96 76 -117 z "},"ĵ":{"ha":400,"x_min":0,"x_max":0,"o":"m -37 799 l 113 799 l 199 908 l 288 799 l 438 799 l 438 808 l 307 1000 l 92 1000 l -37 808 z m -31 -276 b 318 7 257 -276 318 -253 l 318 708 l 82 708 l 82 -43 b -31 -117 82 -96 76 -117 z "},"k":{"ha":801,"x_min":0,"x_max":0,"o":"m 82 0 l 315 0 l 315 265 l 354 265 l 528 0 l 786 0 l 546 371 l 782 708 l 533 708 l 354 440 l 315 440 l 315 1032 l 82 1032 z "},"ķ":{"ha":801,"x_min":0,"x_max":0,"o":"m 82 0 l 315 0 l 315 265 l 354 265 l 528 0 l 786 0 l 546 371 l 782 708 l 533 708 l 354 440 l 315 440 l 315 1032 l 82 1032 z m 288 -401 b 529 -193 503 -401 529 -358 l 529 -82 l 296 -82 l 296 -247 l 382 -247 l 382 -262 b 288 -315 382 -306 367 -315 z "},"ĸ":{"ha":801,"x_min":0,"x_max":0,"o":"m 82 0 l 315 0 l 315 265 l 354 265 l 528 0 l 786 0 l 546 371 l 782 708 l 533 708 l 354 440 l 315 440 l 315 708 l 82 708 z "},"l":{"ha":400,"x_min":0,"x_max":0,"o":"m 82 0 l 318 0 l 318 1032 l 82 1032 z "},"ĺ":{"ha":400,"x_min":0,"x_max":0,"o":"m 79 1132 l 244 1132 l 429 1326 l 429 1333 l 206 1333 l 79 1139 z m 82 0 l 318 0 l 318 1032 l 82 1032 z "},"ľ":{"ha":400,"x_min":0,"x_max":0,"o":"m 82 0 l 318 0 l 318 1032 l 82 1032 z m 360 594 l 489 594 l 556 879 l 556 956 l 376 956 l 376 879 z "},"ļ":{"ha":400,"x_min":0,"x_max":0,"o":"m 82 0 l 318 0 l 318 1032 l 82 1032 z m 75 -401 b 317 -193 290 -401 317 -358 l 317 -82 l 83 -82 l 83 -247 l 169 -247 l 169 -262 b 75 -315 169 -306 154 -315 z "},"ŀ":{"ha":507,"x_min":0,"x_max":0,"o":"m 82 0 l 318 0 l 318 1032 l 82 1032 z m 361 313 l 549 313 l 549 519 l 361 519 z "},"ǉ":{"ha":801,"x_min":0,"x_max":0,"o":"m 82 0 l 318 0 l 318 1032 l 82 1032 z m 481 849 l 719 849 l 719 1032 l 481 1032 z m 369 -276 b 718 7 657 -276 718 -253 l 718 708 l 482 708 l 482 -43 b 369 -117 482 -96 476 -117 z "},"ł":{"ha":431,"x_min":0,"x_max":0,"o":"m 96 0 l 332 0 l 332 482 l 408 510 l 408 675 l 332 647 l 332 1032 l 96 1032 l 96 567 l 21 540 l 21 375 l 96 403 z "},"m":{"ha":1207,"x_min":0,"x_max":0,"o":"m 82 0 l 315 0 l 315 369 b 404 529 315 499 324 529 b 486 374 478 529 486 521 l 486 0 l 719 0 l 719 369 b 808 529 719 500 726 529 b 890 374 882 529 890 521 l 890 0 l 1124 0 l 1124 443 b 918 719 1124 621 1094 719 b 718 624 835 719 760 694 l 706 624 b 518 719 681 690 628 719 b 322 624 436 719 363 694 l 310 624 l 304 708 l 82 708 z "},"n":{"ha":821,"x_min":0,"x_max":0,"o":"m 82 0 l 315 0 l 315 369 b 414 529 315 497 325 529 b 506 374 497 529 506 521 l 506 0 l 739 0 l 739 443 b 525 719 739 621 713 719 b 322 624 439 719 364 696 l 310 624 l 304 708 l 82 708 z "},"ń":{"ha":821,"x_min":0,"x_max":0,"o":"m 288 799 l 453 799 l 638 993 l 638 1000 l 414 1000 l 288 806 z m 82 0 l 315 0 l 315 369 b 414 529 315 497 325 529 b 506 374 497 529 506 521 l 506 0 l 739 0 l 739 443 b 525 719 739 621 713 719 b 322 624 439 719 364 696 l 310 624 l 304 708 l 82 708 z "},"ŉ":{"ha":821,"x_min":0,"x_max":0,"o":"m 0 740 b 181 924 161 740 181 778 l 181 1003 l 7 1003 l 7 888 l 71 888 l 71 871 b 0 804 71 818 60 804 z m 82 0 l 315 0 l 315 369 b 414 529 315 497 325 529 b 506 374 497 529 506 521 l 506 0 l 739 0 l 739 443 b 525 719 739 621 713 719 b 322 624 439 719 364 696 l 310 624 l 304 708 l 82 708 z "},"ň":{"ha":821,"x_min":0,"x_max":0,"o":"m 303 799 l 518 799 l 649 990 l 649 1000 l 499 1000 l 411 890 l 324 1000 l 174 1000 l 174 990 z m 82 0 l 315 0 l 315 369 b 414 529 315 497 325 529 b 506 374 497 529 506 521 l 506 0 l 739 0 l 739 443 b 525 719 739 621 713 719 b 322 624 439 719 364 696 l 310 624 l 304 708 l 82 708 z "},"ņ":{"ha":821,"x_min":0,"x_max":0,"o":"m 82 0 l 315 0 l 315 369 b 414 529 315 497 325 529 b 506 374 497 529 506 521 l 506 0 l 739 0 l 739 443 b 525 719 739 621 713 719 b 322 624 439 719 364 696 l 310 624 l 304 708 l 82 708 z m 286 -401 b 528 -193 501 -401 528 -358 l 528 -82 l 294 -82 l 294 -247 l 381 -247 l 381 -262 b 286 -315 381 -306 365 -315 z "},"ṅ":{"ha":821,"x_min":0,"x_max":0,"o":"m 315 822 l 504 822 l 504 976 l 315 976 z m 82 0 l 315 0 l 315 369 b 414 529 315 497 325 529 b 506 374 497 529 506 521 l 506 0 l 739 0 l 739 443 b 525 719 739 621 713 719 b 322 624 439 719 364 696 l 310 624 l 304 708 l 82 708 z "},"ŋ":{"ha":821,"x_min":0,"x_max":0,"o":"m 393 -276 b 739 7 678 -276 739 -253 l 739 443 b 525 719 739 621 713 719 b 322 624 439 719 364 696 l 310 624 l 304 708 l 82 708 l 82 0 l 315 0 l 315 369 b 414 529 315 497 325 529 b 506 374 497 529 506 521 l 506 -43 b 393 -117 506 -96 499 -117 z "},"ɲ":{"ha":821,"x_min":0,"x_max":0,"o":"m -31 -276 b 315 7 256 -276 315 -253 l 315 369 b 414 529 315 497 325 529 b 506 374 497 529 506 521 l 506 0 l 739 0 l 739 443 b 525 719 739 621 713 719 b 322 624 439 719 364 696 l 310 624 l 304 708 l 82 708 l 82 -43 b -31 -117 82 -96 76 -117 z "},"ǌ":{"ha":1221,"x_min":0,"x_max":0,"o":"m 901 849 l 1140 849 l 1140 1032 l 901 1032 z m 82 0 l 315 0 l 315 369 b 414 529 315 497 325 529 b 506 374 497 529 506 521 l 506 0 l 739 0 l 739 443 b 525 719 739 621 713 719 b 322 624 439 719 364 696 l 310 624 l 304 708 l 82 708 z m 790 -276 b 1139 7 1078 -276 1139 -253 l 1139 708 l 903 708 l 903 -43 b 790 -117 903 -96 897 -117 z "},"ñ":{"ha":821,"x_min":0,"x_max":0,"o":"m 143 792 l 258 792 b 293 851 258 836 258 851 b 389 833 317 851 351 842 b 546 807 436 822 490 807 b 676 1007 672 807 676 881 l 561 1007 b 526 947 561 963 561 947 b 431 965 500 947 468 957 b 274 990 383 976 328 990 b 143 792 146 990 143 918 z m 82 0 l 315 0 l 315 369 b 414 529 315 497 325 529 b 506 374 497 529 506 521 l 506 0 l 739 0 l 739 443 b 525 719 739 621 713 719 b 322 624 439 719 364 696 l 310 624 l 304 708 l 82 708 z "},"o":{"ha":794,"x_min":0,"x_max":0,"o":"m 397 -11 b 736 354 718 -11 736 68 b 397 719 736 640 718 719 b 60 354 76 719 60 640 b 397 -11 60 68 76 -11 z m 397 164 b 293 354 293 164 293 179 b 397 544 293 531 293 544 b 503 354 501 544 503 531 b 397 164 503 179 501 164 z "},"ó":{"ha":794,"x_min":0,"x_max":0,"o":"m 275 799 l 440 799 l 625 993 l 625 1000 l 401 1000 l 275 806 z m 397 -11 b 736 354 718 -11 736 68 b 397 719 736 640 718 719 b 60 354 76 719 60 640 b 397 -11 60 68 76 -11 z m 397 164 b 293 354 293 164 293 179 b 397 544 293 531 293 544 b 503 354 501 544 503 531 b 397 164 503 179 501 164 z "},"ŏ":{"ha":794,"x_min":0,"x_max":0,"o":"m 396 790 b 610 997 583 790 610 876 l 482 997 b 396 913 482 947 481 913 b 310 997 310 913 310 947 l 183 997 b 396 790 183 876 208 790 z m 397 -11 b 736 354 718 -11 736 68 b 397 719 736 640 718 719 b 60 354 76 719 60 640 b 397 -11 60 68 76 -11 z m 397 164 b 293 354 293 164 293 179 b 397 544 293 531 293 544 b 503 354 501 544 503 531 b 397 164 503 179 501 164 z "},"ǒ":{"ha":794,"x_min":0,"x_max":0,"o":"m 290 799 l 506 799 l 636 990 l 636 1000 l 486 1000 l 399 890 l 311 1000 l 161 1000 l 161 990 z m 397 -11 b 736 354 718 -11 736 68 b 397 719 736 640 718 719 b 60 354 76 719 60 640 b 397 -11 60 68 76 -11 z m 397 164 b 293 354 293 164 293 179 b 397 544 293 531 293 544 b 503 354 501 544 503 531 b 397 164 503 179 501 164 z "},"ô":{"ha":794,"x_min":0,"x_max":0,"o":"m 161 799 l 311 799 l 397 908 l 486 799 l 636 799 l 636 808 l 506 1000 l 290 1000 l 161 808 z m 397 -11 b 736 354 718 -11 736 68 b 397 719 736 640 718 719 b 60 354 76 719 60 640 b 397 -11 60 68 76 -11 z m 397 164 b 293 354 293 164 293 179 b 397 544 293 531 293 544 b 503 354 501 544 503 531 b 397 164 503 179 501 164 z "},"ố":{"ha":794,"x_min":0,"x_max":0,"o":"m 275 1046 l 440 1046 l 626 1240 l 626 1247 l 401 1247 l 275 1053 z m 161 799 l 311 799 l 397 908 l 486 799 l 636 799 l 636 808 l 506 1000 l 290 1000 l 161 808 z m 397 -11 b 736 354 718 -11 736 68 b 397 719 736 640 718 719 b 60 354 76 719 60 640 b 397 -11 60 68 76 -11 z m 397 164 b 293 354 293 164 293 179 b 397 544 293 531 293 544 b 503 354 501 544 503 531 b 397 164 503 179 501 164 z "},"ộ":{"ha":794,"x_min":0,"x_max":0,"o":"m 161 799 l 311 799 l 397 908 l 486 799 l 636 799 l 636 808 l 506 1000 l 290 1000 l 161 808 z m 397 -11 b 736 354 718 -11 736 68 b 397 719 736 640 718 719 b 60 354 76 719 60 640 b 397 -11 60 68 76 -11 z m 397 164 b 293 354 293 164 293 179 b 397 544 293 531 293 544 b 503 354 501 544 503 531 b 397 164 503 179 501 164 z m 307 -299 l 489 -299 l 489 -132 l 307 -132 z "},"ồ":{"ha":794,"x_min":0,"x_max":0,"o":"m 339 1046 l 504 1046 l 504 1053 l 378 1247 l 154 1247 l 154 1240 z m 161 799 l 311 799 l 397 908 l 486 799 l 636 799 l 636 808 l 506 1000 l 290 1000 l 161 808 z m 397 -11 b 736 354 718 -11 736 68 b 397 719 736 640 718 719 b 60 354 76 719 60 640 b 397 -11 60 68 76 -11 z m 397 164 b 293 354 293 164 293 179 b 397 544 293 531 293 544 b 503 354 501 544 503 531 b 397 164 503 179 501 164 z "},"ổ":{"ha":794,"x_min":0,"x_max":0,"o":"m 311 1033 l 432 1033 b 476 1074 432 1056 438 1063 l 497 1081 b 599 1197 576 1103 599 1124 b 399 1333 599 1326 514 1333 b 218 1319 342 1333 265 1328 l 218 1215 b 363 1222 256 1219 326 1222 b 451 1182 435 1222 451 1221 b 403 1140 451 1157 444 1153 l 378 1133 b 311 1040 322 1118 311 1093 z m 161 799 l 311 799 l 397 908 l 486 799 l 636 799 l 636 808 l 506 1000 l 290 1000 l 161 808 z m 397 -11 b 736 354 718 -11 736 68 b 397 719 736 640 718 719 b 60 354 76 719 60 640 b 397 -11 60 68 76 -11 z m 397 164 b 293 354 293 164 293 179 b 397 544 293 531 293 544 b 503 354 501 544 503 531 b 397 164 503 179 501 164 z "},"ỗ":{"ha":794,"x_min":0,"x_max":0,"o":"m 131 1039 l 246 1039 b 281 1099 246 1083 246 1099 b 376 1081 304 1099 339 1089 b 533 1054 424 1069 478 1054 b 664 1254 660 1054 664 1128 l 549 1254 b 514 1194 549 1210 549 1194 b 418 1213 488 1194 456 1204 b 261 1238 371 1224 315 1238 b 131 1039 133 1238 131 1165 z m 161 799 l 311 799 l 397 908 l 485 799 l 636 799 l 636 808 l 506 1000 l 290 1000 l 161 808 z m 397 -11 b 736 354 718 -11 736 68 b 397 719 736 640 718 719 b 60 354 76 719 60 640 b 397 -11 60 68 76 -11 z m 397 164 b 293 354 293 164 293 179 b 397 544 293 531 293 544 b 503 354 501 544 503 531 b 397 164 503 179 501 164 z "},"ȍ":{"ha":794,"x_min":0,"x_max":0,"o":"m 214 799 l 350 799 l 350 804 l 242 968 l 58 968 l 58 963 z m 479 799 l 614 799 l 614 804 l 507 968 l 324 968 l 324 963 z m 397 -11 b 736 354 718 -11 736 68 b 397 719 736 640 718 719 b 60 354 76 719 60 640 b 397 -11 60 68 76 -11 z m 397 164 b 293 354 293 164 293 179 b 397 544 293 531 293 544 b 503 354 501 544 503 531 b 397 164 503 179 501 164 z "},"ö":{"ha":794,"x_min":0,"x_max":0,"o":"m 154 822 l 343 822 l 343 976 l 154 976 z m 451 822 l 640 822 l 640 976 l 451 976 z m 397 -11 b 736 354 718 -11 736 68 b 397 719 736 640 718 719 b 60 354 76 719 60 640 b 397 -11 60 68 76 -11 z m 397 164 b 293 354 293 164 293 179 b 397 544 293 531 293 544 b 503 354 501 544 503 531 b 397 164 503 179 501 164 z "},"ȫ":{"ha":794,"x_min":0,"x_max":0,"o":"m 165 1065 l 629 1065 l 629 1199 l 165 1199 z m 154 822 l 343 822 l 343 976 l 154 976 z m 451 822 l 640 822 l 640 976 l 451 976 z m 397 -11 b 736 354 718 -11 736 68 b 397 719 736 640 718 719 b 60 354 76 719 60 640 b 397 -11 60 68 76 -11 z m 397 164 b 293 354 293 164 293 179 b 397 544 293 531 293 544 b 503 354 501 544 503 531 b 397 164 503 179 501 164 z "},"ȱ":{"ha":794,"x_min":0,"x_max":0,"o":"m 165 1058 l 629 1058 l 629 1192 l 165 1192 z m 303 822 l 492 822 l 492 976 l 303 976 z m 397 -11 b 736 354 718 -11 736 68 b 397 719 736 640 718 719 b 60 354 76 719 60 640 b 397 -11 60 68 76 -11 z m 397 164 b 293 354 293 164 293 179 b 397 544 293 531 293 544 b 503 354 501 544 503 531 b 397 164 503 179 501 164 z "},"ọ":{"ha":794,"x_min":0,"x_max":0,"o":"m 397 -11 b 736 354 718 -11 736 68 b 397 719 736 640 718 719 b 60 354 76 719 60 640 b 397 -11 60 68 76 -11 z m 397 164 b 293 354 293 164 293 179 b 397 544 293 531 293 544 b 503 354 501 544 503 531 b 397 164 503 179 501 164 z m 307 -299 l 489 -299 l 489 -132 l 307 -132 z "},"ò":{"ha":794,"x_min":0,"x_max":0,"o":"m 339 799 l 503 799 l 503 806 l 376 1000 l 153 1000 l 153 993 z m 397 -11 b 736 354 718 -11 736 68 b 397 719 736 640 718 719 b 60 354 76 719 60 640 b 397 -11 60 68 76 -11 z m 397 164 b 293 354 293 164 293 179 b 397 544 293 531 293 544 b 503 354 501 544 503 531 b 397 164 503 179 501 164 z "},"ỏ":{"ha":794,"x_min":0,"x_max":0,"o":"m 310 786 l 431 786 b 476 826 431 808 436 815 l 497 833 b 597 950 575 856 597 876 b 397 1086 597 1079 513 1086 b 217 1072 342 1086 265 1081 l 217 968 b 361 975 254 972 326 975 b 450 935 433 975 450 974 b 401 893 450 910 443 906 l 378 886 b 310 793 321 871 310 846 z m 397 -11 b 736 354 718 -11 736 68 b 397 719 736 640 718 719 b 60 354 76 719 60 640 b 397 -11 60 68 76 -11 z m 397 164 b 293 354 293 164 293 179 b 397 544 293 531 293 544 b 503 354 501 544 503 531 b 397 164 503 179 501 164 z "},"ơ":{"ha":794,"x_min":0,"x_max":0,"o":"m 629 832 l 629 799 b 557 708 629 735 621 713 b 397 719 514 717 461 719 b 60 354 76 719 60 640 b 397 -11 60 68 76 -11 b 736 354 718 -11 736 68 b 692 639 736 493 732 582 b 781 810 767 661 781 711 l 781 832 z m 397 164 b 293 354 293 164 293 179 b 397 544 293 531 293 544 b 503 354 501 544 503 531 b 397 164 503 179 501 164 z "},"ớ":{"ha":794,"x_min":0,"x_max":0,"o":"m 625 993 l 625 1000 l 401 1000 l 275 806 l 275 799 l 440 799 z m 629 832 l 629 799 b 557 708 629 735 621 713 b 397 719 514 717 461 719 b 60 354 76 719 60 640 b 397 -11 60 68 76 -11 b 736 354 718 -11 736 68 b 692 639 736 493 732 582 b 781 810 767 661 781 711 l 781 832 z m 397 164 b 293 354 293 164 293 179 b 397 544 293 531 293 544 b 503 354 501 544 503 531 b 397 164 503 179 501 164 z "},"ợ":{"ha":794,"x_min":0,"x_max":0,"o":"m 629 832 l 629 799 b 557 708 629 735 621 713 b 397 719 514 717 461 719 b 60 354 76 719 60 640 b 397 -11 60 68 76 -11 b 736 354 718 -11 736 68 b 692 639 736 493 732 582 b 781 810 767 661 781 711 l 781 832 z m 397 164 b 293 354 293 164 293 179 b 397 544 293 531 293 544 b 503 354 501 544 503 531 b 397 164 503 179 501 164 z m 307 -299 l 489 -299 l 489 -132 l 307 -132 z "},"ờ":{"ha":794,"x_min":0,"x_max":0,"o":"m 503 799 l 503 806 l 376 1000 l 153 1000 l 153 993 l 339 799 z m 629 832 l 629 799 b 557 708 629 735 621 713 b 397 719 514 717 461 719 b 60 354 76 719 60 640 b 397 -11 60 68 76 -11 b 736 354 718 -11 736 68 b 692 639 736 493 732 582 b 781 810 767 661 781 711 l 781 832 z m 397 164 b 293 354 293 164 293 179 b 397 544 293 531 293 544 b 503 354 501 544 503 531 b 397 164 503 179 501 164 z "},"ở":{"ha":794,"x_min":0,"x_max":0,"o":"m 450 935 b 401 893 450 910 443 906 l 378 886 b 310 793 321 871 310 846 l 310 786 l 431 786 b 476 826 431 808 436 815 l 497 833 b 597 950 575 856 597 876 b 397 1086 597 1079 513 1086 b 217 1072 342 1086 265 1081 l 217 968 b 361 975 254 972 326 975 b 450 935 433 975 450 974 z m 629 832 l 629 799 b 557 708 629 735 621 713 b 397 719 514 717 461 719 b 60 354 76 719 60 640 b 397 -11 60 68 76 -11 b 736 354 718 -11 736 68 b 692 639 736 493 732 582 b 781 810 767 661 781 711 l 781 832 z m 397 164 b 293 354 293 164 293 179 b 397 544 293 531 293 544 b 503 354 501 544 503 531 b 397 164 503 179 501 164 z "},"ỡ":{"ha":794,"x_min":0,"x_max":0,"o":"m 297 851 b 379 833 318 851 347 842 b 511 807 419 822 465 807 b 622 1007 619 807 622 881 l 525 1007 b 496 947 525 963 525 947 b 414 965 474 947 446 957 b 282 990 374 976 326 990 b 171 792 174 990 171 918 l 268 792 b 297 851 268 836 268 851 z m 629 832 l 629 799 b 557 708 629 735 621 713 b 397 719 514 717 461 719 b 60 354 76 719 60 640 b 397 -11 60 68 76 -11 b 736 354 718 -11 736 68 b 692 639 736 493 732 582 b 781 810 767 661 781 711 l 781 832 z m 397 164 b 293 354 293 164 293 179 b 397 544 293 531 293 544 b 503 354 501 544 503 531 b 397 164 503 179 501 164 z "},"ő":{"ha":794,"x_min":0,"x_max":0,"o":"m 189 799 l 324 799 l 479 967 l 479 974 l 296 974 l 189 804 z m 453 799 l 589 799 l 744 967 l 744 974 l 561 974 l 453 804 z m 397 -11 b 736 354 718 -11 736 68 b 397 719 736 640 718 719 b 60 354 76 719 60 640 b 397 -11 60 68 76 -11 z m 397 164 b 293 354 293 164 293 179 b 397 544 293 531 293 544 b 503 354 501 544 503 531 b 397 164 503 179 501 164 z "},"ȏ":{"ha":794,"x_min":0,"x_max":0,"o":"m 399 1010 b 183 801 211 1010 183 924 l 311 801 b 399 888 311 853 313 888 b 483 801 483 888 483 853 l 610 801 b 399 1010 610 924 585 1010 z m 397 -11 b 736 354 718 -11 736 68 b 397 719 736 640 718 719 b 60 354 76 719 60 640 b 397 -11 60 68 76 -11 z m 397 164 b 293 354 293 164 293 179 b 397 544 293 531 293 544 b 503 354 501 544 503 531 b 397 164 503 179 501 164 z "},"ō":{"ha":794,"x_min":0,"x_max":0,"o":"m 165 822 l 629 822 l 629 956 l 165 956 z m 397 -11 b 736 354 718 -11 736 68 b 397 719 736 640 718 719 b 60 354 76 719 60 640 b 397 -11 60 68 76 -11 z m 397 164 b 293 354 293 164 293 179 b 397 544 293 531 293 544 b 503 354 501 544 503 531 b 397 164 503 179 501 164 z "},"ǫ":{"ha":794,"x_min":0,"x_max":0,"o":"m 504 -7 b 736 354 722 13 736 104 b 397 719 736 640 718 719 b 60 354 76 719 60 640 b 318 -10 60 94 74 4 b 239 -160 271 -56 239 -110 b 418 -278 239 -222 276 -278 b 517 -272 449 -278 489 -275 l 517 -158 b 493 -160 506 -160 497 -160 b 428 -112 440 -160 428 -140 b 504 -7 428 -76 469 -31 z m 293 354 b 397 544 293 531 293 544 b 503 354 501 544 503 531 b 397 164 503 179 501 164 b 293 354 293 164 293 179 z "},"ø":{"ha":794,"x_min":0,"x_max":0,"o":"m 668 664 l 736 785 l 550 785 l 510 715 b 397 719 476 718 440 719 b 60 354 76 719 60 640 b 128 44 60 192 65 97 l 60 -76 l 244 -76 l 285 -7 b 397 -11 317 -10 354 -11 b 736 354 718 -11 736 68 b 668 664 736 515 731 611 z m 397 164 b 293 354 293 164 293 179 b 397 544 293 531 293 544 b 503 354 501 544 503 531 b 397 164 503 179 501 164 z "},"ǿ":{"ha":794,"x_min":0,"x_max":0,"o":"m 625 993 l 625 1000 l 401 1000 l 275 806 l 275 799 l 440 799 z m 668 664 l 736 785 l 550 785 l 510 715 b 397 719 476 718 440 719 b 60 354 76 719 60 640 b 128 44 60 192 65 97 l 60 -76 l 244 -76 l 285 -7 b 397 -11 317 -10 354 -11 b 736 354 718 -11 736 68 b 668 664 736 515 731 611 z m 397 164 b 293 354 293 164 293 179 b 397 544 293 531 293 544 b 503 354 501 544 503 531 b 397 164 503 179 501 164 z "},"õ":{"ha":794,"x_min":0,"x_max":0,"o":"m 131 792 l 246 792 b 281 851 246 836 246 851 b 376 833 304 851 339 842 b 533 807 424 822 478 807 b 664 1007 660 807 664 881 l 549 1007 b 514 947 549 963 549 947 b 418 965 488 947 456 957 b 261 990 371 976 315 990 b 131 792 133 990 131 918 z m 397 -11 b 736 354 718 -11 736 68 b 397 719 736 640 718 719 b 60 354 76 719 60 640 b 397 -11 60 68 76 -11 z m 397 164 b 293 354 293 164 293 179 b 397 544 293 531 293 544 b 503 354 501 544 503 531 b 397 164 503 179 501 164 z "},"ȭ":{"ha":794,"x_min":0,"x_max":0,"o":"m 165 1069 l 629 1069 l 629 1203 l 165 1203 z m 131 792 l 246 792 b 281 851 246 836 246 851 b 376 833 304 851 339 842 b 533 807 424 822 478 807 b 664 1007 660 807 664 881 l 549 1007 b 514 947 549 963 549 947 b 418 965 488 947 456 957 b 261 990 371 976 315 990 b 131 792 133 990 131 918 z m 397 -11 b 736 354 718 -11 736 68 b 397 719 736 640 718 719 b 60 354 76 719 60 640 b 397 -11 60 68 76 -11 z m 397 164 b 293 354 293 164 293 179 b 397 544 293 531 293 544 b 503 354 501 544 503 531 b 397 164 503 179 501 164 z "},"œ":{"ha":1222,"x_min":0,"x_max":0,"o":"m 1158 353 b 853 719 1158 618 1153 719 b 622 661 750 719 675 701 b 392 719 574 703 500 719 b 60 354 76 719 60 640 b 392 -11 60 68 76 -11 b 625 47 500 -11 575 7 b 875 -11 681 7 761 -11 b 1131 14 967 -11 1074 -1 l 1131 174 b 919 163 1060 168 972 163 b 738 299 747 163 738 175 l 1158 299 z m 840 557 b 940 414 922 557 940 546 l 738 414 b 840 557 738 540 750 557 z m 397 164 b 293 354 293 164 293 179 b 397 544 293 531 293 544 b 503 354 501 544 503 531 b 397 164 503 179 501 164 z "},"p":{"ha":811,"x_min":0,"x_max":0,"o":"m 82 -276 l 315 -276 l 315 75 l 328 75 b 522 -10 372 3 442 -10 b 753 357 686 -10 753 71 b 522 719 753 642 686 719 b 322 624 444 719 365 703 l 310 624 l 304 708 l 82 708 z m 417 179 b 326 225 365 179 339 189 b 315 354 317 250 315 293 b 328 486 315 414 317 457 b 417 531 340 519 365 531 b 519 354 511 531 519 518 b 417 179 519 190 511 179 z "},"þ":{"ha":811,"x_min":0,"x_max":0,"o":"m 82 -262 l 315 -262 l 315 75 l 328 75 b 522 -10 372 3 442 -10 b 753 357 686 -10 753 71 b 522 719 753 642 686 719 b 328 626 444 719 371 704 l 315 626 l 315 1032 l 82 1032 z m 417 179 b 326 229 364 179 339 189 b 315 354 317 253 315 294 b 329 485 315 414 317 456 b 417 531 342 521 367 531 b 519 354 511 531 519 518 b 417 179 519 190 511 179 z "},"q":{"ha":813,"x_min":0,"x_max":0,"o":"m 496 -276 l 729 -276 l 729 708 l 507 708 l 501 624 l 489 624 b 289 719 447 703 368 719 b 60 356 126 719 60 640 b 289 -10 60 69 125 -10 b 485 75 369 -10 439 3 l 496 75 z m 396 179 b 293 354 300 179 293 190 b 396 531 293 518 300 531 b 481 493 442 531 467 521 b 496 354 494 465 496 421 b 485 222 496 289 494 247 b 396 179 471 189 446 179 z "},"r":{"ha":575,"x_min":0,"x_max":0,"o":"m 82 0 l 315 0 l 315 264 b 543 508 315 456 368 508 l 543 719 b 322 588 431 719 361 690 l 310 588 l 304 708 l 82 708 z "},"ŕ":{"ha":575,"x_min":0,"x_max":0,"o":"m 164 799 l 329 799 l 514 993 l 514 1000 l 290 1000 l 164 806 z m 82 0 l 315 0 l 315 264 b 543 508 315 456 368 508 l 543 719 b 322 588 431 719 361 690 l 310 588 l 304 708 l 82 708 z "},"ř":{"ha":575,"x_min":0,"x_max":0,"o":"m 179 799 l 394 799 l 525 990 l 525 1000 l 375 1000 l 288 890 l 200 1000 l 50 1000 l 50 990 z m 82 0 l 315 0 l 315 264 b 543 508 315 456 368 508 l 543 719 b 322 588 431 719 361 690 l 310 588 l 304 708 l 82 708 z "},"ŗ":{"ha":575,"x_min":0,"x_max":0,"o":"m 82 0 l 315 0 l 315 264 b 543 508 315 456 368 508 l 543 719 b 322 588 431 719 361 690 l 310 588 l 304 708 l 82 708 z m 74 -401 b 315 -193 289 -401 315 -358 l 315 -82 l 82 -82 l 82 -247 l 168 -247 l 168 -262 b 74 -315 168 -306 153 -315 z "},"ȑ":{"ha":575,"x_min":0,"x_max":0,"o":"m 104 799 l 240 799 l 240 804 l 132 968 l -51 968 l -51 963 z m 369 799 l 504 799 l 504 804 l 397 968 l 214 968 l 214 963 z m 82 0 l 315 0 l 315 264 b 543 508 315 456 368 508 l 543 719 b 322 588 431 719 361 690 l 310 588 l 304 708 l 82 708 z "},"ṛ":{"ha":575,"x_min":0,"x_max":0,"o":"m 82 0 l 315 0 l 315 264 b 543 508 315 456 368 508 l 543 719 b 322 588 431 719 361 690 l 310 588 l 304 708 l 82 708 z m 108 -299 l 290 -299 l 290 -132 l 108 -132 z "},"ȓ":{"ha":575,"x_min":0,"x_max":0,"o":"m 289 1010 b 74 801 101 1010 74 924 l 201 801 b 289 888 201 853 203 888 b 374 801 374 888 374 853 l 500 801 b 289 1010 500 924 475 1010 z m 82 0 l 315 0 l 315 264 b 543 508 315 456 368 508 l 543 719 b 322 588 431 719 361 690 l 310 588 l 304 708 l 82 708 z "},"s":{"ha":694,"x_min":0,"x_max":0,"o":"m 363 -11 b 643 218 526 -11 643 10 b 493 431 643 392 588 418 l 332 450 b 268 500 271 457 268 463 b 403 550 268 547 289 550 b 604 539 449 550 533 546 l 604 699 b 349 719 546 711 439 719 b 50 504 178 719 50 699 b 189 285 50 376 71 300 l 354 264 b 426 213 421 256 426 251 b 289 158 426 168 421 158 b 72 169 231 158 133 164 l 72 8 b 363 -11 150 -3 271 -11 z "},"ś":{"ha":694,"x_min":0,"x_max":0,"o":"m 225 799 l 390 799 l 575 993 l 575 1000 l 351 1000 l 225 806 z m 363 -11 b 643 218 526 -11 643 10 b 493 431 643 392 588 418 l 332 450 b 268 500 271 457 268 463 b 403 550 268 547 289 550 b 604 539 449 550 533 546 l 604 699 b 349 719 546 711 439 719 b 50 504 178 719 50 699 b 189 285 50 376 71 300 l 354 264 b 426 213 421 256 426 251 b 289 158 426 168 421 158 b 72 169 231 158 133 164 l 72 8 b 363 -11 150 -3 271 -11 z "},"ꞌ":{"ha":358,"x_min":0,"x_max":0,"o":"m 76 372 l 233 372 l 282 717 l 282 1032 l 76 1032 z "},"š":{"ha":694,"x_min":0,"x_max":0,"o":"m 239 799 l 454 799 l 585 990 l 585 1000 l 435 1000 l 347 890 l 260 1000 l 110 1000 l 110 990 z m 363 -11 b 643 218 526 -11 643 10 b 493 431 643 392 588 418 l 332 450 b 268 500 271 457 268 463 b 403 550 268 547 289 550 b 604 539 449 550 533 546 l 604 699 b 349 719 546 711 439 719 b 50 504 178 719 50 699 b 189 285 50 376 71 300 l 354 264 b 426 213 421 256 426 251 b 289 158 426 168 421 158 b 72 169 231 158 133 164 l 72 8 b 363 -11 150 -3 271 -11 z "},"ş":{"ha":694,"x_min":0,"x_max":0,"o":"m 643 218 b 493 431 643 392 588 418 l 332 450 b 268 500 271 457 268 463 b 403 550 268 547 289 550 b 604 539 449 550 533 546 l 604 699 b 349 719 546 711 439 719 b 50 504 178 719 50 699 b 189 285 50 376 71 300 l 354 264 b 426 213 421 256 426 251 b 289 158 426 168 421 158 b 72 169 231 158 133 164 l 72 8 b 267 -8 125 1 197 -6 l 168 -257 l 168 -264 l 379 -264 l 425 -10 b 643 218 556 -3 643 38 z "},"ŝ":{"ha":694,"x_min":0,"x_max":0,"o":"m 110 799 l 260 799 l 346 908 l 435 799 l 585 799 l 585 808 l 454 1000 l 239 1000 l 110 808 z m 363 -11 b 643 218 526 -11 643 10 b 493 431 643 392 588 418 l 332 450 b 268 500 271 457 268 463 b 403 550 268 547 289 550 b 604 539 449 550 533 546 l 604 699 b 349 719 546 711 439 719 b 50 504 178 719 50 699 b 189 285 50 376 71 300 l 354 264 b 426 213 421 256 426 251 b 289 158 426 168 421 158 b 72 169 231 158 133 164 l 72 8 b 363 -11 150 -3 271 -11 z "},"ș":{"ha":694,"x_min":0,"x_max":0,"o":"m 363 -11 b 643 218 526 -11 643 10 b 493 431 643 392 588 418 l 332 450 b 268 500 271 457 268 463 b 403 550 268 547 289 550 b 604 539 449 550 533 546 l 604 699 b 349 719 546 711 439 719 b 50 504 178 719 50 699 b 189 285 50 376 71 300 l 354 264 b 426 213 421 256 426 251 b 289 158 426 168 421 158 b 72 169 231 158 133 164 l 72 8 b 363 -11 150 -3 271 -11 z m 222 -401 b 464 -193 438 -401 464 -358 l 464 -82 l 231 -82 l 231 -247 l 317 -247 l 317 -262 b 222 -315 317 -306 301 -315 z "},"ṣ":{"ha":694,"x_min":0,"x_max":0,"o":"m 363 -11 b 643 218 526 -11 643 10 b 493 431 643 392 588 418 l 332 450 b 268 500 271 457 268 463 b 403 550 268 547 289 550 b 604 539 449 550 533 546 l 604 699 b 349 719 546 711 439 719 b 50 504 178 719 50 699 b 189 285 50 376 71 300 l 354 264 b 426 213 421 256 426 251 b 289 158 426 168 421 158 b 72 169 231 158 133 164 l 72 8 b 363 -11 150 -3 271 -11 z m 257 -299 l 439 -299 l 439 -132 l 257 -132 z "},"ß":{"ha":840,"x_min":0,"x_max":0,"o":"m 82 0 l 315 0 l 315 749 b 425 868 315 857 344 868 b 531 769 508 868 531 856 b 425 682 531 694 515 682 l 406 682 l 406 507 l 425 507 b 544 342 522 507 544 496 b 426 174 544 178 531 174 l 397 174 l 397 0 l 454 0 b 781 331 728 0 781 90 b 607 597 781 511 721 576 l 607 603 b 768 799 717 621 768 679 b 426 1042 768 953 700 1042 b 82 772 164 1042 82 956 z "},"ſ":{"ha":565,"x_min":0,"x_max":0,"o":"m 156 0 l 392 0 l 392 785 b 558 872 392 865 406 872 l 558 1031 b 156 753 225 1031 156 1024 l 156 708 l 28 708 l 28 533 l 156 533 z "},"t":{"ha":571,"x_min":0,"x_max":0,"o":"m 154 0 l 390 0 l 390 533 l 543 533 l 543 708 l 390 708 l 390 914 l 154 914 l 154 708 l 26 708 l 26 533 l 154 533 z "},"ŧ":{"ha":571,"x_min":0,"x_max":0,"o":"m 543 533 l 543 708 l 390 708 l 390 914 l 154 914 l 154 708 l 26 708 l 26 533 l 154 533 l 154 394 l 28 394 l 28 231 l 154 231 l 154 0 l 390 0 l 390 231 l 543 231 l 543 394 l 390 394 l 390 533 z "},"ť":{"ha":571,"x_min":0,"x_max":0,"o":"m 450 768 l 581 768 l 646 1053 l 646 1129 l 468 1129 l 468 1053 z m 154 0 l 390 0 l 390 533 l 543 533 l 543 708 l 390 708 l 390 914 l 154 914 l 154 708 l 26 708 l 26 533 l 154 533 z "},"ţ":{"ha":571,"x_min":0,"x_max":0,"o":"m 390 708 l 390 914 l 154 914 l 154 708 l 26 708 l 26 533 l 154 533 l 154 0 l 196 0 l 93 -257 l 93 -264 l 304 -264 l 353 0 l 390 0 l 390 533 l 543 533 l 543 708 z "},"ț":{"ha":571,"x_min":0,"x_max":0,"o":"m 154 0 l 390 0 l 390 533 l 543 533 l 543 708 l 390 708 l 390 914 l 154 914 l 154 708 l 26 708 l 26 533 l 154 533 z m 149 -401 b 390 -193 364 -401 390 -358 l 390 -82 l 157 -82 l 157 -247 l 243 -247 l 243 -262 b 149 -315 243 -306 228 -315 z "},"ṭ":{"ha":571,"x_min":0,"x_max":0,"o":"m 154 0 l 390 0 l 390 533 l 543 533 l 543 708 l 390 708 l 390 914 l 154 914 l 154 708 l 26 708 l 26 533 l 154 533 z m 182 -299 l 364 -299 l 364 -132 l 182 -132 z "},"u":{"ha":821,"x_min":0,"x_max":0,"o":"m 296 -11 b 499 85 382 -11 457 13 l 511 85 l 517 0 l 739 0 l 739 708 l 506 708 l 506 339 b 407 179 506 211 496 179 b 315 335 324 179 315 188 l 315 708 l 82 708 l 82 265 b 296 -11 82 88 108 -11 z "},"ú":{"ha":821,"x_min":0,"x_max":0,"o":"m 288 799 l 453 799 l 638 993 l 638 1000 l 414 1000 l 288 806 z m 296 -11 b 499 85 382 -11 457 13 l 511 85 l 517 0 l 739 0 l 739 708 l 506 708 l 506 339 b 407 179 506 211 496 179 b 315 335 324 179 315 188 l 315 708 l 82 708 l 82 265 b 296 -11 82 88 108 -11 z "},"ŭ":{"ha":821,"x_min":0,"x_max":0,"o":"m 408 790 b 622 997 596 790 622 876 l 494 997 b 408 913 494 947 493 913 b 322 997 322 913 322 947 l 196 997 b 408 790 196 876 221 790 z m 296 -11 b 499 85 382 -11 457 13 l 511 85 l 517 0 l 739 0 l 739 708 l 506 708 l 506 339 b 407 179 506 211 496 179 b 315 335 324 179 315 188 l 315 708 l 82 708 l 82 265 b 296 -11 82 88 108 -11 z "},"ǔ":{"ha":821,"x_min":0,"x_max":0,"o":"m 303 799 l 518 799 l 649 990 l 649 1000 l 499 1000 l 411 890 l 324 1000 l 174 1000 l 174 990 z m 296 -11 b 499 85 382 -11 457 13 l 511 85 l 517 0 l 739 0 l 739 708 l 506 708 l 506 339 b 407 179 506 211 496 179 b 315 335 324 179 315 188 l 315 708 l 82 708 l 82 265 b 296 -11 82 88 108 -11 z "},"û":{"ha":821,"x_min":0,"x_max":0,"o":"m 174 799 l 324 799 l 410 908 l 499 799 l 649 799 l 649 808 l 518 1000 l 303 1000 l 174 808 z m 296 -11 b 499 85 382 -11 457 13 l 511 85 l 517 0 l 739 0 l 739 708 l 506 708 l 506 339 b 407 179 506 211 496 179 b 315 335 324 179 315 188 l 315 708 l 82 708 l 82 265 b 296 -11 82 88 108 -11 z "},"ȕ":{"ha":821,"x_min":0,"x_max":0,"o":"m 226 799 l 363 799 l 363 804 l 254 968 l 71 968 l 71 963 z m 492 799 l 626 799 l 626 804 l 519 968 l 336 968 l 336 963 z m 296 -11 b 499 85 382 -11 457 13 l 511 85 l 517 0 l 739 0 l 739 708 l 506 708 l 506 339 b 407 179 506 211 496 179 b 315 335 324 179 315 188 l 315 708 l 82 708 l 82 265 b 296 -11 82 88 108 -11 z "},"ü":{"ha":821,"x_min":0,"x_max":0,"o":"m 167 822 l 356 822 l 356 976 l 167 976 z m 464 822 l 653 822 l 653 976 l 464 976 z m 296 -11 b 499 85 382 -11 457 13 l 511 85 l 517 0 l 739 0 l 739 708 l 506 708 l 506 339 b 407 179 506 211 496 179 b 315 335 324 179 315 188 l 315 708 l 82 708 l 82 265 b 296 -11 82 88 108 -11 z "},"ǘ":{"ha":821,"x_min":0,"x_max":0,"o":"m 288 1042 l 453 1042 l 638 1236 l 638 1243 l 414 1243 l 288 1049 z m 167 822 l 356 822 l 356 976 l 167 976 z m 464 822 l 653 822 l 653 976 l 464 976 z m 296 -11 b 499 85 382 -11 457 13 l 511 85 l 517 0 l 739 0 l 739 708 l 506 708 l 506 339 b 407 179 506 211 496 179 b 315 335 324 179 315 188 l 315 708 l 82 708 l 82 265 b 296 -11 82 88 108 -11 z "},"ǚ":{"ha":821,"x_min":0,"x_max":0,"o":"m 303 1042 l 518 1042 l 649 1233 l 649 1243 l 499 1243 l 411 1133 l 324 1243 l 174 1243 l 174 1233 z m 167 822 l 356 822 l 356 976 l 167 976 z m 464 822 l 653 822 l 653 976 l 464 976 z m 296 -11 b 499 85 382 -11 457 13 l 511 85 l 517 0 l 739 0 l 739 708 l 506 708 l 506 339 b 407 179 506 211 496 179 b 315 335 324 179 315 188 l 315 708 l 82 708 l 82 265 b 296 -11 82 88 108 -11 z "},"ǜ":{"ha":821,"x_min":0,"x_max":0,"o":"m 351 1042 l 515 1042 l 515 1049 l 389 1243 l 165 1243 l 165 1236 z m 167 822 l 356 822 l 356 976 l 167 976 z m 464 822 l 653 822 l 653 976 l 464 976 z m 296 -11 b 499 85 382 -11 457 13 l 511 85 l 517 0 l 739 0 l 739 708 l 506 708 l 506 339 b 407 179 506 211 496 179 b 315 335 324 179 315 188 l 315 708 l 82 708 l 82 265 b 296 -11 82 88 108 -11 z "},"ǖ":{"ha":821,"x_min":0,"x_max":0,"o":"m 178 1065 l 642 1065 l 642 1199 l 178 1199 z m 167 822 l 356 822 l 356 976 l 167 976 z m 464 822 l 653 822 l 653 976 l 464 976 z m 296 -11 b 499 85 382 -11 457 13 l 511 85 l 517 0 l 739 0 l 739 708 l 506 708 l 506 339 b 407 179 506 211 496 179 b 315 335 324 179 315 188 l 315 708 l 82 708 l 82 265 b 296 -11 82 88 108 -11 z "},"ụ":{"ha":821,"x_min":0,"x_max":0,"o":"m 296 -11 b 499 85 382 -11 457 13 l 511 85 l 517 0 l 739 0 l 739 708 l 506 708 l 506 339 b 407 179 506 211 496 179 b 315 335 324 179 315 188 l 315 708 l 82 708 l 82 265 b 296 -11 82 88 108 -11 z m 292 -299 l 474 -299 l 474 -132 l 292 -132 z "},"ù":{"ha":821,"x_min":0,"x_max":0,"o":"m 351 799 l 515 799 l 515 806 l 389 1000 l 165 1000 l 165 993 z m 296 -11 b 499 85 382 -11 457 13 l 511 85 l 517 0 l 739 0 l 739 708 l 506 708 l 506 339 b 407 179 506 211 496 179 b 315 335 324 179 315 188 l 315 708 l 82 708 l 82 265 b 296 -11 82 88 108 -11 z "},"ủ":{"ha":821,"x_min":0,"x_max":0,"o":"m 322 786 l 443 786 b 489 826 443 808 449 815 l 510 833 b 610 950 588 856 610 876 b 410 1086 610 1079 525 1086 b 229 1072 354 1086 278 1081 l 229 968 b 374 975 267 972 339 975 b 463 935 446 975 463 974 b 414 893 463 910 456 906 l 390 886 b 322 793 333 871 322 846 z m 296 -11 b 499 85 382 -11 457 13 l 511 85 l 517 0 l 739 0 l 739 708 l 506 708 l 506 339 b 407 179 506 211 496 179 b 315 335 324 179 315 188 l 315 708 l 82 708 l 82 265 b 296 -11 82 88 108 -11 z "},"ư":{"ha":821,"x_min":0,"x_max":0,"o":"m 715 832 l 715 799 b 624 708 715 729 706 708 l 506 708 l 506 339 b 407 179 506 211 496 179 b 315 335 324 179 315 188 l 315 708 l 82 708 l 82 265 b 296 -11 82 88 108 -11 b 499 85 382 -11 457 13 l 511 85 l 517 0 l 739 0 l 739 631 b 867 810 849 647 867 697 l 867 832 z "},"ứ":{"ha":821,"x_min":0,"x_max":0,"o":"m 638 993 l 638 1000 l 414 1000 l 288 806 l 288 799 l 453 799 z m 715 832 l 715 799 b 624 708 715 729 706 708 l 506 708 l 506 339 b 407 179 506 211 496 179 b 315 335 324 179 315 188 l 315 708 l 82 708 l 82 265 b 296 -11 82 88 108 -11 b 499 85 382 -11 457 13 l 511 85 l 517 0 l 739 0 l 739 631 b 867 810 849 647 867 697 l 867 832 z "},"ự":{"ha":821,"x_min":0,"x_max":0,"o":"m 715 832 l 715 799 b 624 708 715 729 706 708 l 506 708 l 506 339 b 407 179 506 211 496 179 b 315 335 324 179 315 188 l 315 708 l 82 708 l 82 265 b 296 -11 82 88 108 -11 b 499 85 382 -11 457 13 l 511 85 l 517 0 l 739 0 l 739 631 b 867 810 849 647 867 697 l 867 832 z m 319 -299 l 501 -299 l 501 -132 l 319 -132 z "},"ừ":{"ha":821,"x_min":0,"x_max":0,"o":"m 515 799 l 515 806 l 389 1000 l 165 1000 l 165 993 l 351 799 z m 715 832 l 715 799 b 624 708 715 729 706 708 l 506 708 l 506 339 b 407 179 506 211 496 179 b 315 335 324 179 315 188 l 315 708 l 82 708 l 82 265 b 296 -11 82 88 108 -11 b 499 85 382 -11 457 13 l 511 85 l 517 0 l 739 0 l 739 631 b 867 810 849 647 867 697 l 867 832 z "},"ử":{"ha":821,"x_min":0,"x_max":0,"o":"m 463 935 b 414 893 463 910 456 906 l 390 886 b 322 793 333 871 322 846 l 322 786 l 443 786 b 489 826 443 808 449 815 l 510 833 b 610 950 588 856 610 876 b 410 1086 610 1079 525 1086 b 229 1072 354 1086 278 1081 l 229 968 b 374 975 267 972 339 975 b 463 935 446 975 463 974 z m 715 832 l 715 799 b 624 708 715 729 706 708 l 506 708 l 506 339 b 407 179 506 211 496 179 b 315 335 324 179 315 188 l 315 708 l 82 708 l 82 265 b 296 -11 82 88 108 -11 b 499 85 382 -11 457 13 l 511 85 l 517 0 l 739 0 l 739 631 b 867 810 849 647 867 697 l 867 832 z "},"ữ":{"ha":821,"x_min":0,"x_max":0,"o":"m 304 851 b 392 833 326 851 357 842 b 532 807 433 822 482 807 b 649 1007 646 807 649 881 l 546 1007 b 515 947 546 963 546 947 b 428 965 492 947 463 957 b 288 990 386 976 335 990 b 169 792 172 990 169 918 l 274 792 b 304 851 274 836 274 851 z m 715 832 l 715 799 b 624 708 715 729 706 708 l 506 708 l 506 339 b 407 179 506 211 496 179 b 315 335 324 179 315 188 l 315 708 l 82 708 l 82 265 b 296 -11 82 88 108 -11 b 499 85 382 -11 457 13 l 511 85 l 517 0 l 739 0 l 739 631 b 867 810 849 647 867 697 l 867 832 z "},"ű":{"ha":821,"x_min":0,"x_max":0,"o":"m 201 799 l 336 799 l 492 967 l 492 974 l 308 974 l 201 804 z m 465 799 l 601 799 l 757 967 l 757 974 l 574 974 l 465 804 z m 296 -11 b 499 85 382 -11 457 13 l 511 85 l 517 0 l 739 0 l 739 708 l 506 708 l 506 339 b 407 179 506 211 496 179 b 315 335 324 179 315 188 l 315 708 l 82 708 l 82 265 b 296 -11 82 88 108 -11 z "},"ȗ":{"ha":821,"x_min":0,"x_max":0,"o":"m 411 1010 b 196 801 224 1010 196 924 l 324 801 b 411 888 324 853 325 888 b 496 801 496 888 496 853 l 622 801 b 411 1010 622 924 597 1010 z m 296 -11 b 499 85 382 -11 457 13 l 511 85 l 517 0 l 739 0 l 739 708 l 506 708 l 506 339 b 407 179 506 211 496 179 b 315 335 324 179 315 188 l 315 708 l 82 708 l 82 265 b 296 -11 82 88 108 -11 z "},"ū":{"ha":821,"x_min":0,"x_max":0,"o":"m 178 822 l 642 822 l 642 956 l 178 956 z m 296 -11 b 499 85 382 -11 457 13 l 511 85 l 517 0 l 739 0 l 739 708 l 506 708 l 506 339 b 407 179 506 211 496 179 b 315 335 324 179 315 188 l 315 708 l 82 708 l 82 265 b 296 -11 82 88 108 -11 z "},"ų":{"ha":821,"x_min":0,"x_max":0,"o":"m 717 -160 b 651 -112 664 -160 651 -140 b 739 0 651 -72 703 -21 l 739 708 l 506 708 l 506 339 b 407 179 506 211 496 179 b 315 335 324 179 315 188 l 315 708 l 82 708 l 82 265 b 296 -11 82 88 108 -11 b 499 85 382 -11 457 13 l 511 85 l 517 0 l 551 0 b 463 -160 499 -49 463 -107 b 642 -278 463 -222 500 -278 b 740 -272 672 -278 713 -275 l 740 -158 b 717 -160 729 -160 721 -160 z "},"ů":{"ha":821,"x_min":0,"x_max":0,"o":"m 408 779 b 614 943 597 779 614 824 b 408 1108 614 1063 597 1108 b 204 943 221 1108 204 1063 b 408 779 204 824 221 779 z m 408 871 b 325 943 326 871 325 886 b 408 1017 325 1000 326 1017 b 492 943 492 1017 492 1000 b 408 871 492 886 492 871 z m 296 -11 b 499 85 382 -11 457 13 l 511 85 l 517 0 l 739 0 l 739 708 l 506 708 l 506 339 b 407 179 506 211 496 179 b 315 335 324 179 315 188 l 315 708 l 82 708 l 82 265 b 296 -11 82 88 108 -11 z "},"ũ":{"ha":821,"x_min":0,"x_max":0,"o":"m 143 792 l 258 792 b 293 851 258 836 258 851 b 389 833 317 851 351 842 b 546 807 436 822 490 807 b 676 1007 672 807 676 881 l 561 1007 b 526 947 561 963 561 947 b 431 965 500 947 468 957 b 274 990 383 976 328 990 b 143 792 146 990 143 918 z m 296 -11 b 499 85 382 -11 457 13 l 511 85 l 517 0 l 739 0 l 739 708 l 506 708 l 506 339 b 407 179 506 211 496 179 b 315 335 324 179 315 188 l 315 708 l 82 708 l 82 265 b 296 -11 82 88 108 -11 z "},"v":{"ha":767,"x_min":0,"x_max":0,"o":"m 225 0 l 540 0 l 750 708 l 515 708 l 393 206 l 379 206 l 254 708 l 17 708 z "},"w":{"ha":1174,"x_min":0,"x_max":0,"o":"m 200 0 l 488 0 l 581 360 l 593 360 l 688 0 l 974 0 l 1150 708 l 924 708 l 832 229 l 818 229 l 696 708 l 482 708 l 363 229 l 350 229 l 254 708 l 24 708 z "},"ẃ":{"ha":1174,"x_min":0,"x_max":0,"o":"m 464 799 l 629 799 l 814 993 l 814 1000 l 590 1000 l 464 806 z m 200 0 l 488 0 l 581 360 l 593 360 l 688 0 l 974 0 l 1150 708 l 924 708 l 832 229 l 818 229 l 696 708 l 482 708 l 363 229 l 350 229 l 254 708 l 24 708 z "},"ŵ":{"ha":1174,"x_min":0,"x_max":0,"o":"m 350 799 l 500 799 l 586 908 l 675 799 l 825 799 l 825 808 l 694 1000 l 479 1000 l 350 808 z m 200 0 l 488 0 l 581 360 l 593 360 l 688 0 l 974 0 l 1150 708 l 924 708 l 832 229 l 818 229 l 696 708 l 482 708 l 363 229 l 350 229 l 254 708 l 24 708 z "},"ẅ":{"ha":1174,"x_min":0,"x_max":0,"o":"m 343 822 l 532 822 l 532 976 l 343 976 z m 640 822 l 829 822 l 829 976 l 640 976 z m 200 0 l 488 0 l 581 360 l 593 360 l 688 0 l 974 0 l 1150 708 l 924 708 l 832 229 l 818 229 l 696 708 l 482 708 l 363 229 l 350 229 l 254 708 l 24 708 z "},"ẁ":{"ha":1174,"x_min":0,"x_max":0,"o":"m 529 799 l 693 799 l 693 806 l 567 1000 l 343 1000 l 343 993 z m 200 0 l 488 0 l 581 360 l 593 360 l 688 0 l 974 0 l 1150 708 l 924 708 l 832 229 l 818 229 l 696 708 l 482 708 l 363 229 l 350 229 l 254 708 l 24 708 z "},"x":{"ha":792,"x_min":0,"x_max":0,"o":"m 15 0 l 257 0 l 382 210 l 393 210 l 522 0 l 778 0 l 542 361 l 767 708 l 525 708 l 408 511 l 399 511 l 278 708 l 24 708 l 249 361 z "},"y":{"ha":821,"x_min":0,"x_max":0,"o":"m 383 -286 b 739 79 717 -286 739 -169 l 739 708 l 506 708 l 506 353 b 407 193 506 224 496 193 b 315 347 324 193 315 200 l 315 708 l 82 708 l 82 279 b 296 4 82 100 108 4 b 493 96 382 4 453 26 l 506 96 l 506 36 b 326 -111 506 -94 500 -111 b 135 -110 274 -111 217 -111 l 135 -268 b 383 -286 194 -279 297 -286 z "},"ý":{"ha":821,"x_min":0,"x_max":0,"o":"m 288 799 l 453 799 l 638 993 l 638 1000 l 414 1000 l 288 806 z m 383 -286 b 739 79 717 -286 739 -169 l 739 708 l 506 708 l 506 353 b 407 193 506 224 496 193 b 315 347 324 193 315 200 l 315 708 l 82 708 l 82 279 b 296 4 82 100 108 4 b 493 96 382 4 453 26 l 506 96 l 506 36 b 326 -111 506 -94 500 -111 b 135 -110 274 -111 217 -111 l 135 -268 b 383 -286 194 -279 297 -286 z "},"ŷ":{"ha":821,"x_min":0,"x_max":0,"o":"m 174 799 l 324 799 l 410 908 l 499 799 l 649 799 l 649 808 l 518 1000 l 303 1000 l 174 808 z m 383 -286 b 739 79 717 -286 739 -169 l 739 708 l 506 708 l 506 353 b 407 193 506 224 496 193 b 315 347 324 193 315 200 l 315 708 l 82 708 l 82 279 b 296 4 82 100 108 4 b 493 96 382 4 453 26 l 506 96 l 506 36 b 326 -111 506 -94 500 -111 b 135 -110 274 -111 217 -111 l 135 -268 b 383 -286 194 -279 297 -286 z "},"ÿ":{"ha":821,"x_min":0,"x_max":0,"o":"m 167 822 l 356 822 l 356 976 l 167 976 z m 464 822 l 653 822 l 653 976 l 464 976 z m 383 -286 b 739 79 717 -286 739 -169 l 739 708 l 506 708 l 506 353 b 407 193 506 224 496 193 b 315 347 324 193 315 200 l 315 708 l 82 708 l 82 279 b 296 4 82 100 108 4 b 493 96 382 4 453 26 l 506 96 l 506 36 b 326 -111 506 -94 500 -111 b 135 -110 274 -111 217 -111 l 135 -268 b 383 -286 194 -279 297 -286 z "},"ỵ":{"ha":821,"x_min":0,"x_max":0,"o":"m 383 -286 b 739 79 717 -286 739 -169 l 739 708 l 506 708 l 506 353 b 407 193 506 224 496 193 b 315 347 324 193 315 200 l 315 708 l 82 708 l 82 279 b 296 4 82 100 108 4 b 493 96 382 4 453 26 l 506 96 l 506 36 b 326 -111 506 -94 500 -111 b 135 -110 274 -111 217 -111 l 135 -268 b 383 -286 194 -279 297 -286 z m 293 -585 l 475 -585 l 475 -418 l 293 -418 z "},"ỳ":{"ha":821,"x_min":0,"x_max":0,"o":"m 351 799 l 515 799 l 515 806 l 389 1000 l 165 1000 l 165 993 z m 383 -286 b 739 79 717 -286 739 -169 l 739 708 l 506 708 l 506 353 b 407 193 506 224 496 193 b 315 347 324 193 315 200 l 315 708 l 82 708 l 82 279 b 296 4 82 100 108 4 b 493 96 382 4 453 26 l 506 96 l 506 36 b 326 -111 506 -94 500 -111 b 135 -110 274 -111 217 -111 l 135 -268 b 383 -286 194 -279 297 -286 z "},"ỷ":{"ha":821,"x_min":0,"x_max":0,"o":"m 322 786 l 443 786 b 489 826 443 808 449 815 l 510 833 b 610 950 588 856 610 876 b 410 1086 610 1079 525 1086 b 229 1072 354 1086 278 1081 l 229 968 b 374 975 267 972 339 975 b 463 935 446 975 463 974 b 414 893 463 910 456 906 l 390 886 b 322 793 333 871 322 846 z m 383 -286 b 739 79 717 -286 739 -169 l 739 708 l 506 708 l 506 353 b 407 193 506 224 496 193 b 315 347 324 193 315 200 l 315 708 l 82 708 l 82 279 b 296 4 82 100 108 4 b 493 96 382 4 453 26 l 506 96 l 506 36 b 326 -111 506 -94 500 -111 b 135 -110 274 -111 217 -111 l 135 -268 b 383 -286 194 -279 297 -286 z "},"ȳ":{"ha":821,"x_min":0,"x_max":0,"o":"m 178 822 l 642 822 l 642 956 l 178 956 z m 383 -286 b 739 79 717 -286 739 -169 l 739 708 l 506 708 l 506 353 b 407 193 506 224 496 193 b 315 347 324 193 315 200 l 315 708 l 82 708 l 82 279 b 296 4 82 100 108 4 b 493 96 382 4 453 26 l 506 96 l 506 36 b 326 -111 506 -94 500 -111 b 135 -110 274 -111 217 -111 l 135 -268 b 383 -286 194 -279 297 -286 z "},"ỹ":{"ha":821,"x_min":0,"x_max":0,"o":"m 143 792 l 258 792 b 293 851 258 836 258 851 b 389 833 317 851 351 842 b 546 807 436 822 490 807 b 676 1007 672 807 676 881 l 561 1007 b 526 947 561 963 561 947 b 431 965 500 947 468 957 b 274 990 383 976 328 990 b 143 792 146 990 143 918 z m 383 -286 b 739 79 717 -286 739 -169 l 739 708 l 506 708 l 506 353 b 407 193 506 224 496 193 b 315 347 324 193 315 200 l 315 708 l 82 708 l 82 279 b 296 4 82 100 108 4 b 493 96 382 4 453 26 l 506 96 l 506 36 b 326 -111 506 -94 500 -111 b 135 -110 274 -111 217 -111 l 135 -268 b 383 -286 194 -279 297 -286 z "},"z":{"ha":733,"x_min":0,"x_max":0,"o":"m 58 0 l 674 0 l 674 175 l 353 175 l 671 544 l 671 708 l 75 708 l 75 533 l 378 533 l 58 164 z "},"ź":{"ha":733,"x_min":0,"x_max":0,"o":"m 253 799 l 418 799 l 603 993 l 603 1000 l 379 1000 l 253 806 z m 58 0 l 674 0 l 674 175 l 353 175 l 671 544 l 671 708 l 75 708 l 75 533 l 378 533 l 58 164 z "},"ž":{"ha":733,"x_min":0,"x_max":0,"o":"m 268 799 l 483 799 l 614 990 l 614 1000 l 464 1000 l 376 890 l 289 1000 l 139 1000 l 139 990 z m 58 0 l 674 0 l 674 175 l 353 175 l 671 544 l 671 708 l 75 708 l 75 533 l 378 533 l 58 164 z "},"ż":{"ha":733,"x_min":0,"x_max":0,"o":"m 281 822 l 469 822 l 469 976 l 281 976 z m 58 0 l 674 0 l 674 175 l 353 175 l 671 544 l 671 708 l 75 708 l 75 533 l 378 533 l 58 164 z "},"ẓ":{"ha":733,"x_min":0,"x_max":0,"o":"m 58 0 l 674 0 l 674 175 l 353 175 l 671 544 l 671 708 l 75 708 l 75 533 l 378 533 l 58 164 z m 285 -299 l 467 -299 l 467 -132 l 285 -132 z "},"ﬁ":{"ha":994,"x_min":0,"x_max":0,"o":"m 674 849 l 913 849 l 913 1032 l 674 1032 z m 156 0 l 392 0 l 392 533 l 558 533 l 558 708 l 392 708 l 392 785 b 558 872 392 865 406 872 l 558 1031 b 156 753 225 1031 156 1024 l 156 708 l 28 708 l 28 533 l 156 533 z m 675 0 l 911 0 l 911 708 l 675 708 z "},"ﬂ":{"ha":967,"x_min":0,"x_max":0,"o":"m 647 0 l 883 0 l 883 1032 l 647 1032 z m 156 0 l 392 0 l 392 533 l 558 533 l 558 708 l 392 708 l 392 785 b 558 872 392 865 406 872 l 558 1031 b 156 753 225 1031 156 1024 l 156 708 l 28 708 l 28 533 l 156 533 z "},"ª":{"ha":582,"x_min":0,"x_max":0,"o":"m 193 433 b 340 501 246 433 301 440 l 349 501 l 354 442 l 519 442 l 519 753 b 281 967 519 897 501 967 b 76 949 211 967 136 960 l 76 829 b 222 838 147 835 190 838 b 349 763 336 838 349 833 l 349 743 b 208 747 303 744 235 747 b 47 592 78 747 47 707 b 193 433 47 482 94 433 z m 274 551 b 207 607 214 551 207 564 b 264 663 207 654 214 663 l 349 663 l 349 639 b 339 576 349 610 346 589 b 274 551 328 557 307 551 z "},"º":{"ha":607,"x_min":0,"x_max":0,"o":"m 304 435 b 549 700 521 435 549 488 b 304 967 549 913 521 967 b 58 700 86 967 58 913 b 304 435 58 488 86 435 z m 304 563 b 229 700 229 563 229 575 b 304 839 229 825 229 839 b 378 700 378 839 378 825 b 304 563 378 575 378 563 z "},"Δ":{"ha":960,"x_min":0,"x_max":0,"o":"m 8 0 l 951 0 l 653 956 l 307 956 z m 297 189 l 471 764 l 481 764 l 654 189 z "},"Ω":{"ha":982,"x_min":0,"x_max":0,"o":"m 75 0 l 425 0 l 425 185 b 333 490 344 200 333 307 b 492 775 333 757 339 775 b 649 490 643 775 649 756 b 558 185 649 307 639 200 l 558 0 l 908 0 l 908 192 l 888 192 l 722 143 l 722 153 b 904 533 846 206 904 326 b 492 967 904 818 889 967 b 78 533 94 967 78 818 b 261 153 78 326 136 206 l 261 143 l 94 192 l 75 192 z "},"μ":{"ha":821,"x_min":0,"x_max":0,"o":"m 506 708 l 506 339 b 407 179 506 211 496 179 b 315 335 324 179 315 188 l 315 708 l 82 708 l 82 -262 l 315 -262 l 315 -6 b 499 85 411 -4 463 31 l 511 85 l 517 0 l 739 0 l 739 708 z "},"π":{"ha":818,"x_min":0,"x_max":0,"o":"m 85 0 l 321 0 l 321 533 l 497 533 l 497 0 l 732 0 l 732 708 l 85 708 z "},"₀":{"ha":526,"x_min":0,"x_max":0,"o":"m 263 -144 b 481 125 464 -144 481 -112 b 263 396 481 363 464 396 b 46 125 61 396 46 363 b 263 -144 46 -112 61 -144 z m 263 -36 b 194 125 196 -36 194 -33 b 263 286 194 283 196 286 b 332 125 331 286 332 283 b 263 -36 332 -33 331 -36 z "},"₁":{"ha":319,"x_min":0,"x_max":0,"o":"m 113 -139 l 256 -139 l 256 389 l 157 389 l 14 318 l 14 206 l 113 247 z "},"₂":{"ha":488,"x_min":0,"x_max":0,"o":"m 43 -139 l 442 -139 l 442 -28 l 186 -28 l 186 -3 b 215 38 186 19 188 28 l 343 86 b 442 246 417 115 442 151 b 247 396 442 379 353 396 b 54 378 185 396 106 388 l 54 275 b 211 286 114 282 176 286 b 293 239 278 286 293 282 b 249 179 293 201 292 197 l 133 133 b 43 -43 46 99 43 44 z "},"₃":{"ha":485,"x_min":0,"x_max":0,"o":"m 218 -144 b 439 3 399 -144 439 -90 b 340 129 439 89 404 114 l 340 132 b 435 257 403 146 435 179 b 219 396 435 350 383 396 b 44 379 168 396 93 388 l 44 276 b 194 286 89 282 150 286 b 286 235 269 286 286 282 b 224 181 286 189 271 181 l 133 181 l 133 75 l 224 75 b 290 17 275 75 290 67 b 203 -36 290 -33 268 -36 b 42 -28 164 -36 97 -32 l 42 -129 b 218 -144 92 -137 167 -144 z "},"₄":{"ha":514,"x_min":0,"x_max":0,"o":"m 283 -139 l 428 -139 l 428 -36 l 492 -36 l 492 72 l 428 72 l 428 193 l 332 193 l 289 72 l 181 72 l 360 389 l 201 389 l 29 61 l 29 -36 l 283 -36 z "},"₅":{"ha":500,"x_min":0,"x_max":0,"o":"m 236 -144 b 457 36 415 -144 457 -87 b 290 194 457 136 426 194 b 192 189 254 194 219 193 l 192 278 l 418 278 l 418 389 l 65 389 l 65 81 b 214 89 111 85 172 89 b 308 26 293 89 308 81 b 215 -36 308 -29 294 -36 b 60 -28 176 -36 110 -32 l 60 -129 b 236 -144 113 -137 185 -144 z "},"₆":{"ha":525,"x_min":0,"x_max":0,"o":"m 274 -144 b 488 39 449 -144 488 -93 b 314 194 488 172 426 194 b 197 158 235 194 208 171 l 193 158 b 307 286 193 269 207 286 b 456 276 336 286 394 282 l 456 379 b 281 396 396 389 324 396 b 65 292 156 396 93 369 b 46 124 50 253 46 197 b 63 -50 46 40 51 -19 b 274 -144 93 -133 156 -144 z m 269 -39 b 194 31 213 -39 194 -36 b 269 89 194 74 200 89 b 347 24 335 89 347 83 b 269 -39 347 -35 333 -39 z "},"₇":{"ha":456,"x_min":0,"x_max":0,"o":"m 78 -139 l 239 -139 l 426 288 l 426 389 l 28 389 l 28 278 l 272 278 z "},"₈":{"ha":540,"x_min":0,"x_max":0,"o":"m 269 -144 b 497 3 456 -144 497 -92 b 399 129 497 88 463 115 l 399 132 b 492 257 461 146 492 181 b 269 396 492 350 440 396 b 49 257 100 396 49 350 b 142 132 49 181 79 146 l 142 129 b 44 3 79 115 44 88 b 269 -144 44 -92 86 -144 z m 271 174 b 196 231 207 174 196 181 b 271 292 196 283 206 292 b 346 231 335 292 346 283 b 271 174 346 181 335 174 z m 271 -42 b 192 19 207 -42 192 -35 b 271 82 192 75 206 82 b 350 19 336 82 350 75 b 271 -42 350 -35 335 -42 z "},"₉":{"ha":525,"x_min":0,"x_max":0,"o":"m 244 -144 b 454 -56 360 -144 422 -122 b 479 125 472 -15 479 43 b 464 297 479 200 476 254 b 251 396 440 381 378 396 b 38 211 76 396 38 342 b 211 54 38 78 99 54 b 328 90 290 54 317 78 l 332 90 b 218 -36 332 -19 318 -36 b 69 -26 189 -36 129 -32 l 69 -128 b 244 -144 125 -137 200 -144 z m 256 161 b 178 226 190 161 178 167 b 256 288 178 283 192 288 b 331 219 313 288 331 285 b 256 161 331 175 325 161 z "},"⁰":{"ha":526,"x_min":0,"x_max":0,"o":"m 263 578 b 481 847 464 578 481 610 b 263 1118 481 1085 464 1118 b 46 847 61 1118 46 1085 b 263 578 46 610 61 578 z m 263 686 b 194 847 196 686 194 689 b 263 1008 194 1006 196 1008 b 332 847 331 1008 332 1006 b 263 686 332 689 331 686 z "},"¹":{"ha":319,"x_min":0,"x_max":0,"o":"m 113 583 l 256 583 l 256 1111 l 157 1111 l 14 1040 l 14 928 l 113 969 z "},"²":{"ha":488,"x_min":0,"x_max":0,"o":"m 43 583 l 442 583 l 442 694 l 186 694 l 186 719 b 215 760 186 742 188 750 l 343 808 b 442 968 417 838 442 874 b 247 1118 442 1101 353 1118 b 54 1100 185 1118 106 1110 l 54 997 b 211 1008 114 1004 176 1008 b 293 961 278 1008 293 1004 b 249 901 293 924 292 919 l 133 856 b 43 679 46 821 43 767 z "},"³":{"ha":485,"x_min":0,"x_max":0,"o":"m 218 578 b 439 725 399 578 439 632 b 340 851 439 811 404 836 l 340 854 b 435 979 403 868 435 901 b 219 1118 435 1072 383 1118 b 44 1101 168 1118 93 1110 l 44 999 b 194 1008 89 1004 150 1008 b 286 957 269 1008 286 1004 b 224 903 286 911 271 903 l 133 903 l 133 797 l 224 797 b 290 739 275 797 290 789 b 203 686 290 689 268 686 b 42 694 164 686 97 690 l 42 593 b 218 578 92 585 167 578 z "},"⁴":{"ha":514,"x_min":0,"x_max":0,"o":"m 283 583 l 428 583 l 428 686 l 492 686 l 492 794 l 428 794 l 428 915 l 332 915 l 289 794 l 181 794 l 360 1111 l 201 1111 l 29 783 l 29 686 l 283 686 z "},"⁵":{"ha":500,"x_min":0,"x_max":0,"o":"m 236 578 b 457 758 415 578 457 635 b 290 917 457 858 426 917 b 192 911 254 917 219 915 l 192 1000 l 418 1000 l 418 1111 l 65 1111 l 65 803 b 214 811 111 807 172 811 b 308 749 293 811 308 803 b 215 686 308 693 294 686 b 60 694 176 686 110 690 l 60 593 b 236 578 113 585 185 578 z "},"⁶":{"ha":525,"x_min":0,"x_max":0,"o":"m 274 578 b 488 761 449 578 488 629 b 314 917 488 894 426 917 b 197 881 235 917 208 893 l 193 881 b 307 1008 193 992 207 1008 b 456 999 336 1008 394 1004 l 456 1101 b 281 1118 396 1111 324 1118 b 65 1014 156 1118 93 1092 b 46 846 50 975 46 919 b 63 672 46 763 51 703 b 274 578 93 589 156 578 z m 269 683 b 194 753 213 683 194 686 b 269 811 194 796 200 811 b 347 746 335 811 347 806 b 269 683 347 688 333 683 z "},"⁷":{"ha":456,"x_min":0,"x_max":0,"o":"m 78 583 l 239 583 l 426 1010 l 426 1111 l 28 1111 l 28 1000 l 272 1000 z "},"⁸":{"ha":540,"x_min":0,"x_max":0,"o":"m 269 578 b 497 725 456 578 497 631 b 399 851 497 810 463 838 l 399 854 b 492 979 461 868 492 903 b 269 1118 492 1072 440 1118 b 49 979 100 1118 49 1072 b 142 854 49 903 79 868 l 142 851 b 44 725 79 838 44 810 b 269 578 44 631 86 578 z m 271 896 b 196 953 207 896 196 903 b 271 1014 196 1006 206 1014 b 346 953 335 1014 346 1006 b 271 896 346 903 335 896 z m 271 681 b 192 742 207 681 192 688 b 271 804 192 797 206 804 b 350 742 336 804 350 797 b 271 681 350 688 335 681 z "},"⁹":{"ha":525,"x_min":0,"x_max":0,"o":"m 244 578 b 454 667 360 578 422 600 b 479 847 472 707 479 765 b 464 1019 479 922 476 976 b 251 1118 440 1103 378 1118 b 38 933 76 1118 38 1064 b 211 776 38 800 99 776 b 328 813 290 776 317 800 l 332 813 b 218 686 332 703 318 686 b 69 696 189 686 129 690 l 69 594 b 244 578 125 585 200 578 z m 256 883 b 178 949 190 883 178 889 b 256 1010 178 1006 192 1010 b 331 942 313 1010 331 1007 b 256 883 331 897 325 883 z "},"⁄":{"ha":228,"x_min":0,"x_max":0,"o":"m -271 0 l -125 0 l 499 956 l 353 956 z "},"½":{"ha":1035,"x_min":0,"x_max":0,"o":"m 113 428 l 256 428 l 256 956 l 157 956 l 14 885 l 14 772 l 113 814 z m 49 0 l 194 0 l 818 956 l 672 956 z m 590 0 l 989 0 l 989 111 l 733 111 l 733 136 b 763 176 733 158 735 167 l 890 225 b 989 385 964 254 989 290 b 794 535 989 518 900 535 b 601 517 732 535 653 526 l 601 414 b 758 425 661 421 724 425 b 840 378 825 425 840 421 b 796 318 840 340 839 336 l 681 272 b 590 96 593 238 590 183 z "},"⅓":{"ha":1032,"x_min":0,"x_max":0,"o":"m 113 428 l 256 428 l 256 956 l 157 956 l 14 885 l 14 772 l 113 814 z m 49 0 l 194 0 l 818 956 l 672 956 z m 765 -6 b 986 142 946 -6 986 49 b 888 268 986 228 951 253 l 888 271 b 982 396 950 285 982 318 b 767 535 982 489 931 535 b 592 518 715 535 640 526 l 592 415 b 742 425 636 421 697 425 b 833 374 817 425 833 421 b 771 319 833 328 818 319 l 681 319 l 681 214 l 771 214 b 838 156 822 214 838 206 b 750 103 838 106 815 103 b 589 111 711 103 644 107 l 589 10 b 765 -6 639 1 714 -6 z "},"⅔":{"ha":1200,"x_min":0,"x_max":0,"o":"m 43 428 l 442 428 l 442 539 l 186 539 l 186 564 b 215 604 186 586 188 594 l 343 653 b 442 813 417 682 442 718 b 247 963 442 946 353 963 b 54 944 185 963 106 954 l 54 842 b 211 853 114 849 176 853 b 293 806 278 853 293 849 b 249 746 293 768 292 764 l 133 700 b 43 524 46 665 43 611 z m 217 0 l 363 0 l 986 956 l 840 956 z m 933 -6 b 1154 142 1114 -6 1154 49 b 1056 268 1154 228 1119 253 l 1056 271 b 1150 396 1118 285 1150 318 b 935 535 1150 489 1099 535 b 760 518 883 535 808 526 l 760 415 b 910 425 804 421 865 425 b 1001 374 985 425 1001 421 b 939 319 1001 328 986 319 l 849 319 l 849 214 l 939 214 b 1006 156 990 214 1006 206 b 918 103 1006 106 983 103 b 757 111 879 103 813 107 l 757 10 b 933 -6 807 1 882 -6 z "},"¼":{"ha":978,"x_min":0,"x_max":0,"o":"m 113 428 l 256 428 l 256 956 l 157 956 l 14 885 l 14 772 l 113 814 z m 49 0 l 194 0 l 818 956 l 672 956 z m 747 0 l 892 0 l 892 103 l 956 103 l 956 211 l 892 211 l 892 332 l 796 332 l 753 211 l 644 211 l 824 528 l 665 528 l 493 200 l 493 103 l 747 103 z "},"¾":{"ha":1143,"x_min":0,"x_max":0,"o":"m 218 422 b 439 569 399 422 439 476 b 340 696 439 656 404 681 l 340 699 b 435 824 403 713 435 746 b 219 963 435 917 383 963 b 44 946 168 963 93 954 l 44 843 b 194 853 89 849 150 853 b 286 801 269 853 286 849 b 224 747 286 756 271 747 l 133 747 l 133 642 l 224 642 b 290 583 275 642 290 633 b 203 531 290 533 268 531 b 42 539 164 531 97 535 l 42 438 b 218 422 92 429 167 422 z m 214 0 l 360 0 l 983 956 l 838 956 z m 913 0 l 1057 0 l 1057 103 l 1121 103 l 1121 211 l 1057 211 l 1057 332 l 961 332 l 918 211 l 810 211 l 989 528 l 831 528 l 658 200 l 658 103 l 913 103 z "},"⅛":{"ha":1088,"x_min":0,"x_max":0,"o":"m 113 428 l 256 428 l 256 956 l 157 956 l 14 885 l 14 772 l 113 814 z m 49 0 l 194 0 l 818 956 l 672 956 z m 817 -6 b 1044 142 1003 -6 1044 47 b 946 268 1044 226 1010 254 l 946 271 b 1039 396 1008 285 1039 319 b 817 535 1039 489 988 535 b 596 396 647 535 596 489 b 689 271 596 319 626 285 l 689 268 b 592 142 626 254 592 226 b 817 -6 592 47 633 -6 z m 818 313 b 743 369 754 313 743 319 b 818 431 743 422 753 431 b 893 369 882 431 893 422 b 818 313 893 319 882 313 z m 818 97 b 739 158 754 97 739 104 b 818 221 739 214 753 221 b 897 158 883 221 897 214 b 818 97 897 104 882 97 z "},"⅜":{"ha":1253,"x_min":0,"x_max":0,"o":"m 218 422 b 439 569 399 422 439 476 b 340 696 439 656 404 681 l 340 699 b 435 824 403 713 435 746 b 219 963 435 917 383 963 b 44 946 168 963 93 954 l 44 843 b 194 853 89 849 150 853 b 286 801 269 853 286 849 b 224 747 286 756 271 747 l 133 747 l 133 642 l 224 642 b 290 583 275 642 290 633 b 203 531 290 533 268 531 b 42 539 164 531 97 535 l 42 438 b 218 422 92 429 167 422 z m 214 0 l 360 0 l 983 956 l 838 956 z m 982 -6 b 1210 142 1168 -6 1210 47 b 1111 268 1210 226 1175 254 l 1111 271 b 1204 396 1174 285 1204 319 b 982 535 1204 489 1153 535 b 761 396 813 535 761 489 b 854 271 761 319 792 285 l 854 268 b 757 142 792 254 757 226 b 982 -6 757 47 799 -6 z m 983 313 b 908 369 919 313 908 319 b 983 431 908 422 918 431 b 1058 369 1047 431 1058 422 b 983 313 1058 319 1047 313 z m 983 97 b 904 158 919 97 904 104 b 983 221 904 214 918 221 b 1063 158 1049 221 1063 214 b 983 97 1063 104 1047 97 z "},"⅝":{"ha":1268,"x_min":0,"x_max":0,"o":"m 236 422 b 457 603 415 422 457 479 b 290 761 457 703 426 761 b 192 756 254 761 219 760 l 192 844 l 418 844 l 418 956 l 65 956 l 65 647 b 214 656 111 651 172 656 b 308 593 293 656 308 647 b 215 531 308 538 294 531 b 60 539 176 531 110 535 l 60 438 b 236 422 113 429 185 422 z m 229 0 l 375 0 l 999 956 l 853 956 z m 997 -6 b 1225 142 1183 -6 1225 47 b 1126 268 1225 226 1190 254 l 1126 271 b 1219 396 1189 285 1219 319 b 997 535 1219 489 1168 535 b 776 396 828 535 776 489 b 869 271 776 319 807 285 l 869 268 b 772 142 807 254 772 226 b 997 -6 772 47 814 -6 z m 999 313 b 924 369 935 313 924 319 b 999 431 924 422 933 431 b 1074 369 1063 431 1074 422 b 999 313 1074 319 1063 313 z m 999 97 b 919 158 935 97 919 104 b 999 221 919 214 933 221 b 1078 158 1064 221 1078 214 b 999 97 1078 104 1063 97 z "},"⅞":{"ha":1165,"x_min":0,"x_max":0,"o":"m 78 428 l 239 428 l 426 854 l 426 956 l 28 956 l 28 844 l 272 844 z m 126 0 l 272 0 l 896 956 l 750 956 z m 894 -6 b 1122 142 1081 -6 1122 47 b 1024 268 1122 226 1088 254 l 1024 271 b 1117 396 1086 285 1117 319 b 894 535 1117 489 1065 535 b 674 396 725 535 674 489 b 767 271 674 319 704 285 l 767 268 b 669 142 704 254 669 226 b 894 -6 669 47 711 -6 z m 896 313 b 821 369 832 313 821 319 b 896 431 821 422 831 431 b 971 369 960 431 971 422 b 896 313 971 319 960 313 z m 896 97 b 817 158 832 97 817 104 b 896 221 817 214 831 221 b 975 158 961 221 975 214 b 896 97 975 104 960 97 z "},".":{"ha":425,"x_min":0,"x_max":0,"o":"m 89 0 l 336 0 l 336 207 l 89 207 z "},",":{"ha":425,"x_min":0,"x_max":0,"o":"m 79 -207 b 336 53 306 -207 336 -154 l 336 207 l 89 207 l 89 0 l 178 0 l 178 -22 b 79 -117 178 -97 163 -117 z "},":":{"ha":425,"x_min":0,"x_max":0,"o":"m 89 501 l 336 501 l 336 708 l 89 708 z m 89 0 l 336 0 l 336 207 l 89 207 z "},";":{"ha":425,"x_min":0,"x_max":0,"o":"m 89 501 l 336 501 l 336 708 l 89 708 z m 79 -207 b 336 53 306 -207 336 -154 l 336 207 l 89 207 l 89 0 l 178 0 l 178 -22 b 79 -117 178 -97 163 -117 z "},"…":{"ha":1274,"x_min":0,"x_max":0,"o":"m 89 0 l 336 0 l 336 207 l 89 207 z m 514 0 l 760 0 l 760 207 l 514 207 z m 938 0 l 1185 0 l 1185 207 l 938 207 z "},"!":{"ha":468,"x_min":0,"x_max":0,"o":"m 158 326 l 331 326 b 379 900 357 571 379 836 l 379 956 l 110 956 l 110 900 b 158 326 110 836 133 571 z m 122 0 l 368 0 l 368 207 l 122 207 z "},"¡":{"ha":444,"x_min":0,"x_max":0,"o":"m 97 501 l 344 501 l 344 708 l 97 708 z m 86 -247 l 356 -247 l 356 -192 b 307 382 356 -128 332 138 l 135 382 b 86 -192 110 138 86 -128 z "},"?":{"ha":718,"x_min":0,"x_max":0,"o":"m 189 326 l 396 326 l 396 367 b 458 464 396 444 400 443 l 501 479 b 642 707 581 507 642 546 b 339 967 642 925 521 967 b 49 940 247 967 126 956 l 49 760 b 269 775 104 768 213 775 b 394 693 364 775 394 772 b 329 597 394 624 385 615 l 286 582 b 189 418 221 560 189 529 z m 169 0 l 417 0 l 417 207 l 169 207 z "},"¿":{"ha":638,"x_min":0,"x_max":0,"o":"m 299 501 l 544 501 l 544 708 l 299 708 z m 376 -258 b 665 -232 467 -258 586 -247 l 665 -51 b 446 -67 599 -60 503 -67 b 321 15 350 -67 321 -64 b 390 113 321 83 329 93 l 428 126 b 525 290 493 149 525 179 l 525 382 l 319 382 l 319 342 b 253 243 319 264 315 265 l 194 224 b 72 1 108 193 72 136 b 376 -258 72 -196 163 -258 z "},"·":{"ha":425,"x_min":0,"x_max":0,"o":"m 89 313 l 336 313 l 336 519 l 89 519 z "},"•":{"ha":549,"x_min":0,"x_max":0,"o":"m 272 306 b 444 475 438 306 444 329 b 272 649 444 625 438 649 b 104 475 111 649 104 625 b 272 306 104 329 111 306 z "},"*":{"ha":626,"x_min":0,"x_max":0,"o":"m 254 444 l 372 444 l 357 622 l 507 518 l 567 624 l 401 699 l 567 776 l 507 881 l 357 778 l 372 956 l 254 956 l 269 776 l 119 881 l 60 776 l 224 699 l 60 624 l 119 518 l 269 622 z "},"‼":{"ha":833,"x_min":0,"x_max":0,"o":"m 158 326 l 331 326 b 379 900 357 571 379 836 l 379 956 l 110 956 l 110 900 b 158 326 110 836 133 571 z m 524 326 l 697 326 b 744 900 722 571 744 836 l 744 956 l 476 956 l 476 900 b 524 326 476 836 499 571 z m 122 0 l 368 0 l 368 207 l 122 207 z m 488 0 l 733 0 l 733 207 l 488 207 z "},"#":{"ha":1001,"x_min":0,"x_max":0,"o":"m 136 0 l 290 0 l 346 242 l 517 242 l 461 0 l 614 0 l 669 242 l 849 242 l 849 385 l 703 385 l 744 568 l 900 568 l 900 711 l 778 711 l 835 956 l 682 956 l 624 711 l 453 711 l 511 956 l 357 956 l 300 711 l 122 711 l 122 568 l 267 568 l 225 385 l 71 385 l 71 242 l 192 242 z m 378 385 l 421 568 l 592 568 l 549 385 z "},"/":{"ha":574,"x_min":0,"x_max":0,"o":"m -14 -76 l 182 -76 l 586 1032 l 389 1032 z "},"\\":{"ha":574,"x_min":0,"x_max":0,"o":"m 390 -76 l 586 -76 l 183 1032 l -14 1032 z "},"(":{"ha":499,"x_min":0,"x_max":0,"o":"m 318 -208 l 469 -208 b 303 413 360 -64 303 0 b 469 1032 303 824 360 888 l 318 1032 b 88 413 146 857 88 776 b 318 -208 88 47 146 -21 z "},")":{"ha":499,"x_min":0,"x_max":0,"o":"m 29 -208 l 181 -208 b 411 413 351 -21 411 47 b 181 1032 411 776 351 857 l 29 1032 b 196 413 138 888 196 824 b 29 -208 196 0 138 -64 z "},"{":{"ha":511,"x_min":0,"x_max":0,"o":"m 331 -208 l 483 -208 b 357 35 419 -153 357 -53 l 357 204 b 189 407 357 310 308 386 l 189 417 b 357 618 308 438 357 514 l 357 789 b 483 1032 357 876 419 976 l 331 1032 b 150 765 239 989 150 883 l 150 611 b 31 460 150 539 131 469 l 31 363 b 150 213 131 353 150 285 l 150 58 b 331 -208 150 -60 239 -165 z "},"}":{"ha":511,"x_min":0,"x_max":0,"o":"m 28 -208 l 179 -208 b 361 58 272 -165 361 -60 l 361 213 b 479 363 361 285 379 353 l 479 460 b 361 611 379 469 361 539 l 361 765 b 179 1032 361 883 272 989 l 28 1032 b 154 789 92 976 154 876 l 154 618 b 322 417 154 514 203 438 l 322 407 b 154 204 203 386 154 310 l 154 35 b 28 -208 154 -53 92 -153 z "},"[":{"ha":535,"x_min":0,"x_max":0,"o":"m 101 -208 l 472 -208 l 472 -68 l 307 -62 l 307 886 l 472 892 l 472 1032 l 101 1032 z "},"]":{"ha":535,"x_min":0,"x_max":0,"o":"m 63 -208 l 433 -208 l 433 1032 l 63 1032 l 63 892 l 228 886 l 228 -62 l 63 -68 z "},"-":{"ha":519,"x_min":0,"x_max":0,"o":"m 68 303 l 451 303 l 451 488 l 68 488 z "},"­":{"ha":519,"x_min":0,"x_max":0,"o":"m 68 303 l 451 303 l 451 488 l 68 488 z "},"–":{"ha":664,"x_min":0,"x_max":0,"o":"m 60 340 l 603 340 l 603 504 l 60 504 z "},"—":{"ha":1219,"x_min":0,"x_max":0,"o":"m 60 340 l 1158 340 l 1158 504 l 60 504 z "},"‐":{"ha":519,"x_min":0,"x_max":0,"o":"m 68 303 l 451 303 l 451 488 l 68 488 z "},"_":{"ha":542,"x_min":0,"x_max":0,"o":"m 0 -258 l 542 -258 l 542 -93 l 0 -93 z "},"‗":{"ha":542,"x_min":0,"x_max":0,"o":"m 0 -229 l 542 -229 l 542 -89 l 0 -89 z m 0 -403 l 542 -403 l 542 -262 l 0 -262 z "},"‚":{"ha":413,"x_min":0,"x_max":0,"o":"m 81 -196 b 322 49 296 -196 322 -146 l 322 194 l 90 194 l 90 0 l 175 0 l 175 -21 b 81 -111 175 -92 160 -111 z "},"„":{"ha":726,"x_min":0,"x_max":0,"o":"m 81 -196 b 322 49 296 -196 322 -146 l 322 194 l 90 194 l 90 0 l 175 0 l 175 -21 b 81 -111 175 -92 160 -111 z m 394 -196 b 636 49 610 -196 636 -146 l 636 194 l 404 194 l 404 0 l 489 0 l 489 -21 b 394 -111 489 -92 475 -111 z "},"“":{"ha":726,"x_min":0,"x_max":0,"o":"m 90 565 l 322 565 l 322 760 l 238 760 l 238 782 b 331 871 238 853 251 871 l 331 957 b 90 711 117 957 90 906 z m 404 565 l 636 565 l 636 760 l 551 760 l 551 782 b 646 871 551 853 565 871 l 646 957 b 404 711 431 957 404 906 z "},"”":{"ha":726,"x_min":0,"x_max":0,"o":"m 81 565 b 322 811 296 565 322 615 l 322 957 l 90 957 l 90 763 l 175 763 l 175 740 b 81 651 175 669 160 651 z m 394 565 b 636 811 610 565 636 615 l 636 957 l 404 957 l 404 763 l 489 763 l 489 740 b 394 651 489 669 475 651 z "},"‘":{"ha":413,"x_min":0,"x_max":0,"o":"m 90 565 l 322 565 l 322 760 l 238 760 l 238 782 b 331 871 238 853 251 871 l 331 957 b 90 711 117 957 90 906 z "},"’":{"ha":413,"x_min":0,"x_max":0,"o":"m 81 565 b 322 811 296 565 322 615 l 322 957 l 90 957 l 90 763 l 175 763 l 175 740 b 81 651 175 669 160 651 z "},"«":{"ha":701,"x_min":0,"x_max":0,"o":"m 214 138 l 361 138 l 217 422 l 361 708 l 214 708 l 31 422 z m 485 138 l 632 138 l 488 422 l 632 708 l 485 708 l 301 422 z "},"»":{"ha":701,"x_min":0,"x_max":0,"o":"m 69 138 l 218 138 l 401 422 l 218 708 l 69 708 l 214 422 z m 340 138 l 489 138 l 672 422 l 489 708 l 340 708 l 485 422 z "},"‹":{"ha":432,"x_min":0,"x_max":0,"o":"m 213 138 l 361 138 l 217 422 l 361 708 l 213 708 l 29 422 z "},"›":{"ha":432,"x_min":0,"x_max":0,"o":"m 69 138 l 218 138 l 401 422 l 218 708 l 69 708 l 214 422 z "},"\"":{"ha":674,"x_min":0,"x_max":0,"o":"m 115 594 l 272 594 l 297 879 l 297 956 l 90 956 l 90 879 z m 400 594 l 558 594 l 582 879 l 582 956 l 375 956 l 375 879 z "},"'":{"ha":388,"x_min":0,"x_max":0,"o":"m 115 594 l 272 594 l 297 879 l 297 956 l 90 956 l 90 879 z "},"⟨":{"ha":443,"x_min":0,"x_max":0,"o":"m 239 -86 l 435 -86 l 231 478 l 436 1042 l 239 1042 l 33 478 z "},"⟩":{"ha":443,"x_min":0,"x_max":0,"o":"m 8 -86 l 204 -86 l 410 478 l 204 1042 l 8 1042 l 214 478 z "}," ":{"ha":1389,"x_min":0,"x_max":0,"o":""}," ":{"ha":417,"x_min":0,"x_max":0,"o":""}," ":{"ha":347,"x_min":0,"x_max":0,"o":""}," ":{"ha":353,"x_min":0,"x_max":0,"o":""}," ":{"ha":463,"x_min":0,"x_max":0,"o":""},"₵":{"ha":790,"x_min":0,"x_max":0,"o":"m 732 193 b 542 181 679 186 600 181 b 328 478 336 181 328 204 b 542 775 328 750 336 775 b 726 763 576 775 635 771 l 726 942 b 565 964 686 951 626 960 l 565 1071 l 394 1071 l 394 964 b 74 478 113 946 74 826 b 394 -8 74 129 113 10 l 394 -115 l 565 -115 l 565 -8 b 732 11 626 -4 689 3 z "},"¢":{"ha":651,"x_min":0,"x_max":0,"o":"m 588 286 b 439 275 546 279 483 275 b 306 475 321 275 306 301 b 438 676 306 647 319 676 b 582 665 485 676 546 671 l 582 833 b 461 854 536 846 499 851 l 461 967 l 290 967 l 290 853 b 68 474 104 829 68 683 b 290 99 68 238 110 122 l 290 -11 l 461 -11 l 461 97 b 588 118 515 100 551 108 z "},"₡":{"ha":790,"x_min":0,"x_max":0,"o":"m 842 1071 l 715 1071 l 693 949 b 640 956 676 951 658 954 l 661 1071 l 533 1071 l 514 967 l 481 967 b 74 478 121 967 74 860 b 336 -3 74 154 107 28 l 315 -115 l 444 -115 l 464 -11 b 481 -11 469 -11 475 -11 l 517 -11 l 497 -115 l 625 -115 l 646 -1 b 732 11 678 1 708 7 l 732 193 b 681 188 717 192 699 189 z m 328 478 b 479 774 328 719 335 767 l 375 208 b 328 478 331 243 328 317 z m 542 181 l 499 181 l 607 772 l 660 768 l 551 181 z "},"¤":{"ha":946,"x_min":0,"x_max":0,"o":"m 178 0 l 294 117 b 472 101 340 106 399 101 b 649 117 546 101 604 106 l 767 -1 l 886 117 l 783 219 b 811 479 807 276 811 361 b 783 739 811 597 807 681 l 886 840 l 768 957 l 650 839 b 472 856 606 850 547 856 b 296 840 399 856 340 851 l 178 957 l 60 839 l 161 738 b 135 479 138 679 135 597 b 163 218 135 360 138 275 l 61 117 z m 472 275 b 368 479 368 275 368 292 b 472 681 368 665 368 681 b 578 479 576 681 578 665 b 472 275 578 292 576 275 z "},"$":{"ha":749,"x_min":0,"x_max":0,"o":"m 292 -11 l 461 -11 l 461 96 b 676 333 624 113 676 172 b 504 558 676 511 619 543 l 354 576 b 292 631 296 585 292 588 b 431 682 292 678 314 682 b 638 669 476 682 561 676 l 638 838 b 461 857 588 846 532 853 l 461 967 l 292 967 l 292 856 b 71 633 144 839 71 783 b 257 399 71 504 92 419 l 390 381 b 456 328 450 372 456 369 b 315 271 456 281 450 271 b 93 282 232 271 132 278 l 93 114 b 292 94 158 106 229 99 z "},"₫":{"ha":792,"x_min":0,"x_max":0,"o":"m 776 956 l 694 956 l 694 1032 l 475 1032 l 475 956 l 307 956 l 307 833 l 475 833 l 475 633 l 464 633 b 282 718 422 706 358 718 b 67 411 132 718 67 638 b 283 107 67 186 133 107 b 468 203 356 107 429 124 l 481 203 l 486 118 l 694 118 l 694 833 l 776 833 z m 375 268 b 286 414 294 268 286 283 b 375 558 286 543 294 558 b 475 421 461 558 475 539 b 375 268 475 288 461 268 z m 81 0 l 694 0 l 694 69 l 81 69 z "},"€":{"ha":847,"x_min":0,"x_max":0,"o":"m 542 -11 b 789 11 633 -11 733 -1 l 789 190 b 603 178 742 183 668 178 b 393 313 447 178 404 192 l 715 313 l 715 432 l 389 432 l 389 525 l 715 525 l 715 643 l 393 643 b 603 778 404 764 449 778 b 783 765 646 778 726 771 l 783 942 b 542 967 733 954 635 967 b 147 643 250 967 167 878 l 43 643 l 43 525 l 142 525 l 142 432 l 43 432 l 43 313 l 147 313 b 542 -11 167 67 247 -11 z "},"ƒ":{"ha":706,"x_min":0,"x_max":0,"o":"m 663 871 l 696 1031 b 225 711 343 1031 293 1021 l 225 708 l 96 708 l 60 533 l 188 533 l 68 -25 b -115 -112 50 -106 35 -112 l -149 -271 b 307 -8 197 -271 251 -264 l 422 533 l 590 533 l 626 708 l 460 708 b 663 871 493 868 499 871 z "},"₣":{"ha":790,"x_min":0,"x_max":0,"o":"m 742 764 l 742 956 l 96 956 l 96 244 l 0 244 l 0 126 l 96 126 l 96 0 l 347 0 l 347 126 l 574 126 l 574 244 l 347 244 l 347 353 l 690 353 l 690 544 l 347 544 l 347 764 z "},"₲":{"ha":860,"x_min":0,"x_max":0,"o":"m 433 547 l 433 401 l 533 401 l 533 375 b 429 288 533 293 531 288 b 324 478 339 288 324 300 b 506 672 324 669 331 672 b 742 654 554 672 644 665 l 742 826 b 525 854 681 839 599 850 l 525 967 l 354 967 l 354 854 b 74 478 128 838 74 744 b 354 103 74 213 121 119 l 354 -11 l 525 -11 l 525 101 b 779 399 765 115 779 200 l 779 547 z "},"₭":{"ha":953,"x_min":0,"x_max":0,"o":"m 686 396 l 869 396 l 869 578 l 669 578 l 938 956 l 665 956 l 411 581 l 349 581 l 349 956 l 96 956 l 96 578 l 15 578 l 15 396 l 96 396 l 96 0 l 349 0 l 349 392 l 411 392 l 660 0 l 942 0 z "},"₤":{"ha":840,"x_min":0,"x_max":0,"o":"m 417 192 l 417 314 l 697 314 l 697 432 l 417 432 l 417 525 l 697 525 l 697 643 l 418 643 b 604 775 425 751 463 775 b 768 763 638 775 710 769 l 768 942 b 543 967 715 956 619 967 b 165 643 260 967 175 882 l 60 643 l 60 525 l 164 525 l 164 432 l 60 432 l 60 314 l 163 314 l 163 192 l 60 192 l 60 0 l 783 0 l 783 192 z "},"₺":{"ha":819,"x_min":0,"x_max":0,"o":"m 96 0 l 422 0 b 829 371 771 0 829 97 l 590 371 b 422 192 590 221 561 192 l 347 192 l 347 360 l 549 399 l 549 513 l 347 474 l 347 571 l 549 608 l 549 724 l 347 685 l 347 956 l 96 956 l 96 636 l 13 619 l 13 506 l 96 521 l 96 425 l 13 408 l 13 294 l 96 310 z "},"₼":{"ha":956,"x_min":0,"x_max":0,"o":"m 90 0 l 322 0 l 322 603 b 413 776 322 732 325 768 l 414 0 l 543 0 l 544 776 b 632 603 629 767 632 731 l 632 0 l 864 0 l 864 524 b 546 965 864 847 843 951 l 546 1071 l 411 1071 l 411 965 b 90 524 113 953 90 849 z "},"₦":{"ha":993,"x_min":0,"x_max":0,"o":"m 988 563 l 899 563 l 899 956 l 656 956 l 656 563 l 589 563 l 356 956 l 96 956 l 96 563 l 6 563 l 6 444 l 96 444 l 96 0 l 338 0 l 338 444 l 403 444 l 663 0 l 899 0 l 899 444 l 988 444 z "},"₧":{"ha":892,"x_min":0,"x_max":0,"o":"m 96 0 l 349 0 l 349 308 l 556 308 b 847 576 788 308 839 415 l 938 576 l 938 696 l 847 696 b 558 956 836 864 778 956 l 96 956 l 96 696 l 0 696 l 0 576 l 96 576 z m 349 696 l 349 767 l 461 767 b 592 696 557 767 583 754 z m 349 497 l 349 576 l 592 576 b 458 497 586 511 561 497 z "},"₱":{"ha":892,"x_min":0,"x_max":0,"o":"m 940 769 l 838 769 b 558 956 814 890 743 956 l 96 956 l 96 769 l 0 769 l 0 665 l 96 665 l 96 600 l 0 600 l 0 494 l 96 494 l 96 0 l 349 0 l 349 308 l 556 308 b 838 494 744 308 814 381 l 940 494 l 940 600 l 849 600 b 849 632 849 611 849 621 l 849 665 l 940 665 z m 458 497 l 349 497 l 349 767 l 461 767 b 594 632 583 767 594 749 b 458 497 594 517 583 497 z "},"₽":{"ha":892,"x_min":0,"x_max":0,"o":"m 96 0 l 349 0 l 349 107 l 574 107 l 574 225 l 349 225 l 349 308 l 556 308 b 849 632 813 308 849 440 b 558 956 849 840 804 956 l 96 956 l 96 497 l 0 497 l 0 308 l 96 308 l 96 225 l 0 225 l 0 107 l 96 107 z m 349 497 l 349 767 l 461 767 b 594 632 583 767 594 749 b 458 497 594 517 583 497 z "},"₹":{"ha":835,"x_min":0,"x_max":0,"o":"m 436 0 l 763 0 l 403 336 l 431 336 b 742 588 646 336 729 397 l 835 588 l 835 699 l 742 699 b 706 844 739 757 729 806 l 835 844 l 835 956 l 74 956 l 74 769 l 356 769 b 510 699 474 769 503 756 l 74 699 l 74 588 l 508 588 b 357 517 500 529 468 517 l 74 517 l 74 357 z "},"£":{"ha":840,"x_min":0,"x_max":0,"o":"m 60 0 l 783 0 l 783 192 l 417 192 l 417 400 l 663 400 l 663 582 l 417 582 l 417 596 b 604 775 417 749 442 775 b 768 763 638 775 710 769 l 768 942 b 543 967 715 956 619 967 b 164 596 238 967 164 867 l 164 582 l 60 582 l 60 400 l 163 400 l 163 192 l 60 192 z "},"₩":{"ha":1371,"x_min":0,"x_max":0,"o":"m 1354 956 l 1101 956 l 1029 542 l 914 542 l 821 956 l 558 956 l 468 542 l 350 542 l 269 956 l 18 956 l 108 542 l 18 542 l 18 424 l 133 424 l 225 0 l 543 0 l 643 424 l 729 424 l 829 0 l 1146 0 l 1238 424 l 1353 424 l 1353 542 l 1264 542 z m 669 542 l 681 586 l 692 586 l 703 542 z m 411 285 l 400 285 l 374 424 l 442 424 z m 983 285 l 972 285 l 940 424 l 1008 424 z "},"¥":{"ha":876,"x_min":0,"x_max":0,"o":"m 310 0 l 564 0 l 564 289 l 808 289 l 808 408 l 588 408 l 635 500 l 808 500 l 808 619 l 690 619 l 849 956 l 603 956 l 446 564 l 436 564 l 278 956 l 25 956 l 183 619 l 64 619 l 64 500 l 239 500 l 286 408 l 64 408 l 64 289 l 310 289 z "},"∙":{"ha":549,"x_min":0,"x_max":0,"o":"m 104 306 l 444 306 l 444 649 l 104 649 z "},"⁒":{"ha":547,"x_min":0,"x_max":0,"o":"m 0 0 l 140 0 l 547 956 l 407 956 z m 14 749 l 232 749 l 232 956 l 14 956 z m 315 0 l 533 0 l 533 207 l 315 207 z "},"∕":{"ha":547,"x_min":0,"x_max":0,"o":"m 0 0 l 140 0 l 547 956 l 407 956 z "},"+":{"ha":750,"x_min":0,"x_max":0,"o":"m 290 74 l 458 74 l 458 268 l 653 268 l 653 433 l 458 433 l 458 629 l 290 629 l 290 433 l 97 433 l 97 268 l 290 268 z "},"−":{"ha":750,"x_min":0,"x_max":0,"o":"m 97 268 l 653 268 l 653 433 l 97 433 z "},"×":{"ha":717,"x_min":0,"x_max":0,"o":"m 214 88 l 358 233 l 504 88 l 622 207 l 476 353 l 622 497 l 506 615 l 360 469 l 214 615 l 96 496 l 240 351 l 97 207 z "},"÷":{"ha":750,"x_min":0,"x_max":0,"o":"m 290 539 l 458 539 l 458 682 l 290 682 z m 97 268 l 653 268 l 653 433 l 97 433 z m 290 19 l 458 19 l 458 163 l 290 163 z "},"=":{"ha":750,"x_min":0,"x_max":0,"o":"m 97 413 l 653 413 l 653 578 l 97 578 z m 97 124 l 653 124 l 653 289 l 97 289 z "},"≠":{"ha":750,"x_min":0,"x_max":0,"o":"m 135 0 l 275 0 l 332 124 l 653 124 l 653 289 l 410 289 l 467 413 l 653 413 l 653 578 l 544 578 l 606 708 l 465 708 l 404 578 l 97 578 l 97 413 l 326 413 l 269 289 l 97 289 l 97 124 l 192 124 z "},">":{"ha":751,"x_min":0,"x_max":0,"o":"m 97 63 l 653 267 l 653 435 l 97 640 l 97 472 l 454 351 l 97 229 z "},"<":{"ha":751,"x_min":0,"x_max":0,"o":"m 654 63 l 654 229 l 296 351 l 654 472 l 654 640 l 99 435 l 99 267 z "},"≥":{"ha":751,"x_min":0,"x_max":0,"o":"m 97 242 l 654 446 l 654 614 l 97 819 l 97 651 l 456 531 l 97 408 z m 97 0 l 654 0 l 654 165 l 97 165 z "},"≤":{"ha":751,"x_min":0,"x_max":0,"o":"m 653 242 l 653 408 l 294 531 l 653 651 l 653 819 l 97 614 l 97 446 z m 97 0 l 653 0 l 653 165 l 97 165 z "},"±":{"ha":750,"x_min":0,"x_max":0,"o":"m 290 261 l 458 261 l 458 456 l 653 456 l 653 622 l 458 622 l 458 817 l 290 817 l 290 622 l 97 622 l 97 456 l 290 456 z m 97 0 l 653 0 l 653 165 l 97 165 z "},"≈":{"ha":690,"x_min":0,"x_max":0,"o":"m 71 374 l 186 374 b 221 433 186 418 186 433 b 324 415 247 433 283 425 b 488 390 374 404 432 390 b 618 590 614 390 618 464 l 503 590 b 468 531 503 544 503 531 b 367 549 442 531 407 539 b 203 574 317 560 258 574 b 71 374 75 574 71 500 z m 71 114 l 186 114 b 221 174 186 158 186 174 b 322 156 247 174 283 164 b 488 129 374 143 432 129 b 618 329 614 129 618 203 l 503 329 b 468 269 503 285 503 269 b 367 288 442 269 407 279 b 203 314 317 300 258 314 b 71 114 75 314 71 240 z "},"~":{"ha":690,"x_min":0,"x_max":0,"o":"m 71 314 l 186 314 b 221 374 186 358 186 374 b 322 356 247 374 283 364 b 488 329 374 343 432 329 b 618 529 614 329 618 403 l 503 529 b 468 469 503 485 503 469 b 367 488 442 469 407 479 b 203 514 317 500 258 514 b 71 314 75 514 71 440 z "},"¬":{"ha":750,"x_min":0,"x_max":0,"o":"m 485 74 l 651 74 l 651 435 l 97 435 l 97 268 l 485 268 z "},"^":{"ha":601,"x_min":0,"x_max":0,"o":"m 21 617 l 186 617 l 300 892 l 415 617 l 579 617 l 383 1040 l 218 1040 z "},"∞":{"ha":1440,"x_min":0,"x_max":0,"o":"m 394 53 b 721 229 578 53 668 133 b 1049 53 774 133 864 53 b 1371 356 1311 53 1371 160 b 1049 658 1371 549 1311 658 b 721 482 864 658 774 576 b 394 658 668 576 578 658 b 68 356 132 658 68 549 b 394 53 68 160 132 53 z m 406 207 b 243 356 275 207 243 246 b 406 504 243 464 275 504 b 629 356 551 504 596 431 b 406 207 596 281 551 207 z m 1038 207 b 814 356 892 207 844 281 b 1038 504 844 431 892 504 b 1197 356 1167 504 1197 464 b 1038 207 1197 246 1167 207 z "},"∫":{"ha":631,"x_min":0,"x_max":0,"o":"m 56 -264 b 461 -53 403 -264 461 -233 b 457 36 461 -33 460 -11 l 404 694 b 401 743 403 714 401 732 b 571 808 401 800 422 808 l 571 967 b 165 756 224 967 165 936 b 168 689 165 731 167 710 l 218 38 b 224 -40 222 -14 224 -31 b 56 -106 224 -97 204 -106 z "},"Ω":{"ha":982,"x_min":0,"x_max":0,"o":"m 75 0 l 425 0 l 425 185 b 333 490 344 200 333 307 b 492 775 333 757 339 775 b 649 490 643 775 649 756 b 558 185 649 307 639 200 l 558 0 l 908 0 l 908 192 l 888 192 l 722 143 l 722 153 b 904 533 846 206 904 326 b 492 967 904 818 889 967 b 78 533 94 967 78 818 b 261 153 78 326 136 206 l 261 143 l 94 192 l 75 192 z "},"∆":{"ha":960,"x_min":0,"x_max":0,"o":"m 8 0 l 951 0 l 653 956 l 307 956 z m 297 189 l 471 764 l 481 764 l 654 189 z "},"∏":{"ha":997,"x_min":0,"x_max":0,"o":"m 97 -262 l 351 -262 l 351 767 l 646 767 l 646 -262 l 900 -262 l 900 956 l 97 956 z "},"∑":{"ha":988,"x_min":0,"x_max":0,"o":"m 92 -262 l 894 -262 l 894 -74 l 400 -74 l 783 346 l 400 767 l 894 767 l 894 956 l 92 956 l 92 772 l 481 346 l 92 -79 z "},"√":{"ha":1028,"x_min":0,"x_max":0,"o":"m 386 -147 l 657 -147 l 972 1069 l 764 1069 l 510 57 l 300 488 l 42 375 l 85 268 l 165 303 z "},"µ":{"ha":821,"x_min":0,"x_max":0,"o":"m 506 708 l 506 339 b 407 179 506 211 496 179 b 315 335 324 179 315 188 l 315 708 l 82 708 l 82 -262 l 315 -262 l 315 -6 b 499 85 411 -4 463 31 l 511 85 l 517 0 l 739 0 l 739 708 z "},"∂":{"ha":796,"x_min":0,"x_max":0,"o":"m 397 -11 b 736 361 719 -11 736 71 b 708 646 736 465 726 554 b 478 1032 672 825 585 938 l 228 1032 l 228 1026 b 457 706 317 947 406 851 l 451 701 b 322 719 413 714 361 719 b 60 354 86 719 60 615 b 397 -11 60 74 76 -11 z m 397 163 b 293 354 293 163 293 178 b 397 544 293 529 293 544 b 503 354 503 544 503 521 b 397 163 503 178 503 163 z "},"%":{"ha":1224,"x_min":0,"x_max":0,"o":"m 278 432 b 489 699 469 432 489 475 b 278 967 489 922 469 967 b 68 699 86 967 68 922 b 278 432 68 475 86 432 z m 229 0 l 372 0 l 996 956 l 853 956 z m 278 538 b 206 699 206 538 206 540 b 278 861 206 857 206 861 b 351 699 350 861 351 857 b 278 538 351 540 350 538 z m 946 -11 b 1157 256 1138 -11 1157 32 b 946 524 1157 479 1138 524 b 735 256 754 524 735 479 b 946 -11 735 32 754 -11 z m 946 94 b 874 256 874 94 874 97 b 946 418 874 414 874 418 b 1018 256 1018 418 1018 414 b 946 94 1018 97 1018 94 z "},"‰":{"ha":1431,"x_min":0,"x_max":0,"o":"m 251 500 b 436 733 424 500 436 540 b 251 967 436 926 424 967 b 68 733 81 967 68 926 b 251 500 68 540 81 500 z m 113 0 l 256 0 l 896 956 l 753 956 z m 251 593 b 189 733 190 593 189 597 b 251 874 189 869 190 874 b 314 733 314 874 314 869 b 251 593 314 597 313 593 z m 756 -11 b 940 222 928 -11 940 29 b 756 456 940 415 928 456 b 572 222 585 456 572 415 b 756 -11 572 29 585 -11 z m 1178 -11 b 1363 222 1350 -11 1363 29 b 1178 456 1363 415 1350 456 b 994 222 1007 456 994 415 b 1178 -11 994 29 1007 -11 z m 756 82 b 693 222 694 82 693 86 b 756 363 693 358 694 363 b 818 222 818 363 818 358 b 756 82 818 86 818 82 z m 1178 82 b 1115 222 1117 82 1115 86 b 1178 363 1115 358 1117 363 b 1240 222 1240 363 1240 358 b 1178 82 1240 86 1240 82 z "},"↑":{"ha":549,"x_min":0,"x_max":0,"o":"m 201 -114 l 350 -114 l 350 606 l 472 564 l 275 960 l 76 564 l 201 606 z "},"→":{"ha":1226,"x_min":0,"x_max":0,"o":"m 754 225 l 1150 422 l 754 621 l 796 497 l 76 497 l 76 349 l 796 349 z "},"↓":{"ha":549,"x_min":0,"x_max":0,"o":"m 275 -118 l 472 278 l 350 236 l 350 956 l 201 956 l 201 236 l 76 278 z "},"←":{"ha":1226,"x_min":0,"x_max":0,"o":"m 472 225 l 431 349 l 1150 349 l 1150 497 l 431 497 l 472 621 l 76 422 z "},"↔":{"ha":1226,"x_min":0,"x_max":0,"o":"m 472 225 l 431 349 l 796 349 l 754 225 l 1150 422 l 754 621 l 796 497 l 431 497 l 472 621 l 76 422 z "},"↕":{"ha":549,"x_min":0,"x_max":0,"o":"m 275 -118 l 472 278 l 350 236 l 350 613 l 472 571 l 275 967 l 76 571 l 201 613 l 201 236 l 76 278 z "},"↨":{"ha":549,"x_min":0,"x_max":0,"o":"m 275 -118 l 472 278 l 350 236 l 350 613 l 472 571 l 275 967 l 76 571 l 201 613 l 201 236 l 76 278 z m 76 -292 l 472 -292 l 472 -165 l 76 -165 z "},"◊":{"ha":750,"x_min":0,"x_max":0,"o":"m 288 0 l 463 0 l 697 478 l 463 956 l 288 956 l 53 478 z m 375 142 l 219 478 l 375 813 l 531 478 z "},"":{"ha":1168,"x_min":0,"x_max":0,"o":"m 100 0 l 1068 0 l 1068 969 l 100 969 z m 586 188 b 311 439 413 188 311 300 l 311 531 b 586 782 311 669 413 782 b 858 531 758 782 858 669 l 858 439 b 586 188 858 300 758 188 z m 586 319 b 671 403 633 319 671 357 l 671 567 b 586 650 671 613 633 650 b 500 567 538 650 500 613 l 500 403 b 586 319 500 357 538 319 z "},"@":{"ha":1307,"x_min":0,"x_max":0,"o":"m 653 -150 b 936 -146 813 -150 875 -149 l 936 -57 b 654 -62 889 -60 747 -62 b 467 -60 576 -62 511 -62 b 199 408 203 -46 199 25 b 394 869 199 749 203 843 b 653 878 450 878 536 878 b 928 867 778 878 869 878 b 1107 408 1104 836 1107 739 b 1028 192 1107 193 1093 192 l 938 192 l 938 469 b 654 719 938 642 917 719 b 408 700 572 719 486 713 l 408 561 b 589 569 489 567 550 569 b 733 479 719 569 733 567 l 733 457 b 565 463 682 460 600 463 b 374 279 411 463 374 422 b 550 94 374 149 431 94 b 726 176 617 94 679 101 l 736 176 l 743 104 l 1015 104 b 1204 408 1154 104 1204 106 b 653 967 1204 904 1179 967 b 101 408 126 967 101 901 b 653 -150 101 -83 126 -150 z m 644 232 b 565 297 572 232 565 246 b 631 363 565 354 574 363 l 733 363 l 733 331 b 644 232 733 257 722 232 z "},"&":{"ha":1021,"x_min":0,"x_max":0,"o":"m 613 569 l 613 171 b 500 167 575 168 539 167 b 303 281 347 167 303 182 b 438 394 303 374 324 394 l 511 394 l 511 569 l 438 569 b 311 676 325 569 311 597 b 540 788 311 768 338 788 b 842 768 626 788 753 779 l 842 935 b 499 967 746 953 601 967 b 71 715 149 967 71 858 b 236 490 71 576 125 517 l 236 485 b 63 256 124 458 63 411 b 500 -11 63 106 118 -11 b 847 21 604 -11 747 3 l 847 394 l 993 394 l 993 569 z "},"¶":{"ha":890,"x_min":0,"x_max":0,"o":"m 404 -200 l 553 -200 l 553 956 l 404 956 b 65 631 81 956 65 913 b 404 308 65 349 81 308 z m 644 -200 l 792 -200 l 792 956 l 644 956 z "},"§":{"ha":958,"x_min":0,"x_max":0,"o":"m 457 -237 b 779 -6 640 -237 779 -206 b 764 107 779 38 775 76 b 903 350 878 132 903 208 b 718 593 903 526 842 556 l 482 664 b 410 728 415 683 410 688 b 542 779 410 774 431 779 b 776 771 632 779 728 774 l 776 944 b 501 967 731 954 624 967 b 179 735 317 967 179 933 b 193 621 179 690 182 651 b 54 378 79 596 54 519 b 247 132 54 201 115 172 l 482 63 b 549 1 542 44 549 40 b 415 -50 549 -46 528 -50 b 182 -42 324 -50 229 -46 l 182 -215 b 457 -237 228 -225 335 -237 z m 275 411 b 313 499 275 476 286 499 b 371 485 324 499 343 492 l 622 410 b 685 317 671 396 685 382 b 647 229 685 251 672 229 b 592 242 636 229 619 233 l 343 317 b 275 411 288 332 275 344 z "},"©":{"ha":1040,"x_min":0,"x_max":0,"o":"m 519 -11 b 933 478 914 -11 933 53 b 519 967 933 901 914 967 b 107 478 126 967 107 901 b 519 -11 107 53 126 -11 z m 519 75 b 199 478 204 75 199 85 b 519 881 199 869 204 881 b 842 478 836 881 842 869 b 519 75 842 85 836 75 z m 550 214 b 685 225 593 214 650 218 l 685 326 b 582 319 660 322 617 319 b 472 476 476 319 472 332 b 582 632 472 621 476 632 b 682 626 606 632 649 629 l 682 726 b 550 739 651 733 596 739 b 333 476 357 739 333 674 b 550 214 333 279 357 214 z "},"®":{"ha":1040,"x_min":0,"x_max":0,"o":"m 519 -11 b 933 478 914 -11 933 53 b 519 967 933 901 914 967 b 107 478 126 967 107 901 b 519 -11 107 53 126 -11 z m 519 75 b 199 478 204 75 199 85 b 519 881 199 869 204 881 b 842 478 836 881 842 869 b 519 75 842 85 836 75 z m 318 221 l 451 221 l 451 400 l 536 400 l 599 221 l 740 221 l 663 418 b 729 567 721 443 729 503 b 565 735 729 672 711 735 l 318 735 z m 451 501 l 451 629 l 522 629 b 594 565 589 629 594 619 b 519 501 594 513 589 501 z "},"™":{"ha":1115,"x_min":0,"x_max":0,"o":"m 211 538 l 332 538 l 332 851 l 461 851 l 461 956 l 85 956 l 85 851 l 211 851 z m 515 538 l 628 538 l 628 807 l 633 807 l 729 538 l 803 538 l 900 807 l 906 807 l 906 538 l 1019 538 l 1019 956 l 858 956 l 774 715 l 765 715 l 676 956 l 515 956 z "},"°":{"ha":551,"x_min":0,"x_max":0,"o":"m 276 551 b 481 758 468 551 481 597 b 276 967 481 918 468 967 b 69 758 85 967 69 918 b 276 551 69 597 85 551 z m 276 649 b 206 758 207 649 206 665 b 276 868 206 851 207 868 b 344 758 344 868 344 851 b 276 649 344 665 344 649 z "},"′":{"ha":388,"x_min":0,"x_max":0,"o":"m 68 511 l 226 511 l 297 796 l 310 956 l 104 956 z "},"″":{"ha":678,"x_min":0,"x_max":0,"o":"m 68 511 l 226 511 l 297 796 l 310 956 l 104 956 z m 358 511 l 517 511 l 588 796 l 600 956 l 393 956 z "},"|":{"ha":414,"x_min":0,"x_max":0,"o":"m 107 -224 l 307 -224 l 307 1032 l 107 1032 z "},"¦":{"ha":414,"x_min":0,"x_max":0,"o":"m 107 542 l 307 542 l 307 1032 l 107 1032 z m 107 -224 l 307 -224 l 307 267 l 107 267 z "},"ℓ":{"ha":740,"x_min":0,"x_max":0,"o":"m 336 261 b 671 710 560 335 671 514 b 419 964 671 864 592 964 b 74 454 190 964 74 828 b 74 411 74 440 74 425 l 7 411 l 7 219 b 94 221 36 218 65 219 b 407 -10 135 51 232 -10 b 622 28 486 -10 546 3 l 622 232 b 429 183 528 193 474 183 b 336 261 379 183 351 201 z m 414 774 b 460 711 443 774 460 751 b 321 475 460 610 406 528 b 414 774 321 679 340 774 z "},"†":{"ha":721,"x_min":0,"x_max":0,"o":"m 292 0 l 431 0 l 443 586 l 629 599 l 629 735 l 443 749 l 431 956 l 292 956 l 278 749 l 93 735 l 93 599 l 278 586 z "}}}
